<?xml version="1.0" encoding="UTF-8" standalone="no"?>
<svg
   xmlns:dc="http://purl.org/dc/elements/1.1/"
   xmlns:cc="http://creativecommons.org/ns#"
   xmlns:rdf="http://www.w3.org/1999/02/22-rdf-syntax-ns#"
   xmlns:svg="http://www.w3.org/2000/svg"
   xmlns="http://www.w3.org/2000/svg"
   viewBox="0 0 622.89465 171.28934"
   height="171.28934"
   width="622.89465"
   xml:space="preserve"
   id="svg2"
   version="1.1"><metadata
     id="metadata8"><rdf:RDF><cc:Work
         rdf:about=""><dc:format>image/svg+xml</dc:format><dc:type
           rdf:resource="http://purl.org/dc/dcmitype/StillImage" /></cc:Work></rdf:RDF></metadata><defs
     id="defs6"><clipPath
       id="clipPath18"
       clipPathUnits="userSpaceOnUse"><path
         id="path16"
         d="M 0,128.467 H 467.171 V 0 H 0 Z" /></clipPath></defs><g
     transform="matrix(1.3333333,0,0,-1.3333333,0,171.28933)"
     id="g10"><g
       id="g12"><g
         clip-path="url(#clipPath18)"
         id="g14"><g
           transform="translate(441.5166,78.7847)"
           id="g20"><path
             id="path22"
             style="fill:#ffffff;fill-opacity:1;fill-rule:nonzero;stroke:none"
             d="m 0,0 v -59.442 h -5.463 v 82.04 h 29.409 l 1.708,-9.222 z M 19.695,17.136 H 0 V 6.199 l 20.179,9.844 z m -38.288,-35.61 c 0,-5.93 -0.592,-11.496 -1.762,-16.715 -1.171,-5.22 -2.765,-9.771 -4.817,-13.619 -2.003,-3.851 -4.345,-6.89 -6.981,-9.114 -2.631,-2.226 -5.489,-3.353 -8.571,-3.353 -2.999,0 -5.832,1.127 -8.495,3.353 -2.682,2.224 -5.01,5.263 -7.003,9.114 -1.976,3.848 -3.564,8.399 -4.741,13.619 -1.178,5.219 -1.763,10.785 -1.763,16.715 0,5.896 0.585,11.482 1.763,16.712 1.177,5.22 2.765,9.76 4.741,13.614 1.993,3.851 4.321,6.901 7.003,9.176 2.663,2.265 5.496,3.41 8.495,3.41 3.082,0 5.94,-1.145 8.571,-3.41 2.636,-2.275 4.978,-5.325 6.981,-9.176 2.052,-3.854 3.646,-8.394 4.817,-13.614 1.17,-5.23 1.762,-10.816 1.762,-16.712 m -5.36,0 c 0,5.099 -0.439,9.935 -1.339,14.466 -0.882,4.54 -2.099,8.499 -3.633,11.908 -1.548,3.397 -3.308,6.068 -5.294,8.025 -1.985,1.941 -4.109,2.912 -6.376,2.912 -2.281,0 -4.421,-0.971 -6.437,-2.912 -2.045,-1.957 -3.794,-4.628 -5.294,-8.025 -1.501,-3.409 -2.698,-7.368 -3.585,-11.908 -0.903,-4.531 -1.339,-9.367 -1.339,-14.466 0,-5.207 0.436,-10.057 1.339,-14.597 0.887,-4.537 2.084,-8.499 3.585,-11.902 1.5,-3.407 3.249,-6.075 5.294,-7.975 2.016,-1.904 4.156,-2.858 6.437,-2.858 2.267,0 4.391,0.954 6.376,2.858 1.986,1.9 3.746,4.568 5.294,7.975 1.534,3.403 2.751,7.365 3.633,11.902 0.9,4.54 1.339,9.39 1.339,14.597 M -81.33,-59.442 V 0.249 h -23.463 v -59.691 h -5.482 v 82.04 h 5.482 V 5.594 h 23.463 v 17.004 h 5.475 v -82.04 z m -44.31,98.503 c -3.092,-2.333 -5.743,-5.476 -7.922,-9.451 -2.18,-3.988 -3.835,-8.616 -4.937,-13.894 -1.123,-5.293 -1.676,-10.846 -1.676,-16.674 0,-8.341 -0.707,-16.076 -2.133,-23.2 -1.378,-7.133 -3.484,-13.305 -6.241,-18.555 -2.771,-5.247 -6.216,-9.333 -10.332,-12.286 -4.117,-2.977 -8.859,-4.443 -14.193,-4.443 v 7.129 c 3.888,0 7.427,1.252 10.629,3.764 3.2,2.536 5.891,5.914 8.071,10.134 2.18,4.224 3.881,9.037 5.092,14.459 1.217,5.442 1.823,11.125 1.823,17.041 0,8.237 0.673,15.841 2.038,22.78 1.352,6.922 3.382,12.898 6.053,17.879 2.644,5.001 6.021,8.905 10.091,11.724 4.076,2.802 8.832,4.215 14.266,4.215 v -7.124 c -3.982,0 -7.52,-1.178 -10.629,-3.498 M -211.189,42.4 V 27.125 h 35.787 v -7.117 h -35.787 v -6.114 c 0,-6.979 0.598,-14.354 1.819,-22.127 1.21,-7.746 3.195,-14.91 5.959,-21.447 2.771,-6.549 6.45,-11.964 11.058,-16.236 4.608,-4.27 10.265,-6.397 16.951,-6.397 v -7.129 c -7.756,0 -14.373,2.182 -19.856,6.541 -5.482,4.352 -9.946,10.036 -13.383,17.028 -3.451,7 -5.946,14.863 -7.499,23.654 -1.558,8.769 -2.332,17.53 -2.332,26.257 v 35.645 h 43.218 V 42.4 Z M -257.34,17.136 V 5.594 h 26.989 V 0.249 h -26.989 v -4.5 c 0,-5.28 0.464,-10.819 1.391,-16.655 0.933,-5.848 2.432,-11.233 4.501,-16.174 2.064,-4.943 4.839,-9.014 8.317,-12.218 3.495,-3.196 7.743,-4.8 12.78,-4.8 v -5.344 c -5.841,0 -10.829,1.624 -14.956,4.91 -4.13,3.293 -7.494,7.56 -10.096,12.824 -2.591,5.277 -4.477,11.18 -5.646,17.752 -1.175,6.575 -1.767,13.137 -1.767,19.705 v 26.849 h 32.573 v -5.462 z m -41.211,0 V 5.594 h 26.862 V 0.249 h -26.862 v -59.691 h -5.476 v 82.04 h 32.456 v -5.462 z m -42.918,0 V 5.594 h 26.868 V 0.249 h -26.868 v -59.691 h -5.475 v 82.04 h 32.468 v -5.462 z m -18.596,-35.61 c 0,-5.93 -0.588,-11.496 -1.766,-16.715 -1.164,-5.22 -2.775,-9.771 -4.806,-13.619 -2.01,-3.851 -4.345,-6.89 -6.985,-9.114 -2.637,-2.226 -5.488,-3.353 -8.563,-3.353 -3.007,0 -5.839,1.127 -8.52,3.353 -2.667,2.224 -5.007,5.263 -6.978,9.114 -1.991,3.848 -3.582,8.399 -4.749,13.619 -1.173,5.219 -1.758,10.785 -1.758,16.715 0,5.896 0.585,11.482 1.758,16.712 1.167,5.22 2.758,9.76 4.749,13.614 1.971,3.851 4.311,6.901 6.978,9.176 2.681,2.265 5.513,3.41 8.52,3.41 3.075,0 5.926,-1.145 8.563,-3.41 2.64,-2.275 4.975,-5.325 6.985,-9.176 2.031,-3.854 3.642,-8.394 4.806,-13.614 1.178,-5.23 1.766,-10.816 1.766,-16.712 m -5.353,0 c 0,5.099 -0.442,9.935 -1.336,14.466 -0.888,4.54 -2.1,8.499 -3.645,11.908 -1.542,3.397 -3.31,6.068 -5.281,8.025 -1.992,1.941 -4.121,2.912 -6.401,2.912 -2.26,0 -4.393,-0.971 -6.434,-2.912 -2.011,-1.957 -3.787,-4.628 -5.29,-8.025 -1.493,-3.409 -2.684,-7.368 -3.572,-11.908 -0.912,-4.531 -1.352,-9.367 -1.352,-14.466 0,-5.207 0.44,-10.057 1.352,-14.597 0.888,-4.537 2.079,-8.499 3.572,-11.902 1.503,-3.407 3.279,-6.075 5.29,-7.975 2.041,-1.904 4.174,-2.858 6.434,-2.858 2.28,0 4.409,0.954 6.401,2.858 1.971,1.9 3.739,4.568 5.281,7.975 1.545,3.403 2.757,7.365 3.645,11.902 0.894,4.54 1.336,9.39 1.336,14.597 m -70.624,35.61 V -4.251 c 0,-5.28 0.472,-10.819 1.394,-16.655 0.935,-5.848 2.438,-11.233 4.496,-16.174 2.075,-4.943 4.856,-9.014 8.334,-12.218 3.488,-3.196 7.742,-4.8 12.758,-4.8 v -5.344 c -5.829,0 -10.814,1.624 -14.94,4.91 -4.147,3.293 -7.5,7.56 -10.09,12.824 -2.59,5.277 -4.477,11.18 -5.664,17.752 -1.17,6.575 -1.763,13.137 -1.763,19.705 v 26.849 h 32.581 v -5.462 z m 261.636,-85.067 c -15.633,0 -36.411,2.858 -47.281,4.594 v -1.433 c 6.571,-3.746 19.212,-5.324 32.651,-10.661 1.291,-0.508 3.215,-2.953 4.486,-3.354 h 20.282 c 1.27,0.401 3.193,2.846 4.505,3.354 13.434,5.337 26.078,6.915 32.645,10.661 v 1.433 c -10.87,-1.736 -31.662,-4.594 -47.288,-4.594" /></g></g></g></g></svg>