<?xml version="1.0" encoding="UTF-8" standalone="no"?>
<svg
   xmlns:dc="http://purl.org/dc/elements/1.1/"
   xmlns:cc="http://creativecommons.org/ns#"
   xmlns:rdf="http://www.w3.org/1999/02/22-rdf-syntax-ns#"
   xmlns:svg="http://www.w3.org/2000/svg"
   xmlns="http://www.w3.org/2000/svg"
   viewBox="0 0 1319.3573 227.34132"
   height="227.34132"
   width="1319.3573"
   xml:space="preserve"
   id="svg2"
   version="1.1"><metadata
     id="metadata8"><rdf:RDF><cc:Work
         rdf:about=""><dc:format>image/svg+xml</dc:format><dc:type
           rdf:resource="http://purl.org/dc/dcmitype/StillImage" /></cc:Work></rdf:RDF></metadata><defs
     id="defs6"><clipPath
       id="clipPath18"
       clipPathUnits="userSpaceOnUse"><path
         id="path16"
         d="M 0,170.506 H 989.518 V 0 H 0 Z" /></clipPath></defs><g
     transform="matrix(1.3333333,0,0,-1.3333333,0,227.34133)"
     id="g10"><g
       id="g12"><g
         clip-path="url(#clipPath18)"
         id="g14"><g
           transform="translate(438.5619,86.3061)"
           id="g20"><path
             id="path22"
             style="fill:#fff;fill-opacity:1;fill-rule:nonzero;stroke:none"
             d="m 0,0 -36.244,-0.204 -2.809,4.513 c 0,0 28.487,0.806 42.637,0.563 C 2.132,2.891 0,0 0,0" /></g><g
           transform="translate(551.9565,86.3061)"
           id="g24"><path
             id="path26"
             style="fill:#fff;fill-opacity:1;fill-rule:nonzero;stroke:none"
             d="m 0,0 36.244,-0.204 2.809,4.513 c 0,0 -28.488,0.806 -42.636,0.563 C -2.132,2.891 0,0 0,0" /></g><g
           transform="translate(1.5756,8.0677)"
           id="g28"><path
             id="path30"
             style="fill:#fff;fill-opacity:1;fill-rule:nonzero;stroke:none"
             d="M 0,0 C 0,0 -7.496,14.171 10.21,27.343 35.456,47.33 134.773,71.664 333.813,79.034 l -2.641,-5.078 c 0,0 -243.271,-7.607 -317.946,-50.697 C -1.495,12.273 4.569,0.561 4.569,0.561 Z" /></g><g
           transform="translate(17.3896,3.6074)"
           id="g32"><path
             id="path34"
             style="fill:#fff;fill-opacity:1;fill-rule:nonzero;stroke:none"
             d="m 0,0 c -4.333,5.15 -4.619,14.417 4.35,22.499 51.23,37.484 309.566,49.784 309.566,49.784 l -3.095,-2.431 C 221.587,62.458 68.174,52.042 10.343,22.485 -1.455,14.954 0.398,-0.453 12.519,-3.402 12.521,-3.402 4.089,-4.861 0,0" /></g><g
           transform="translate(987.9428,8.0677)"
           id="g36"><path
             id="path38"
             style="fill:#fff;fill-opacity:1;fill-rule:nonzero;stroke:none"
             d="M 0,0 C 0,0 7.495,14.171 -10.21,27.343 -35.456,47.33 -134.773,71.664 -333.813,79.034 l 2.641,-5.078 c 0,0 243.271,-7.607 317.946,-50.697 C 1.494,12.273 -4.569,0.561 -4.569,0.561 Z" /></g><g
           transform="translate(972.1288,3.6074)"
           id="g40"><path
             id="path42"
             style="fill:#fff;fill-opacity:1;fill-rule:nonzero;stroke:none"
             d="m 0,0 c 4.333,5.15 4.619,14.417 -4.35,22.499 -51.23,37.484 -309.566,49.784 -309.566,49.784 l 3.095,-2.431 C -221.587,62.458 -68.174,52.042 -10.343,22.485 1.455,14.954 -0.398,-0.453 -12.519,-3.402 -12.521,-3.402 -4.089,-4.861 0,0" /></g><g
           transform="translate(644.3329,81.0883)"
           id="g44"><path
             id="path46"
             style="fill:#fff;fill-opacity:1;fill-rule:nonzero;stroke:none"
             d="m 0,0 c 1.227,-0.425 2.327,-0.862 3.268,-1.318 2.152,0.097 1.183,0.142 6.681,-0.834 0.858,-0.154 1.748,-0.561 2.642,-1.159 -0.177,0.702 -0.445,1.385 -0.801,2.038 C 10.8,0.536 9.132,2.1 6.754,3.045 5.7,3.599 4.583,4.124 3.411,4.623 1.782,3.612 0.425,2.025 0,0" /></g><g
           transform="translate(479.1918,124.9555)"
           id="g48"><path
             id="path50"
             style="fill:#fff;fill-opacity:1;fill-rule:evenodd;stroke:none"
             d="m 0,0 c 0.503,0.791 1.836,1.526 1.836,1.526 0,-1.325 1.42,-2.12 1.42,-2.12 0,0 -2.105,-0.231 -3.256,0.594 M 9.544,-0.535 8.972,0.015 C 8.476,-0.167 8.341,-0.354 7.737,-0.395 8.138,0.493 8.439,0.438 8.673,1.667 L 9.576,1.384 c 0.631,-0.351 0.668,-1.326 1.302,-1.635 0.432,-0.228 1.102,0.166 1.435,0.493 C 17.026,7.245 3.964,6.61 3.399,5.663 9.872,5.925 11.206,3.63 11.31,2.458 6.142,5.828 0.07,3.376 0.07,3.376 c 0,0 -3.315,-1.984 -2.269,-4.082 0.469,-0.731 0.802,-0.323 1.567,-0.194 3.158,-2.678 9.94,-0.922 10.176,0.365 m 4.334,-13.632 c 0.467,0.032 0.767,0.216 0.967,0.64 0.28,0.469 1.106,0.724 1.066,1.255 -0.033,0.677 -0.999,1.396 -1.734,1.155 -0.664,-0.417 -1.499,-0.614 -1.998,-1.27 -0.669,-0.903 0.266,-1.835 1.699,-1.78 m 3.337,-1.07 c 0.398,-0.128 -0.035,0 0.198,-0.116 0.868,-0.353 2.037,0.158 2.602,0.779 0.033,0.027 0.033,0.058 0.067,0.072 0,0.013 0.031,0.039 0.031,0.053 1.205,1.386 1.37,0.694 2.302,1.344 0.198,0.141 0.502,0.396 0.466,0.664 -0.031,0.761 -0.899,2.107 -1.668,1.92 -1.6,-0.355 -1.763,-1.626 -2.598,-2.784 -0.936,-1.327 -1.435,-0.83 -1.4,-1.932 m 3.203,-8.528 c -0.336,0.348 -3.7,0.339 -4.936,-0.017 0.016,-0.256 1.252,-2.186 2.485,-2.179 1.344,0.003 2.684,1.961 2.451,2.196 m -11.81,2.694 c 0,-0.353 -0.369,-0.426 1.702,-1.059 2.073,-0.632 3.598,0.211 5.468,0.343 0.739,0.052 1.603,0.42 2.236,0.448 1.2,0 1.436,-0.056 2.335,-0.112 0.335,0 0.969,-0.312 2.968,-0.27 l 2.667,0.029 c 0.669,0 1.802,0.479 0.401,1.354 -0.334,0.127 -1.265,-0.648 -1.702,-0.633 -1.233,0.013 -1.035,0.054 -1.633,0.424 0,0.013 -0.033,0.042 -0.071,0.042 -0.294,0.199 -0.997,0.86 -1.297,1.129 -1.667,1.429 -2.801,0.297 -4.003,-0.04 -0.801,-0.117 -1.334,0.548 -1.632,0.536 -0.765,-0.044 -1.87,-0.639 -2.505,-1.06 -0.464,-0.326 -0.899,-0.494 -1.596,-1.004 -0.429,-0.323 -0.545,-0.49 -1.068,-0.214 -0.737,0.316 -1.169,0.71 -1.57,0.82 -0.499,-0.025 -0.7,-0.083 -0.7,-0.733 m 5.403,0.056 c 0.402,0.309 1.033,0.822 1.703,0.937 0.468,0.055 0.032,0.081 0.433,-0.09 0.467,-0.181 0.765,-0.408 1.102,-0.691 -0.47,-0.239 -2.769,-0.735 -3.238,-0.156 M 25.517,1.06 C 26.653,1.991 27.191,2.471 27.62,1.526 27.921,0.89 27.89,0.778 27.818,0.198 27.251,0.143 25.552,0.058 25.517,1.06 M 7.11,0.788 C 6.322,0.621 5.649,2.21 6.429,2.259 L 7.052,1.714 Z m 34.785,-11.064 c 0.944,2.525 -2.553,8.345 -2.569,8.623 -0.161,0.447 -0.313,0.904 -0.313,1.389 0,0.427 -0.28,0.75 -0.385,1.194 -0.067,0.168 -0.225,0.353 -0.355,0.569 0.027,-0.631 -0.548,-1.198 -1.014,-1.568 -1.148,0.106 -1.296,0.765 -1.667,1.681 -0.232,0.663 -0.432,0.69 -1.17,0.93 0.193,-1.98 -1.399,-1.947 -1.433,-2.68 l 2.803,-0.257 c 0,0 1.01,-1.726 -6.837,-1.779 -1.869,0.283 -2.436,1.145 -2.703,1.2 -0.7,0.157 -2.582,0.67 -2.867,0.974 -0.266,0.394 -0.335,1.271 0.263,1.767 0.501,0.437 1.87,3.119 7.175,3.119 0.998,0.07 4.67,-0.549 5.335,-1.088 0.199,-0.154 0.236,-0.154 0.436,-0.366 0.298,-0.353 0.13,-0.239 0.566,-0.536 0,-0.015 0.034,-0.044 0.034,-0.044 0.02,-0.021 0.293,-0.226 0.547,-0.457 L 37.707,2.471 C 37.628,2.605 37.574,2.741 37.502,2.878 37.325,3.089 37.044,3.509 36.909,3.753 36.649,4.016 36.446,4.328 36.26,4.648 36.081,4.814 35.89,4.985 35.694,5.141 32.325,7.112 27.22,6.06 26.585,5.663 24.757,4.379 24.683,5.029 23.951,5.466 c 5.674,2.825 8.806,1.341 10.941,1.496 l 0.045,0.32 c -0.389,0.814 -0.902,1.622 -1.231,2.432 -0.17,0.171 -0.317,0.322 -0.451,0.47 -1.012,0.005 -5.243,0.307 -7.837,-0.173 -6.73,-0.824 -4.868,-12.708 -5.069,-12.977 -0.168,-0.182 -0.468,-0.112 -0.67,0.015 -0.296,0.183 -0.765,4.718 -0.798,5.775 -0.593,5.592 2.801,8.586 3.234,8.77 3.906,2.489 10.08,0.504 10.08,0.504 -0.117,0.236 -0.213,0.467 -0.257,0.616 -0.483,0.52 -1.266,2.233 -1.427,2.92 -0.207,0.505 -0.339,0.663 -0.376,1.253 -0.081,0.225 -0.129,0.464 -0.147,0.712 C 27.684,29.794 9.863,25.648 9.685,25.623 9.144,25.418 8.679,25.353 8.132,25.215 7.984,24.788 1.255,11.117 0.735,10.663 0.652,10.511 0.583,10.355 0.505,10.204 1.124,10.476 10.186,14.516 15.143,8.546 15.714,7.402 14.48,6.823 13.677,7.443 11.808,9.895 5.606,11.126 -0.803,7.727 -0.939,7.462 -4.751,0.653 -5.1,0.239 c -0.204,-0.494 -0.535,-5.575 -0.635,-5.956 -1.132,-5.355 0.967,-10.525 3.104,-14.561 0.931,-2.771 4.168,-5.863 5.701,-8.446 0.499,-0.566 3.101,-2.839 3.402,-3.403 3.772,-4.377 7.276,-5.011 11.542,-4.999 5.236,0.012 10.471,1.681 14.975,7.582 0.334,0.579 0.834,1.315 1.336,1.882 4.571,7.095 6.628,14.861 7.57,17.386 M -1.431,-41.4 c -0.768,-1.01 -1.837,-2.069 -3.111,-3.138 0.016,-0.121 0.016,-0.244 0.014,-0.396 0.274,-1.609 0.075,-3.264 0.528,-4.858 1.647,-5.781 1.582,-4.276 4.815,-8.624 l 1.677,-1.833 c 4.8,-5.598 8.468,0.995 13.556,0.101 0.995,-0.175 1.875,0.093 2.771,-0.364 0.95,-0.478 2.349,-1.189 3.43,-0.822 0.118,0.051 0.825,0.187 0.989,0.188 0.282,0.147 2.21,0.233 2.626,0.233 2.107,0 2.694,-4.259 2.694,-5.681 0,-0.636 -0.558,-1.678 -1.101,-1.98 -0.461,-0.455 -3.358,-2.008 -4.319,-2.085 -0.377,-0.195 -1.596,-0.386 -2.086,-0.502 -1.036,-0.607 -6.532,-1.417 -7.442,-1.417 -1.354,0 -3.277,-0.113 -4.607,0.286 -0.552,-0.261 -1.287,-0.592 -1.9,-0.592 H 1.587 c -0.707,0 -2.975,0.996 -3.443,1.355 -0.54,0.153 -2.687,1.29 -3.052,1.653 -0.267,0.148 -0.852,0.55 -1.07,0.763 -0.598,0.345 -1.81,1.224 -2.151,1.842 -0.396,0.223 -1.966,2.045 -2.134,2.431 -0.166,0.297 -0.678,0.847 -0.784,1.124 -0.275,0.209 -0.684,0.94 -0.797,1.315 -0.348,0.376 -1.181,1.68 -1.27,2.268 -0.086,0.155 -0.372,0.851 -0.522,1.288 -0.008,-0.421 -0.111,-0.839 -0.312,-1.219 -0.024,-0.326 -0.188,-1.001 -0.299,-1.322 -0.297,-1.165 -1.339,-2.427 -1.873,-3.585 -0.485,-0.591 -0.641,-1.051 -1.231,-1.55 -0.758,-0.638 -1.481,-1.832 -2.389,-1.999 -2.529,-0.462 -2.755,-1.217 -4.038,-2.017 0.074,-1.254 4.697,-2.702 7.798,-4.136 5.805,-2.688 14.87,-3.409 20.704,-5.529 10.182,-3.701 17.425,-2.933 26.154,-0.088 7.437,2.425 14.41,2.135 18.273,3.904 0.027,0.065 11.512,5.924 11.954,6.075 -0.582,0.796 -0.85,2.123 0.039,3.739 -0.621,1.185 -1.87,2.038 -2.432,2.702 -2.12,-4.775 -12.353,-8.91 -16.808,-9.188 -1.448,11.006 6.354,15.593 6.525,15.7 0,0 1.556,10.421 -6.95,10.474 0,0 -6.933,-0.727 -7.726,-0.727 -5.331,0.552 0.048,14.804 0.048,14.804 0,0 -3.781,-6.352 -15.855,-7.099 -9.609,-0.252 -13.675,8.089 -13.675,8.089 4.559,-16.269 -4.253,-16.771 -4.395,-17.471 h -0.763 c -0.175,0.467 -0.368,1.19 -0.576,2.178 -0.257,1.199 -0.178,3.275 0.032,5.71 m -13.924,-30.138 c 4.918,-1.981 8.44,-1.48 15.763,-2.391 1.203,-0.15 2.542,-0.316 3.822,-0.48 2.048,-0.264 4.095,-0.935 6.185,-1.614 2.577,-0.843 4.823,-1.31 7.365,-1.347 2.727,-0.042 4.822,0.756 7.603,1.534 2.215,0.625 5.897,0.775 8.072,0.995 5.203,0.52 7.554,-0.101 11.044,0.659 2.957,0.647 4.161,1.425 7.213,2.41 0.809,0.26 2.565,0.967 1.702,-0.4 -1.036,-1.644 -6.195,-2.669 -8.402,-3.151 -3.573,-0.778 -6.004,-0.909 -11.317,-1.439 -1.953,-0.197 -5.543,-0.782 -7.659,-1.375 -2.945,-0.826 -5.2,-1.671 -8.289,-1.622 -2.925,0.044 -6.483,0.963 -9.223,1.859 -1.986,0.648 -3.941,1.286 -5.759,1.516 -1.54,0.2 -2.731,0.35 -3.815,0.484 -2.304,0.287 -13.971,1.548 -15.853,3.731 -1.176,1.368 0.251,1.154 1.548,0.631" /></g><g
           transform="translate(346.1718,86.1196)"
           id="g52"><path
             id="path54"
             style="fill:#fff;fill-opacity:1;fill-rule:nonzero;stroke:none"
             d="M 0,0 C -0.604,-0.282 -1.196,-0.573 -1.765,-0.873 -4.131,-1.812 -5.783,-3.365 -6.768,-5.161 -7.323,-6.18 -7.662,-7.282 -7.78,-8.4 c 2.969,1.287 6.667,2.794 6.99,2.863 C 1.492,-5.105 0.895,-2.213 0,0" /></g><g
           transform="translate(630.6987,61.8916)"
           id="g56"><path
             id="path58"
             style="fill:#fff;fill-opacity:1;fill-rule:evenodd;stroke:none"
             d="M 0,0 0.496,4.91 C -1.322,4.349 -3.276,4.124 -4.865,4.376 l 0.463,-2.58 C -2.713,1.879 -1.322,1.095 0,-0.011 Z m -74.114,-2.649 c 4.108,-1.442 9.074,-1.82 13.144,0.184 1.195,0.421 2.088,1.248 3.085,1.779 1.324,1.081 2.419,1.936 3.743,2.666 2.114,1.4 4.865,3.179 7.449,3.642 0.232,0.057 0.198,0.015 0.363,0.032 -0.363,0.813 -0.499,1.441 -0.363,2.255 -2.019,-1.739 -4.702,-3.688 -6.494,-4.277 -2.279,-1.233 -8.936,-2.256 -11.187,-2.551 -1.095,-0.212 -1.629,0.73 -1.495,1.558 0.037,0 0,0.166 0,0.321 0.037,0.195 0.168,0.493 0.336,0.842 h 0.064 c -0.56,-0.038 -1.025,-0.385 -1.693,-0.422 0.07,-0.153 0,-0.322 0,-0.322 0.07,-0.815 -0.162,-1.488 -0.791,-1.991 -1.092,-0.856 -2.288,-0.294 -3.611,-0.687 -1.889,-0.408 -5.667,-0.617 -7.617,-0.225 l -0.262,0.171 c 0.429,-0.31 0.89,-0.62 1.227,-0.929 1.319,-0.909 2.579,-1.495 4.068,-2.088 z m -110.907,33.157 c -0.464,0 -0.464,-0.785 -0.464,-1.106 l 0.195,-1.951 c 0.632,0.63 2.09,1.516 2.386,2.16 l -0.133,0.658 c -0.662,-0.098 -1.189,0.028 -1.984,0.239 M -286.397,12.059 c -0.827,2.621 -2.678,3.14 -3.808,3.155 -3.507,0.068 -8.276,-3.659 -11.193,-8.85 l -0.131,-0.138 0.27,-0.014 c 2.116,-0.181 4.568,-0.364 6.519,-0.378 v 0.029 c 4.373,-0.044 6.82,0.533 7.785,1.99 0.86,0.966 0.992,2.255 0.497,4.218 z m -1.324,15.66 0.665,0.126 c 0.134,0.181 0.265,0.168 0.598,0.154 1.653,-0.012 2.779,-1.684 3.907,-2.986 l 0.032,-0.167 c 0.959,-1.164 1.757,-2.162 2.883,-2.512 0.203,-0.158 0.322,-0.167 0.56,-0.167 0.929,-0.029 1.722,0.592 2.717,1.699 0.329,0.32 0.329,0.474 0.329,0.644 0.827,0.994 0.797,1.932 0.301,2.747 -0.432,1.33 -2.452,2.34 -4.736,2.578 -0.732,0.213 -1.592,0.196 -2.581,0.043 -1.594,-0.1 -3.082,-0.911 -4.209,-1.696 z m 12.223,-40.432 c 3.429,-0.227 7.055,0.01 10.166,1.597 0.233,0.168 0.332,0.31 0.169,0.645 -0.105,0.517 -0.498,1.15 -0.633,2.298 -0.497,1.193 -0.196,2.118 0.135,2.919 0.032,0.32 0,0.489 0,0.644 0.165,0.169 0,0.32 0,0.32 -0.101,0.015 -0.331,0.015 -0.5,0.015 -0.793,-0.615 -1.456,-1.233 -2.251,-2.173 -1.458,-1.066 -2.75,-2.51 -3.91,-2.989 h 0.035 c 2.12,1.938 5.165,4.559 8.247,8.191 0,0.029 0.331,0.141 0.331,0.307 0.068,0 -0.331,0.169 -0.331,0.169 -0.925,1.039 -2.121,1.374 -3.41,1.43 -4.171,0.185 -7.984,-5.425 -8.58,-12.885 0,-0.169 0,-0.335 0.134,-0.335 0.227,-0.208 0.093,-0.173 0.398,-0.153 m 18.645,-7.179 h 0.13 c 0.398,-0.029 0.337,0.281 0.168,0.281 -2.054,4.037 -1.293,5.269 -0.464,6.854 0.296,0.674 0.797,1.275 0.96,2.061 1.026,4.051 -0.327,7.023 -3.577,8.146 -1.223,0.7 -2.747,0.421 -3.577,-0.673 -0.827,-0.925 -1.29,-2.566 -0.827,-4.682 0,-1.275 0.496,-2.145 0.994,-2.973 0.728,-1.64 1.457,-3.155 0.165,-7.319 0.032,0 0.133,-0.336 0.298,-0.336 0.265,-0.012 0.33,-0.012 0.5,0.141 0.377,0.644 1.004,2.394 1.785,2.369 0.662,0 0.993,-0.688 1.494,-1.528 0.496,-0.827 0.956,-1.668 1.62,-2.329 z m 9.934,13.011 -0.197,0.015 c -0.467,0.558 -0.663,1.177 -0.964,1.496 -0.494,0.887 -1.159,1.853 -2.285,3.212 0.035,0.029 -0.525,0.029 -0.658,0.029 l -0.465,-0.462 c -0.828,-0.771 -2.62,-2.174 -3.112,-2.467 -0.133,0.015 -0.168,-0.156 -0.168,-0.327 h 0.035 c 0.133,-0.321 0.133,-0.321 0.133,-0.488 l 0.165,-0.14 c 2.616,-2.564 5.691,-4.514 9.104,-5.481 0.156,0 0.355,0.07 0.496,0.124 1.296,4.182 1.461,9.52 -0.828,12.548 -0.128,0.198 -0.329,0.337 -0.329,0.337 -0.1,0.015 -0.331,0.015 -0.331,-0.139 -0.133,-0.155 -0.296,-0.309 -0.463,-0.463 -0.797,-0.574 -1.294,-1.08 -2.781,-2.13 -0.131,0 -0.166,-0.17 -0.166,-0.327 1.105,-1.622 2.156,-3.473 2.781,-5.337 z m -19.242,8.802 c 0.532,0.128 1.161,0.099 1.658,0.086 4.438,-0.168 6.823,-3.183 8.613,-6.351 0.228,-0.157 0.162,-0.35 0.162,-0.35 0.191,0.013 0.317,-0.033 0.465,0.152 l 0.398,0.168 c -0.041,-0.016 -0.036,0.865 -0.036,0.968 0.036,3.265 -0.662,5.368 -2.118,7.402 -1.289,2.021 -3.609,3.394 -5.364,3.143 -2.086,-0.085 -3.609,-1.81 -4.242,-4.74 0.037,-0.128 0,-0.322 0,-0.322 0.189,-0.132 0.258,-0.156 0.464,-0.156 m -19.934,5.089 h 0.132 c 1.027,0.829 1.457,1.935 1.788,2.598 0.199,0.475 0.334,0.951 0.496,0.951 v 0.014 c 0.496,0.491 1.456,0.926 2.585,1.233 0.828,0.323 1.787,0.432 2.615,0.742 2.449,0.408 4.705,0.505 6.489,0.14 0.192,0.042 0.332,0.042 0.332,0.309 0.164,0.17 0.301,0.464 0.632,0.633 0.196,0.166 0.329,0.308 0.496,0.475 0.064,0 0.164,0.308 0,0.478 0.064,0 -0.167,0 -0.331,0.168 -3.546,0.279 -6.326,3.292 -6.493,7.037 0.036,0.169 -0.163,0.153 -0.163,0.324 -0.104,0.012 -0.299,0.012 -0.299,0.012 -0.464,-0.138 -0.83,-0.138 -1.328,-0.125 0.068,0.012 -0.163,0 -0.33,0.012 l 0.037,0.014 c -0.299,0 -0.497,0 -0.86,0.169 0.031,0 -0.168,0.011 -0.301,-0.154 -0.098,0.014 -0.164,0 -0.164,-0.322 0.737,-2.919 2.972,-5.746 5.529,-7.305 h 0.03 c -1.322,-0.123 -2.479,-0.1 -3.639,-0.238 -0.894,-0.112 -1.756,-0.096 -2.42,-0.418 -1.257,0.039 -2.417,-0.282 -3.08,-0.59 -0.298,-0.143 -1.456,0.673 -2.116,1.177 0.11,0.283 -0.917,0.087 -0.497,-0.491 0.395,-0.309 0.497,-1.123 0.827,-1.794 0.529,-1.612 0.498,-2.931 -0.198,-3.897 l 0.068,0.041 c -0.139,-0.336 -0.2,-0.35 -0.2,-0.673 -0.289,-0.484 0.009,-0.52 0.363,-0.52 m 11.158,17.33 c -0.244,0.284 0.009,0.465 -0.561,0.17 v -0.143 c -0.231,-0.181 -0.398,-0.52 -0.532,-0.52 -0.131,-0.307 -0.329,-0.643 -0.66,-0.796 -0.133,-0.155 -0.199,-0.308 0,-0.477 2.651,-3.169 5.333,-5.201 7.451,-6.577 h 0.398 c 0.278,-0.041 1.391,0.7 1.391,1.08 0.065,0.167 -0.167,0.167 -0.167,0.335 -2.849,1.881 -5.533,4.251 -7.32,6.9 z m 24.607,4.724 c 0.927,-0.856 1.923,-4.01 3.047,-6.998 0.827,-2.634 1.789,-5.283 2.616,-6.784 0.439,-0.851 0.931,-1.783 1.293,-2.663 0.199,0 0.33,-0.026 0.463,-0.197 l 0.267,0.171 c 0.924,0.754 2.681,1.3 3.971,1.57 0.2,0.15 0.665,0.127 0.997,0.265 0,0.074 0.264,0.077 0.162,0.49 -1.323,2.135 -2.787,3.874 -3.576,6.35 -1.292,4.951 -3.413,10.417 -8.313,13.082 v 0.028 c -1.721,1.053 -4.071,1.149 -5.498,1.221 -2.451,0.111 -4.735,-0.128 -5.727,-0.408 -0.231,-0.14 -0.303,-0.14 -0.633,-0.322 -3.208,-1.473 -8.772,-4.865 -6.189,-12.269 1.289,-4.106 3.41,-5.312 6.026,-6.882 0.992,-0.519 1.788,-1.038 2.749,-1.906 -0.298,-0.939 -1.456,-2.372 -2.749,-3.463 -0.763,-0.926 -1.159,-1.263 -1.457,-2.048 -0.102,-0.167 0,-0.322 0,-0.493 0.326,0.026 0.798,-0.027 1.13,-0.041 1.02,-0.013 1.952,-0.42 2.778,-0.757 v 0.015 l 0.364,-0.015 c 0,0.155 -0.066,0.142 -0.066,0.296 0.494,1.289 0.661,1.78 0.995,2.242 l 0.031,0.185 c 0.63,1.598 1.759,2.338 2.748,2.297 1.79,-0.068 3.413,-1.78 4.207,-3.464 0.068,-0.11 0.165,-0.14 0.165,-0.321 0.199,0 0.333,-0.014 0.497,0.155 0.498,0.476 1.288,0.912 1.788,1.037 0.332,0.153 0.332,0.307 0.465,0.307 0.068,0.044 0.163,0 0.163,0.339 0.033,0 0,0.154 -0.163,0.154 -0.562,0.686 -1.624,1.696 -2.915,2.887 -4.536,3.981 -11.559,9.941 -11.689,14.651 0.065,1.151 0.3,2.273 1.289,3.211 3.623,3.168 8.121,1.804 10.729,-1.935 z M -274.407,6.731 c 2.12,-0.868 4.041,-1.43 5.499,-1.488 l 0.067,0.03 c 3.573,-0.127 4.668,2.411 5.463,4.347 0,0.194 0.332,0.308 0.332,0.63 0.063,0.197 0,0.323 0,0.491 -0.332,0.027 -0.498,0.182 -0.498,0.027 -2.617,-0.866 -4.702,-1.598 -6.659,-1.878 0.036,0.028 0,0 0,0.153 l 0.036,0.017 c 1.59,0.6 3.709,1.47 6.127,2.858 0,0.03 0.165,0.153 0.331,0.153 0.068,0.183 0,0.324 -0.331,0.337 -0.628,1.163 -1.456,2.482 -2.121,4.291 0,0.042 0,0 -0.132,0.171 0,0.013 -0.332,0 -0.332,-0.158 -0.76,-0.127 -1.455,-0.587 -1.952,-1.065 -1.058,-0.77 -2.12,-1.709 -2.949,-2.971 -1.059,-1.431 -2.248,-3.533 -3.043,-5.437 -0.139,-0.172 0,-0.508 0.162,-0.508 m 16.758,19.741 c -2.282,0.574 -2.482,1.216 -2.979,2.215 -0.229,0.42 -0.205,0.28 -0.595,0.364 -0.165,0.013 -0.201,-0.015 -0.366,-0.336 0.068,0.027 0,-0.476 0,-0.476 0.068,-2.092 3.245,-4.193 5.699,-4.308 2.613,-0.108 4.402,2.078 4.402,4.195 0.067,2.116 -2.62,3.685 -5.067,3.799 -1.094,0.056 -2.75,-0.363 -3.576,-0.982 0.066,0.015 0,-0.338 0,-0.491 0.2,-1.29 1.158,-2.802 2.283,-3.352 1.177,-0.478 2.507,-0.658 3.775,-0.658 0,-0.139 -0.527,-0.295 -1.655,-0.25 -0.995,0.096 -1.952,0.25 -1.952,0.25 z m 59.977,-25.405 c 1.454,-0.071 2.91,0.169 3.543,0.322 l 0.199,0.015 c 0.363,0.435 0.793,0.576 1.456,0.867 0.794,0.437 1.953,0.716 2.585,2.147 0.195,0.321 0.497,2.258 0,3.253 -0.167,0.519 -0.632,0.841 -1.13,0.856 0,0.181 -0.163,0.336 -0.827,0.533 -2.584,0.306 -3.243,-0.322 -4.039,-1.262 -0.465,-0.62 -0.993,-1.248 -2.117,-2.019 -0.465,-0.28 -1.294,-0.407 -2.288,-0.352 -0.596,0.058 -1.293,0.227 -1.953,0.252 -0.589,0.169 -0.657,-0.347 -0.831,-0.757 -0.164,-0.127 -0.164,-0.49 -0.297,-0.633 -0.66,-0.293 -0.993,-0.754 -0.993,-1.413 -0.097,-0.309 0,-0.646 0.166,-0.827 0.359,-0.694 2.428,-0.194 3.079,-0.491 1.034,-0.185 2.423,-0.491 3.447,-0.491 m 1.986,11.468 c -0.165,-0.826 -0.067,-1.5 0.101,-1.823 0.541,-0.495 0.919,0.021 1.289,0.419 0.729,0.771 1.491,2.861 0.996,4.671 -0.267,1.472 -1.626,3.477 -5.2,3.657 -1.125,0.072 -1.955,0.116 -2.782,0.156 -1.589,0.098 -2.417,-0.04 -2.749,-0.505 -0.354,-0.335 0.163,-1.541 0.163,-1.964 0.069,-0.137 0,-0.152 0.169,-0.322 0.653,-0.457 2.367,-0.452 3.244,-0.49 0.662,-0.014 1.159,0.085 1.622,0.055 2.584,-0.055 3.08,-1.63 3.08,-3.881 z m -5.068,0.589 c 1.129,-0.576 2.087,-0.954 2.881,-0.995 0.862,-0.043 1.161,0.434 1.326,0.588 0.197,0.967 -0.662,1.978 -1.787,2.86 -1.839,0.877 -3.137,0.722 -5.037,0.42 l -0.164,-0.14 c -0.132,-0.491 -0.333,-0.98 -0.663,-1.274 -0.631,-1.108 -1.292,-2.216 0.499,-5.398 1.126,-1.809 2.417,-2.889 3.906,-2.973 0.795,-0.027 1.622,0.406 2.089,1.027 0.693,0.964 0.658,2.24 0.164,3.403 l 0.033,0.196 h -0.165 c -0.242,0.281 -0.423,0.489 -0.828,0.506 0.033,0 -0.333,0.014 -0.498,-0.141 -0.266,-0.28 -0.795,-0.449 -1.292,-0.423 -1.456,0.076 -1.709,2.203 -1.293,2.203 0.167,0.307 0.301,0.295 0.796,0.113 z m -4.371,2.817 c 0.766,-0.034 0.598,0.058 0.598,0.758 -0.101,1.486 -0.631,1.821 -1.127,1.85 -0.797,0.057 -1.955,-1.022 -2.783,-2.608 -0.629,-1.246 -0.959,-2.888 -0.959,-4.36 0.05,-2.299 0.409,-5.663 2.749,-6.8 0.562,-0.155 1.157,-0.376 1.489,-0.405 0.697,-0.013 1.127,0.266 1.29,0.742 0.497,0.84 0.169,2.272 -0.163,2.778 -1.459,2.37 -2.915,5.523 -1.127,8.033 z m -5.064,-0.055 c 0.527,0.77 0.624,1.571 0.46,2.074 -0.167,0.03 -0.46,0.184 -0.661,0.197 -0.595,0.042 -1.624,-0.406 -2.087,-1.682 -0.497,-0.94 -0.992,-2.382 -0.826,-4.669 0.132,-0.651 -0.336,-0.829 0.065,-1.597 0.692,0 2.349,0.081 2.848,0.645 0.201,0.308 0,0.797 -0.161,1.301 -0.137,0.828 -0.635,1.81 0.362,3.538 z m 2.15,-13.615 v 0 c 0.132,0 0.097,-0.028 -0.694,2.959 -0.333,0.827 -0.499,1.812 -0.832,2.469 l 0.037,0.183 c -0.134,0.797 -0.368,1.303 -0.368,1.47 0,0.337 -0.166,0.66 -0.494,0.674 -0.161,0.041 -0.161,0.015 -0.298,-0.155 -0.795,-0.42 -1.789,-0.714 -2.948,-0.645 -2.665,0.161 -5.779,1.437 -8.117,2.722 -1.287,0.728 -1.787,1.234 -2.284,1.582 -0.625,0.563 -1.29,0.747 -2.415,1.596 -0.331,0.213 -0.66,0.383 -0.992,0.549 -1.097,0.897 -1.957,1.908 -2.916,3.087 -0.464,0.853 -1.16,1.526 -1.823,2.045 -0.464,1.179 -0.793,1.5 -1.124,1.849 -0.134,0.028 -0.165,0.17 -0.332,0.184 -0.464,0 -0.845,-1.711 -1.723,-1.526 l 0.166,-0.341 c 1.581,-4.388 12.105,-15.336 16.196,-16.15 0.332,-0.365 0.993,-0.545 1.954,-0.782 2.484,-0.759 6.656,-1.474 8.48,-1.77 z m -11.56,14.272 c -0.658,-0.755 -1.189,-1.556 -1.987,-2.815 -0.167,-0.141 -0.167,-0.493 0.166,-0.659 0.034,0 0.33,-0.016 0.465,-0.196 1.059,-0.52 3.411,-1.642 3.909,-2.005 h 0.364 c 0,0 -0.031,-0.014 0.132,-0.03 0.232,0.197 0.166,0.324 0.333,0.324 0.034,0.013 0,0 0.164,0.153 1.324,3.365 1.789,6.562 1.126,9.844 0.063,0.183 -0.165,0.351 -0.332,0.363 l 0.032,0.013 c -0.498,-0.152 -1.157,-0.139 -1.819,-0.251 -1.757,-0.195 -5.199,-1.025 -7.816,-2.664 -0.898,-0.743 -1.789,-1.359 -2.25,-2.313 h -0.1 c 0,-0.142 -0.067,-0.154 -0.067,-0.154 0.198,-0.144 0.167,-0.322 0.167,-0.322 0.461,-0.029 0.66,-0.209 0.792,-0.209 0.993,-0.368 1.789,-0.76 3.114,-1.642 0.732,-0.338 0.922,0.399 1.291,0.742 0.529,0.644 0.96,1.25 1.457,1.529 0.693,0.811 1.125,1.429 1.79,1.864 v 0.029 c -0.297,-0.645 -0.665,-1.106 -0.961,-1.432 z m -13.708,7.11 c 1.027,1.077 0.83,2.539 -0.464,4.051 -0.629,0.871 -1.622,1.557 -2.781,2.119 -2.221,1.103 -4.702,1.37 -6.656,0.657 l -0.63,0.042 0.663,-0.194 c 1.986,-0.407 2.547,-2.584 3.212,-4.573 0.528,-1.765 0.959,-3.769 2.781,-3.868 0.883,-0.044 1.639,0.323 2.418,0.687 0.661,0.28 0.993,0.756 1.457,1.067 z m -2.252,-13.22 c 0.368,-0.03 0.756,-0.071 1.127,-0.071 0.198,-0.153 0.793,-0.207 1.955,-0.096 1.289,0.11 2.581,0.181 3.241,0.152 0.199,0 0.331,-0.012 0.331,0.308 0.569,0 -0.927,1.111 -0.991,1.176 -0.464,0.704 -1.129,1.208 -1.624,2.048 0.066,-0.012 -0.166,0.155 -0.298,0.015 l -1.259,-0.421 c -0.659,-0.096 -1.355,-0.254 -2.15,-0.212 l -0.663,0.03 c -0.763,-0.098 -1.786,-0.072 -2.451,-0.208 -0.409,0.086 -0.366,-0.184 -0.598,-0.085 v -0.196 c -0.859,-0.24 -3.477,-1.768 -5.896,-3.283 -1.621,-0.869 -2.944,-1.792 -3.739,-2.089 -0.17,0.016 -0.17,-0.14 -0.332,-0.306 -1.057,-0.422 -1.126,-0.591 -1.29,-2.049 0,-0.631 -3.576,-3.91 -4.572,-4.346 h 0.035 c -0.132,-0.125 -0.168,-0.306 -0.168,-0.474 0.168,-0.326 0.133,-1.812 0.133,-3.745 0.035,-0.17 0,-0.184 0.168,-0.336 0.193,0.016 0.284,-0.054 0.492,0.125 3.912,2.118 6.492,5.088 8.777,7.881 2.949,3.463 5.533,6.391 9.742,6.167 z m 7.683,-22.334 0.298,-0.518 v 0.657 c 0,4.377 9.595,3.684 8.91,7.782 -0.135,0.518 -0.462,1.164 -0.961,1.991 -0.136,0.194 -0.497,0.352 -0.664,0.703 -0.93,1.02 -2.117,1.736 -3.247,1.79 -1.787,0.13 -3.111,-0.952 -4.235,-3.025 -1.426,-2.343 -2.121,-6.211 -0.136,-9.394 z M 14.837,7.867 C 16.845,4.855 26.112,5.978 29.638,6.226 L 29.41,6.352 c -3.082,5.203 -7.811,8.902 -11.225,8.862 -1.292,0 -3.08,-0.547 -3.743,-3.155 -0.593,-1.935 -0.466,-3.252 0.332,-4.22 z m -4.47,16.964 c 1.192,1.484 2.449,3.126 4.075,3.156 0.165,0.039 0.332,0.012 0.499,-0.142 l 0.726,-0.141 -0.531,0.478 C 13.682,29.455 11.528,30.061 9.247,30.02 7.984,30.004 6.659,29.611 5.502,29.247 4.244,28.587 3.381,27.731 3.247,26.737 c -0.096,-0.938 0,-1.781 0.796,-2.89 0.364,-0.307 0.496,-0.474 0.828,-0.629 0.643,-0.723 1.168,-1.08 2.153,-1.08 1.325,0.045 2.223,1.377 3.343,2.693 M 1.329,-12.814 c 0.639,0.067 1.395,0.042 2.052,0.072 0.197,0 0.166,0 0.328,0.154 0,2.465 -0.626,5.181 -1.62,7.428 -0.63,1.335 -1.291,2.569 -2.089,3.523 -1.455,1.584 -3.276,2.338 -4.865,2.271 -1.127,0 -2.452,-0.407 -3.443,-1.417 -0.18,0 -0.114,-0.388 -0.135,-0.503 2.816,-2.975 5.334,-5.316 7.45,-7.055 0.327,-0.281 0.799,-0.785 1.129,-1.096 H 0 c -0.13,0.171 -0.494,0.299 -0.826,0.465 -0.928,0.659 -1.95,1.726 -2.913,2.494 -0.797,0.97 -1.62,1.558 -2.286,2.174 -0.267,0.029 -0.828,0.043 -0.828,-0.349 0.035,-0.125 0.166,-0.309 0.166,-0.629 0.395,-0.8 0.662,-1.768 0.329,-2.906 -0.297,-1.162 -0.495,-1.82 -0.794,-2.311 -0.165,-0.336 0,-0.478 0.168,-0.644 1.657,-0.758 3.543,-1.334 5.662,-1.583 0.94,-0.135 1.718,-0.088 2.651,-0.088 m -16.923,-7.121 0.527,0.028 c 0.659,0.659 1.062,1.487 1.558,2.328 0.564,0.857 0.796,1.486 1.292,1.515 0.663,0.21 0.998,-0.436 1.492,-1.403 0.196,-0.295 0.296,-0.644 0.459,-0.966 0.246,-0.207 0.833,-0.211 0.833,0.208 -1.458,4.192 -0.666,5.652 0.329,7.318 0.329,0.857 0.661,1.658 0.962,2.986 0.164,2.118 0,3.747 -0.962,4.652 -0.76,1.127 -2.287,1.391 -3.609,0.678 -3.376,-1.095 -4.537,-4.095 -3.546,-8.119 0.17,-0.772 0.63,-1.444 0.797,-2.089 1.054,-1.569 1.789,-2.846 -0.296,-6.827 -0.124,-0.014 -0.038,-0.309 0.164,-0.309 m -7.021,18.366 c 0,0.182 0,0.323 -0.333,0.308 -1.26,1.108 -1.952,1.541 -2.75,2.147 0,0.169 -0.33,0.308 -0.495,0.446 0,0.398 -0.464,-0.028 -0.464,-0.181 -2.616,-3.195 -2.118,-8.706 -0.99,-12.561 0.193,0 0.329,-0.142 0.495,-0.142 v 0.018 c 3.441,0.979 6.487,2.9 9.271,5.465 l 0.166,0.196 c 0,0.347 0.274,0.579 0,0.783 -0.666,0.298 -2.452,1.684 -3.279,2.457 -0.296,0.504 -0.296,0.475 -0.296,0.475 -0.299,0.155 -0.663,-0.029 -0.829,-0.029 -1.058,-1.361 -1.626,-2.355 -2.282,-3.223 -0.104,-0.324 -0.499,-0.981 -0.965,-1.501 h 0.067 c 0.321,1.801 1.728,3.75 2.684,5.342 m 5.43,-2.973 0.133,0.015 c 0.223,-0.264 0.024,-0.199 0.297,-0.199 0,0 0.165,0.184 0.329,0.352 1.789,3.157 4.075,6.198 8.776,6.368 0.333,0.013 0.963,0.04 1.625,-0.115 0.033,0.028 0.165,0.017 0.332,0.184 0.066,0.014 0.167,0.167 0.167,0.336 -0.993,3.731 -2.917,4.597 -4.409,4.711 -1.788,0.308 -4.07,-1.152 -5.366,-3.156 -1.454,-1.992 -2.116,-4.149 -2.116,-7.403 0,-0.2 -0.363,-0.941 0,-0.98 z M 8.646,21.733 c 0,0.321 -0.035,0.307 -0.196,0.292 -0.213,0.329 -0.762,-0.026 -1.161,-0.026 -0.674,-0.309 -2.12,0.561 -2.12,-0.24 0,-0.952 -0.298,-2.115 -0.762,-3.112 -0.698,-1.133 -1.654,-2.313 -2.979,-2.845 -0.762,-0.643 -1.755,-1.04 -2.75,-1.065 -0.133,-0.154 -0.297,-0.168 -0.499,-0.182 0.067,-0.127 0,-0.492 0.202,-0.476 0.164,-0.114 0.297,-0.308 0.459,-0.466 0.202,-0.152 0.468,-0.474 0.666,-0.643 0.142,-0.305 0.089,-0.311 0.364,-0.294 0.934,0.316 3.149,0.235 4.041,0.127 3.246,-0.224 6.456,-1.304 7.617,-2.258 0.156,0.067 0.555,-0.831 0.63,-0.955 0.334,-0.631 0.825,-1.782 1.625,-2.58 h 0.496 c 0.391,0.366 0.013,0.782 -0.133,1.136 l 0.035,0.044 c -0.499,0.925 -0.699,2.228 -0.035,3.869 0.197,0.658 0.296,1.458 0.795,1.794 0.113,0.336 -0.31,0.836 -0.662,0.478 -0.733,-0.491 -1.628,-1.334 -2.121,-1.164 -1.922,0.616 -5.499,1.008 -8.115,1.09 -0.334,0.142 -0.662,0.142 -1.16,0.127 0.156,0 1.16,0.839 1.323,1.012 2.684,1.878 4.072,4.679 4.405,6.322 z m -4.042,0.854 c 0,0.14 -0.065,0.295 -0.065,0.449 -0.295,0.182 -0.496,0.49 -0.83,0.787 0,0.011 -0.162,0.32 -0.328,0.503 -0.096,0.156 -0.134,0.309 -0.298,0.309 -0.169,0 -0.33,-0.184 -0.33,-0.337 -0.134,-0.169 -0.336,-0.183 -0.336,-0.505 -1.921,-2.451 -4.238,-4.683 -7.15,-6.409 0.045,-0.196 -0.303,-0.13 0,-0.643 0.561,-0.294 0.827,-0.463 1.162,-0.786 l 0.493,0.042 c 2.12,1.376 3.709,2.706 5.334,4.053 0.895,0.853 1.453,1.668 2.283,2.51 z m -16.327,12.619 c -0.793,0.252 -3.244,0.476 -5.694,0.365 -1.589,-0.071 -3.743,-0.155 -5.531,-1.235 l 0.034,0.03 -0.135,-0.016 c -4.9,-2.677 -7.05,-8.174 -8.342,-13.121 -0.598,-1.95 -1.626,-3.495 -2.615,-4.84 -0.303,-0.474 -0.631,-1.01 -0.964,-1.512 0,-0.415 -0.11,-0.495 0.333,-0.478 1.489,-0.407 3.74,-1.109 4.87,-1.864 0.093,0.019 0.234,-0.221 0.362,-0.113 0,0.141 0.132,0.141 0.132,0.141 0.527,0.856 0.829,1.194 1.124,1.85 0.2,0.17 0.169,0.492 0.331,0.829 0.829,1.499 1.79,4.163 2.782,6.798 0.966,3 2.088,6.128 2.917,6.982 2.814,3.708 7.106,5.083 10.9,1.949 0.989,-0.951 1.284,-2.075 1.284,-3.227 -0.164,-4.693 -7.153,-10.682 -11.69,-14.634 -1.289,-1.192 -2.445,-2.215 -3.109,-2.918 0.065,0.017 -0.166,-0.166 -0.166,-0.166 0.033,-0.14 0.166,-0.337 0.166,-0.337 0.229,0.055 0.333,-0.141 0.495,-0.28 0.528,-0.124 1.291,-0.575 1.788,-1.051 0.199,-0.14 0.332,-0.155 0.332,-0.155 0.397,0.223 0.494,0.349 0.494,0.349 0.828,1.672 2.418,3.366 4.042,3.437 1.193,0.07 2.121,-0.716 2.946,-2.314 0,-0.141 0,-0.156 0.168,-0.141 0.061,-0.462 0.299,-0.968 0.627,-2.255 0.234,-0.14 0.169,-0.169 0.333,-0.311 l 0.329,0.042 c 1.216,0.669 2.102,0.719 3.416,0.771 0.192,0.027 0.331,0.017 0.331,0.017 0,0.167 0.162,0.32 0,0.475 -0.302,0.672 -0.666,0.953 -1.624,2.032 -1.294,1.135 -2.289,2.526 -2.616,3.633 3.852,2.79 7.286,3.377 8.94,8.649 2.452,7.433 -2.917,10.951 -6.324,12.269 -0.298,0.195 -0.497,0.166 -0.666,0.32 z M 2.125,6.717 c 0.988,0.04 -0.8,2.734 -0.995,3.071 -1.796,3.366 -4.239,5.871 -6.656,6.924 -0.101,0.171 -0.334,0.139 -0.499,0.128 0.033,-0.112 0,-0.153 0,-0.153 -0.793,-1.797 -1.458,-3.143 -2.418,-4.32 0.03,0.013 0,-0.151 0,-0.324 0.03,0.016 0,-0.153 0.135,-0.141 2.448,-1.357 4.737,-2.268 6.358,-2.87 l 0.031,0.011 c 0,-0.153 -0.031,-0.18 -0.031,-0.18 -1.925,0.294 -4.075,0.994 -6.825,1.863 0,0.169 -0.496,0.087 -0.496,-0.502 0.202,-0.296 0.167,-0.48 0.333,-0.634 0.96,-1.891 1.954,-4.486 5.662,-4.331 1.158,0.056 2.584,0.406 3.907,0.926 0.536,0.027 1.264,0.532 1.494,0.532 m -19.31,19.739 c 0.795,0.043 1.723,0.267 2.716,0.633 1.157,0.545 1.953,2.201 2.252,3.337 0.065,0.179 0,0.5 0,0.5 -0.963,0.636 -2.42,1.028 -3.541,0.985 -2.623,-0.125 -5.236,-1.711 -5.236,-3.813 0.066,-2.089 1.787,-4.305 4.568,-4.181 2.455,0.101 5.701,2.189 5.701,4.306 0.034,0.028 -0.166,0.477 -0.166,0.477 0,0.351 -0.166,0.307 -0.328,0.307 l 0.027,0.029 c 0,0 -0.362,-0.041 -0.362,-0.197 L -11.723,28.7 c -0.429,-1.022 -0.628,-1.683 -2.914,-2.285 -0.131,0.027 -0.992,-0.196 -1.953,-0.239 -1.125,-0.015 -1.622,0.084 -1.791,0.225 0.394,0.029 0.806,0.055 1.196,0.055 M -43.382,-2.649 c 1.343,0.064 2.71,0.128 4.041,0.241 1.293,0.042 2.088,0.25 2.919,0.461 1.29,0.253 4.4,2.985 4.698,4.47 0.176,0.894 -3.532,3.682 -4.203,4.166 -0.961,0.785 -1.959,1.529 -2.783,2.13 0,0.199 0,0.157 -0.165,0.14 -1.553,0.323 -5.255,0.807 -6.325,-0.644 -1.255,-1.355 1.239,-4.102 2.08,-5.088 0.399,-0.28 0.503,-0.632 0.998,-0.926 -0.256,0.036 -0.723,-0.033 -0.998,-0.058 -0.788,0.312 -1.585,0.562 -2.249,1.182 -0.3,0.306 -0.496,0.616 -0.659,0.781 0,0.324 -0.206,0.309 -0.433,0.296 -3.275,-0.659 -7.017,-3.476 -10.133,-5.595 -1.291,-0.854 -2.579,-1.78 -3.74,-2.478 h 0.029 c -1.818,-0.719 -3.775,-1.349 -6.023,-1.462 -4.343,-0.208 -9.108,0.983 -12.72,3.407 -4.375,3.03 -7.948,6.128 -11.327,9.871 -0.998,0.787 -1.654,1.879 -2.447,2.663 -1.924,2.342 -3.459,6.154 -6.693,8.679 -0.926,0.126 -9.572,9.43 -9.572,9.43 -0.132,0 -1.793,0.281 6.165,-14.434 2.979,-4.769 6.023,-9.057 9.271,-12.506 0.829,-0.759 1.622,-1.711 2.253,-2.33 13.707,-13.329 29.926,-15.316 45.068,-3.35 v 0.184 l 0.302,-0.014 c 0.71,0.569 1.753,0.784 2.646,0.784 M -78.65,1.347 c 2.49,-0.527 4.461,-0.408 6.924,0.168 0.709,0.303 2.748,-0.221 3.111,0.479 0.236,0.181 0.33,0.518 0.33,0.841 -0.176,1.188 -1.049,1.174 -1.492,2.031 -0.08,0.403 -0.294,0.882 -0.793,0.771 -0.629,-0.028 -1.291,-0.239 -1.953,-0.265 -1.06,-0.029 -1.791,0.067 -2.253,0.362 -1.094,0.773 -1.822,1.39 -2.121,2.02 -0.926,0.954 -1.486,1.543 -4.073,1.247 -0.596,-0.182 -0.829,-0.351 -0.991,-0.518 -0.397,0 -0.797,-0.365 -1.13,-0.884 -0.461,-1.148 -0.165,-2.929 0.167,-3.236 0.566,-1.432 1.625,-1.71 2.583,-2.159 0.531,-0.297 1.16,-0.422 1.491,-0.886 z m -17.916,18.504 c 4.796,-3.751 13.143,-5.129 14.767,-5.029 v 0.028 c 0.893,0.027 1.164,0.349 1.458,0.685 0.234,0.195 0,0.659 -0.294,1.121 -0.135,0.184 -10.598,6.829 -11.394,7.459 -4.658,2.817 -4.486,5.412 -4.038,6.843 0.165,0 0.296,0.14 0.296,0.14 0.977,0.08 1.141,-1.583 2.452,-1.528 0.497,0.055 0.657,0.534 0.79,0.856 0.071,0.5 0.168,0.98 0.333,1.471 0.054,0.625 0.527,2.515 0.798,2.959 1.488,1.696 2.447,4.175 1.821,5.453 -0.516,1.263 -2.128,1.063 -3.245,1.01 -3.509,-0.693 -2.381,-4.673 -3.576,-4.71 -0.602,-0.017 -0.997,-0.044 -1.296,-0.057 -0.498,0.658 -0.825,1.275 -1.155,1.904 -2.1,3.931 -9.275,11.079 -9.44,11.066 0.031,0.321 -0.168,0.321 -0.501,0.306 0.067,-0.151 -0.163,-0.322 -0.163,-0.322 -0.134,-0.294 -4.475,-13.417 -1.755,-15.829 0.53,-0.463 8.78,-9.885 14.142,-13.826 m 22.584,-3.488 c 0.529,0.026 0.963,-0.112 1.622,-0.085 0.944,0.145 2.471,-0.033 3.248,0.49 0.201,0.184 0.171,0.169 0.171,0.337 0.162,0.352 0.162,0.491 0.162,0.813 0.228,0.52 0.327,0.844 0,1.148 -0.266,0.311 -0.828,0.435 -1.958,0.538 -0.827,-0.029 -1.95,-0.103 -3.577,-0.186 0.069,0.014 -0.162,-0.013 -0.327,-0.013 -4.145,-0.35 -5.038,-3.016 -5.038,-4.487 -0.264,-1.64 0.498,-3.395 1.126,-4.164 0.399,-0.149 0.895,-0.51 1.322,-0.112 0.205,0.363 0.334,1.009 0.17,1.823 0.035,1.148 0.164,1.948 0.463,2.607 0.496,0.702 1.162,1.206 2.45,1.262 z m 1.494,-5.622 c -0.555,-0.029 -0.871,0.133 -1.327,0.406 -0.409,0.416 -1.152,-0.025 -1.458,-0.379 v -0.182 c -0.43,-1.135 -0.494,-2.452 0.134,-3.391 0.531,-0.62 1.324,-1.065 2.12,-1.025 v 0.015 c 1.455,0.068 2.948,1.094 3.907,2.943 1.788,3.198 1.159,4.291 0.497,5.386 -0.164,0.336 -0.497,0.612 -0.662,1.12 0.113,0 -0.085,0.12 0.068,0.182 v 0.139 c -0.531,0.155 -1.032,0.1 -1.361,0.253 -0.465,-0.014 -0.793,-0.043 -1.291,-0.069 -2.615,-0.13 -4.402,-2.021 -4.402,-3.156 0.028,-0.322 0.161,-0.475 0.328,-0.644 0.662,-0.617 2.12,-0.21 3.911,0.701 0.163,0.029 0.298,0.182 0.46,0.182 1.005,0.079 0.465,-2.419 -0.959,-2.481 z m 4.901,-6.408 c 0.484,0.028 0.926,0.245 1.388,0.379 1.159,0.575 1.953,1.584 2.452,3.086 0.457,2.735 0.644,5.532 -0.627,8.088 -1.199,2.4 -3.612,4.311 -3.911,0.279 0.032,-0.156 0,-0.168 0.133,-0.321 0,0 0.578,0.066 0.495,0.028 0.07,-0.154 0.165,-0.322 0.165,-0.493 1.66,-2.171 0.168,-5.187 -1.287,-7.526 -0.266,-0.477 -0.666,-1.99 -0.162,-2.778 0.175,-0.513 0.828,-0.851 1.354,-0.742 M -88.75,32.404 c 0.299,0.012 0.796,-0.634 1.122,-1.602 l 0.07,0.016 c 0.132,-0.618 0.892,-0.94 1.524,-0.913 0.792,0.097 1.105,0.15 1.326,1.021 0.609,1.408 -1.112,4.811 -1.791,6.103 -1.239,3.401 -2.583,-0.114 -2.452,-0.114 0.066,-0.126 -0.472,-1.14 -0.793,-1.484 -0.301,-0.66 -0.96,-1.514 -1.156,-2.499 -0.558,-1.347 -0.136,-3.227 -0.967,-4.43 -0.162,-0.152 -0.494,-0.351 -0.662,-0.503 -0.293,-0.012 -0.293,-0.195 -0.293,-0.349 -0.172,-0.675 0.293,-1.292 0.793,-1.754 0.529,-0.602 1.325,-1.248 2.119,-1.219 0.228,0.041 0.333,0.013 0.464,0.196 0.4,0.199 0.495,0.337 0.658,0.685 0.104,0 0.337,0.102 0.337,0.197 0.363,-0.165 0.823,-0.644 1.455,-0.616 0.367,0.043 0.962,0.213 1.321,1.192 v 0.027 c 0.306,0.141 0.864,0.305 1.131,0.015 0.065,0.042 0,0 0,-0.154 0.065,-0.141 0,-0.323 0,-0.323 0.416,-0.293 0.627,0.19 1.121,0.21 0.167,0.182 0.167,0.336 0.167,0.336 0,0.688 0.165,2.942 -0.167,3.729 0,0.365 -0.112,0.479 -0.492,0.479 -0.134,-0.016 -0.297,-0.182 -0.498,-0.353 -0.295,-0.308 -0.465,-0.842 -0.628,-1.162 -0.101,-0.476 -0.332,-1.165 -1.126,-1.208 l 0.063,0.015 c -0.232,0.323 -0.562,0.633 -0.892,0.942 -0.5,0.769 -1.955,1.909 -1.955,2.832 -0.095,0.166 -0.131,0.166 -0.332,0.475 0.266,0.222 0.45,0.14 0.533,0.213 m 26.326,-21.605 c 0.536,-0.553 2.348,-0.757 3.084,-0.635 v 0.156 c 0.167,0.503 0,0.63 0,0.953 v 0.491 c 0.167,3.45 -0.994,5.161 -1.63,5.609 -0.495,0.644 -0.826,0.757 -1.322,0.73 l -0.132,0.012 c 0,0 -0.329,-0.197 -0.495,-0.21 -0.134,-0.309 -0.167,-0.661 0,-1.122 0.166,-0.308 0.166,-0.658 0.464,-1.124 0.858,-1.709 0.332,-2.746 0.163,-3.573 -0.132,-0.477 -0.294,-0.993 -0.163,-1.306 z m 20.499,3.715 c 2.419,2.579 4.039,4.918 4.672,6.403 l 0.229,0.367 c -0.677,-0.041 -0.979,0.282 -1.187,0.899 -0.265,0.349 -0.499,0.63 -0.829,0.615 -0.101,-0.015 -0.466,-0.532 -1.298,-2.034 -0.426,-0.335 -0.956,-0.855 -1.289,-1.371 -0.298,-0.309 -0.495,-0.508 -0.661,-0.69 -0.595,-0.798 -1.291,-1.665 -2.284,-2.383 -0.431,-0.518 -0.961,-0.867 -1.456,-1.235 -1.458,-0.88 -1.957,-1.063 -2.418,-1.597 -0.636,-0.349 -1.159,-0.855 -2.45,-1.598 -3.063,-1.585 -7.853,-3.832 -11.227,-2.062 -0.133,0.171 -0.169,0.143 -0.169,0.143 -0.461,0 -0.461,-0.351 -0.461,-0.674 0,-0.127 -0.333,-0.996 -0.498,-1.654 C -63.352,7.01 -63.747,6 -64.08,5.159 -64.675,2.23 -64.708,2.204 -64.708,2.204 l 0.462,0.055 c 3.809,0.659 9.144,1.598 10.598,2.509 1.788,0.422 5.202,3.04 8.943,6.66 0.958,0.884 1.918,2.06 2.747,3.086 z m -12.052,3.589 c 0.647,-0.497 1.188,-1.167 1.788,-1.727 0.527,-0.461 0.958,-1.08 1.46,-1.709 0.331,-0.098 0.492,-0.617 0.659,-0.756 0.163,0.027 0.297,-0.17 0.465,0.027 1.454,0.884 2.282,1.261 3.275,1.639 0.302,0.045 0.465,0.182 0.626,0.182 0.31,0.023 0.335,0.267 0.335,0.507 -1.46,2.228 -4.074,3.363 -5.862,3.897 -1.882,0.727 -4.071,1.248 -6.16,1.304 l 0.033,0.025 c -0.131,0 -0.527,-0.224 -0.527,-0.393 -0.137,-1.613 -0.335,-3.264 0,-5.03 0.163,-1.43 0.663,-3.058 1.291,-4.81 0.033,-0.14 0,-0.154 0,-0.154 0.2,0.026 0.327,-0.155 0.494,-0.306 0.157,0.03 0.347,0.012 0.496,0.024 0.371,0.368 2.919,1.461 3.911,2.008 0.497,0.18 0.462,0.18 0.462,0.18 0.364,0.211 0.335,0.506 0.171,0.658 -0.8,1.434 -1.461,2.217 -1.956,2.833 -0.334,0.492 -0.632,0.939 -1.126,1.57 z m -55.936,43.731 c -0.244,0.333 -0.429,0.423 -0.795,0.631 -0.333,0.165 -0.333,0.139 -0.497,-0.018 -0.133,0 -0.165,-0.336 -0.165,-0.336 0.696,-1.26 1.958,-9.729 6.328,-13.292 0.495,-0.632 7.181,-6.899 7.814,-7.851 0.228,-0.309 0.329,-0.643 0.492,-0.953 0.579,-0.644 1.129,0.855 1.428,1.023 0.86,1.346 2.314,2.033 4.075,2.116 0.365,0.014 0.333,0.184 0.529,0.197 0,0.351 0,0.322 -0.196,0.463 0.032,0.212 -0.765,0.967 -0.765,0.967 0,0 -7.056,9.466 -18.248,17.053 m 2.283,20.872 c -2.118,2.062 -5.032,5.064 -8.311,5.947 0.066,0.194 -7.45,0.993 -8.115,0.98 0.068,0.013 -0.163,0 -0.329,-0.154 l 0.031,-0.168 c 0.995,-1.122 2.087,-2.398 3.545,-3.829 2.149,-2.074 4.238,-4.163 5.201,-6.098 1.322,-2.059 3.574,-4.792 5.529,-7.15 0.992,-0.939 1.79,-1.753 2.449,-2.692 0.399,-0.308 4.871,-4.725 6.363,-4.99 0.254,0.021 0.423,-0.006 0.627,0.182 1.825,2.847 0.828,5.245 0,7.656 -0.353,0.857 -2.265,6.236 -6.99,10.316 m 10.928,-12.927 c 0.369,0.016 0.6,0 0.769,0.016 0.528,0.026 0.625,0.026 0.987,-0.296 0.367,-0.305 0.662,-0.631 1.627,-0.756 0.031,0.043 0.162,0.015 0.325,0.182 v 0.325 c 0,0.814 -0.989,2.076 -1.654,2.691 -1.555,1.767 -4.073,3.282 -5.327,3.041 -0.17,0 -0.17,-0.152 -0.333,-0.336 v -0.309 c 1.191,-1.891 3.08,-7.346 1.949,-9.196 -0.091,-0.155 -0.16,-0.338 -0.16,-0.338 0.199,-0.124 0.16,-0.139 0.327,-0.139 0.831,-0.294 1.626,-0.589 2.421,-1.054 0.341,-0.099 2.452,-1.031 2.452,-0.224 0.031,0.032 0,0.155 0.162,0.34 0.163,0.489 0.335,1.316 0.163,1.949 -0.115,0.123 -0.461,0.217 -0.657,0.307 0,0 0.332,0.168 0.332,0.324 0.366,0.313 0.15,0.937 0,1.302 0.043,0.266 0.038,0.621 -0.168,0.811 -0.164,0 -0.27,-0.014 -0.43,0 -0.367,0.311 -0.863,0.759 -1.197,0.9 -0.131,0.042 -0.327,-0.014 -0.493,-0.169 -0.164,0 -0.164,-0.014 -0.164,-0.336 0,-0.646 0.463,-1.43 0.825,-2.09 -0.789,0.551 -2.126,1.984 -1.79,3.043 z m -48.811,20.345 c 2.173,-0.02 4.352,-0.081 6.525,-0.081 3.708,0.32 6.955,0.5 10.527,0.527 1.823,0.031 3.61,0.197 5.531,0.224 6.995,0.249 12.851,-4.595 15.635,-6.937 2.319,-2.022 4.203,-3.771 5.2,-4.05 l 0.331,0.039 c 0,0 0.164,0.127 0.164,0.296 2.365,7.048 -10.897,12.015 -11.727,12.157 -2.548,0.94 -7.373,2.916 -14.471,3.643 -7.1,0.729 -2.749,0.46 -5.696,0.447 -1.786,0 -3.906,-0.026 -5.198,-0.165 -0.083,0.005 -1.586,0.037 -1.624,0.013 l -0.132,0.041 c -0.461,-0.197 -4.568,-0.518 -7.021,-0.491 -0.96,0.027 -1.953,-0.124 -2.121,-0.111 -3.377,-0.238 -8.112,-1.949 -11.061,-3.339 -3.508,-1.666 -6.585,-7.766 -6.585,-7.766 0,-0.124 -0.368,-0.629 -0.731,-1.106 -0.598,-0.619 -1.291,-1.415 -1.127,-1.909 0.034,-0.154 0.832,-1.16 1.49,-1.189 1.192,-0.015 2.585,0.713 3.413,2.001 0.829,1.631 6.784,8.922 18.678,7.715 z m 46.529,-27.269 c 4.214,-2.112 4.72,-4.408 5.198,-4.373 0,0.029 0.135,0 0.135,0.168 0.395,0.167 1.569,0.37 1.784,0.572 0.202,0.015 3.459,2.008 -6.854,4.613 -0.263,0.015 -0.46,-0.196 -0.46,-0.349 -0.168,0.013 0,-0.169 0,-0.323 l 0.064,0.031 0.133,-0.339 m -64.413,8.44 c 8.562,5.356 15.765,16.697 15.928,17.187 0.068,0.341 0,0.325 0,0.492 -0.163,0.028 -0.463,0.015 -0.96,0.015 0,0.026 -1.455,-1.277 -4.074,-3.184 -0.626,-0.461 -1.158,-0.787 -1.293,-0.951 -2.414,-1.252 -5.029,-4.279 -6.983,-7.138 l -0.167,-0.126 c -1.093,-1.134 -4.235,-5.747 -5.531,-7.823 0.065,-0.166 -0.657,-1.09 3.08,1.528 m -4.865,-3.084 c 0.363,1.288 0.957,3.197 2.411,5.272 4.101,8.264 16.109,15.052 15.635,15.532 -0.133,0.042 -0.165,0.015 -0.332,0.015 l 0.065,0.027 c -0.658,0.017 -1.224,-0.012 -1.523,0 -5.549,-1.258 -7.688,-4.916 -11.304,-7.318 -2.169,-1.44 -4.719,-2.739 -7.408,-3.223 -0.594,0.04 -0.957,0.209 -1.288,0.377 -4.181,0.589 -10.298,-11.155 -5.034,-14.271 1.026,-0.334 1.708,-0.515 2.78,-0.59 2.254,0.114 3.709,0.997 5.334,2.398 0.229,0.323 0.495,0.954 0.664,1.781 M -86.336,6.659 h 0.232 V 6.8 c 0.568,1.206 3.013,3.73 4.475,3.954 l 0.2,0.026 c 0,0.535 0.348,1.689 0.13,2.118 -0.13,0.155 -0.662,0.142 -1.162,0.099 -0.962,0.099 -2.748,0.014 -5.493,1.053 -0.796,0.294 -1.492,0.742 -2.122,1.035 -0.484,0.616 -1.33,1.07 -2.12,1.054 0.035,0.026 -0.333,-0.014 -0.466,-0.014 l 0.033,0.028 -0.193,-0.198 c -0.172,-1.484 1.589,-4.346 2.247,-5.117 1.529,-2.031 3.249,-4.079 4.239,-4.19 z m 53.85,19.057 c 0.664,2.028 1.257,4.135 3.213,4.566 l 0.658,0.213 -0.658,-0.027 c -0.796,0.434 -1.624,0.377 -2.617,0.334 -3.508,-0.182 -7.318,-2.48 -7.948,-4.962 -0.332,-1.15 0.497,-2.411 1.952,-3.308 0.998,-0.433 1.791,-0.716 2.588,-0.675 1.854,0.1 2.281,2.06 2.78,3.859 z M -17.417,0.311 c 0.232,0.151 0,0.307 -0.166,0.462 h 0.035 c -0.959,0.477 -4.571,3.701 -4.737,4.345 -0.1,1.486 -0.166,1.599 -1.158,2.06 -0.1,0.155 -0.302,0.144 -0.462,0.309 -0.6,0.28 -2.123,1.192 -3.579,2.061 -2.453,1.545 -5.198,3.015 -6.028,3.295 l 0.068,0.181 c -0.371,-0.023 -0.562,0.115 -0.865,0.1 -0.164,0 -0.328,-0.028 -0.661,0.111 -0.428,0 -1.125,0.127 -1.625,0.097 -1.087,-0.054 -2.115,-0.11 -2.746,0.185 l -1.256,0.404 c -0.167,0.184 -0.398,-0.028 -0.566,-0.028 -0.438,-0.793 -0.993,-1.396 -1.624,-2.031 -0.366,-0.416 -0.96,-0.728 -0.96,-1.345 0.203,-0.141 0.168,-0.155 0.335,-0.155 0.33,0.03 0.658,0.025 0.99,0.071 1.461,-0.071 3.214,-0.325 4.042,-0.295 0.199,0.041 0.332,0.017 0.332,0.167 0.366,0.044 0.626,0.044 0.96,0.057 4.469,0.253 6.989,-2.719 9.936,-6.156 2.285,-2.775 4.867,-5.759 8.94,-7.849 0.199,-0.127 0.167,-0.167 0.167,-0.167 0.195,0.04 0.164,0.012 0.164,0.012 0.166,0.195 0.298,0.182 0.298,0.349 0.035,1.963 0,3.409 0.166,3.729 z M -99.48,5.958 c -1.551,-0.134 -2.467,-0.331 -3.744,-1.304 -3.468,-2.519 -5.863,-8.464 -5.863,-12.687 4.462,0 11.493,2.861 13.48,6.954 0.362,0.351 0.661,0.826 0.661,0.983 0.909,1.256 -1.482,2.716 -1.62,2.706 -1.259,-1.503 -3.912,-4.684 -6.859,-5.455 l 0.067,0.029 c 1.084,3.731 3.939,4.995 5.829,5.734 0.229,1.544 -1.601,2.93 -1.951,3.04 m 18.574,-18.407 c -0.246,5.331 -9.17,8.833 -9.469,8.819 l 0.035,0.041 c -0.528,-1.203 -0.235,-3.139 0.763,-4.707 1.357,-2.034 5.327,-4.065 8.671,-4.153 m -28.975,41.471 c 0,0.777 -1.717,1.969 -2.316,2.342 -0.103,0 -0.3,-0.013 -0.3,-0.181 -0.165,0.01 -0.165,-0.156 -0.165,-0.156 -0.134,-0.334 -0.168,-0.658 -0.332,-1.163 -0.393,-2.897 -5.158,-12.787 -4.535,-12.787 1.124,0.197 4.37,0.925 4.699,0.94 2.156,0.546 2.42,0.868 2.917,2.201 0.332,0.517 0.66,1.15 1.123,1.793 0.067,0 -1.458,3.061 -1.289,3.396 0.033,0.503 0,1.457 0.166,3.588 z m -49.08,11.276 c -0.063,0.102 -0.232,0.321 -0.364,0.321 -0.43,1.163 -0.661,2.296 -0.828,3.277 -0.129,0.508 -0.162,0.968 -0.162,1.461 -0.27,1.652 -0.663,2.944 -1.294,3.462 -0.172,0.459 -0.846,0.289 -1.124,0.028 -1.13,-0.42 -3.744,-2.327 -5.069,-4.711 -0.594,-1.134 -0.96,-2.257 -0.96,-3.224 0.065,-1.628 0.163,-2.608 0.163,-3.421 0.034,-1.609 0,-2.272 0.337,-5.047 0.229,-0.322 0.164,-0.658 0.164,-0.997 l 0.199,-0.489 c -0.155,-0.759 0.051,-1.932 0.165,-2.75 0.359,0.655 0.664,1.265 1.092,1.896 0.495,0.655 0.791,1.274 1.461,2.07 1.189,1.294 2.284,2.695 3.074,3.803 0.977,1.246 2.582,2.872 3.146,4.321 m 20.102,-44.448 c 0,0.344 5.513,2.201 3.981,-0.703 0,0.018 -0.223,-0.205 -1.339,-0.205 0.045,0.033 -0.181,0 -0.451,0 l 0.09,0.033 c -0.491,0 -0.938,-0.033 -1.385,-0.033 -0.18,0.033 -0.671,0.449 -0.671,0.449 z m 1.422,4.985 c 0.419,0 0.649,-0.251 0.859,-0.251 0.964,-0.211 2.007,-0.231 2.233,-0.674 0.156,-0.028 -2.875,-0.158 -2.914,0.02 -0.178,0.252 -0.408,0.443 -0.225,0.885 z m -27.515,11.853 c -0.229,-6.969 2.845,-13.429 8.046,-17.496 3.11,-2.314 6.525,-3.547 9.938,-3.602 1.684,0 3.408,0.308 5.032,0.798 0.529,0.017 0.96,-0.197 1.457,-0.197 1.323,-0.125 2.448,-0.335 3.577,-0.167 1.853,0.155 3.574,0.477 4.869,1.138 0.361,0.026 0.825,0.166 1.486,0.335 2.948,1.011 5.198,1.822 5.498,2.65 l 0.034,0.028 c 0,0.324 -0.034,0.295 0.164,0.632 0.203,0.838 0.466,1.947 -0.829,3.545 l -0.163,0.198 c -0.265,0.615 -1.292,0.446 -2.415,0.262 -0.799,0.045 -1.657,-0.166 -2.621,-0.012 0,0.012 -2.061,0.572 -2.285,0.658 -1.091,0.296 -2.283,0.785 -3.738,0.785 -1.059,0.044 -2.585,-0.139 -3.745,-0.785 -0.099,-0.14 -0.329,-0.154 -0.329,-0.337 -2.553,-1.581 -5.201,-1.738 -7.616,-0.712 -4.241,2.061 -7.154,6.786 -8.149,10.722 0.034,0.184 -0.165,0.802 -0.165,1.462 -0.3,1.47 -0.664,3.909 -0.958,4.892 -0.258,0.275 -0.26,0.35 -0.599,0.35 -0.498,0.182 -0.695,0.182 -0.862,0.182 l 0.069,0.168 v -0.322 l -0.234,0.014 c -0.663,-0.784 -5.529,-4.571 -5.529,-5.216 z m -11.723,28.867 c -0.498,0.816 -0.564,1.124 -0.696,1.63 0.033,0.335 -0.168,0.474 -0.332,0.993 0,0.233 -0.963,1.748 -1.129,2.147 h 0.035 l -0.663,1.359 h -0.13 c -0.797,1.347 -1.196,1.822 -2.183,1.878 0.061,0.142 -0.173,0.153 -0.304,0.013 l -0.659,0.031 c -0.134,0.014 -0.168,0 -0.168,-0.171 l -0.496,0.03 c -0.299,0.015 -0.663,-0.309 -1.621,-1.555 v 0.014 c 0,-0.182 0,-0.182 -0.135,-0.182 -0.43,-1.108 -1.156,-2.232 -0.827,-3.046 0.051,-0.197 0.338,-0.433 0.529,-0.352 0.439,-0.141 0.704,0.092 1.093,0.158 0.772,0.896 1.789,1.163 2.784,0.489 0.165,-0.167 0.297,-0.181 0.629,-0.196 0.031,-0.128 0.162,-0.336 0.296,-0.491 0.532,-0.517 1.027,-1.85 1.325,-2.972 0.168,-0.322 0.168,-0.52 0.333,-0.841 0.365,-1.151 0.626,-1.994 0.826,-2.328 0.465,-0.478 0.929,-0.839 1.128,-0.839 1.491,0 0.776,3.104 0.464,3.882 0.064,0.168 0,0.168 -0.167,0.324 z m -4.737,1.811 c -0.109,0.224 -0.571,0.672 -0.827,0.672 -0.133,0.183 -0.333,0.167 -0.497,0.183 -0.598,0.042 -1.327,-0.099 -1.625,-0.576 -0.929,-0.42 -1.951,-1.053 -2.447,-1.99 -0.597,-0.94 -0.796,-2.26 -0.632,-3.392 h 0.035 c 0.132,-0.337 0.132,-0.827 0.429,-1.165 0.2,-0.142 0.168,-0.324 0.364,-0.338 0.077,0.107 0.191,0.23 0.3,0.309 0.067,0.334 0.164,0.493 0.164,0.813 0.198,0.971 0.332,2.077 1.457,2.033 0.33,0 0.465,-0.181 0.831,-0.194 0.691,-0.196 0.66,-0.518 0.66,-0.844 0.433,-0.771 0.785,-0.825 1.623,-0.882 0.66,-0.028 0.925,-0.04 1.257,0.435 0.364,0.634 0.332,1.779 0,2.93 -0.067,0.825 -0.628,1.486 -1.123,2.006 z m -1.922,-7.866 c 0.386,-0.033 1.054,-0.146 1.257,0.252 0.365,0.63 -0.495,1.471 -1.323,2.327 -0.299,0.534 -0.663,0.843 -0.826,1.007 v 0.156 c -0.269,0.016 -1.427,-0.575 -1.59,-1.388 -0.134,-0.601 0.463,-1.316 1.59,-1.851 0.205,-0.137 0.65,-0.556 0.892,-0.503 m 2.054,-3.689 c 0.528,-0.025 1.126,-0.392 2.286,-1.4 l 0.066,0.028 c 0.299,-0.197 0.56,-0.225 0.76,-0.408 0.332,-0.126 0.629,-0.18 0.797,-0.335 0.252,-0.199 0.005,-0.181 0.331,-0.181 0.444,0.204 0.297,0.557 0.297,0.953 -0.297,1.023 -0.796,1.99 -1.625,2.353 -0.791,0.87 -2.086,1.052 -3.405,0.647 -0.304,0.026 -0.466,0.013 -0.466,0.013 -0.798,0.057 -1.46,0.392 -2.29,0.897 -0.492,0.532 -1.124,1.038 -1.619,0.731 -0.918,0.082 -0.763,-1.241 -0.464,-1.77 0,-0.125 0,-0.153 0.131,-0.32 0.665,-1.01 1.325,-1.375 1.624,-1.54 0.917,0 1.922,-0.191 2.78,0.206 0.365,0.142 0.5,0.142 0.797,0.126 m 5.695,-2.83 v -0.154 c -0.132,-0.182 -0.498,-0.493 -0.663,-0.477 v 0.041 c -3.51,0.279 -3.74,0.436 -3.906,0.59 -0.342,0.288 -1.139,0.668 -1.558,0.754 v -0.179 c 0,-0.799 -1.987,-2.51 -3.444,-3.268 0,-0.168 0,-0.168 -0.197,-0.309 l 0.063,0.015 c -0.955,-0.618 -1.686,-1.25 -2.483,-1.865 -1.124,-1.22 -2.116,-2.48 -2.913,-4.245 l 0.199,-0.309 c 0,-0.182 -0.034,-0.17 0.1,-0.182 l 0.034,-0.156 c 0.618,-0.016 1.301,-0.061 1.921,-0.115 0.197,0 0.164,0 0.33,0.157 l 0.396,-0.028 c 0.301,0 0.266,0.154 0.433,0.309 v 0.015 c 0.199,0.166 0.164,0.309 0.297,0.629 l 0.065,0.014 c 0.794,2.411 1.258,3.491 1.89,3.629 0.229,0.327 0.492,0.129 0.958,-0.04 0.906,-0.287 2.141,-0.255 3.115,-0.31 1.488,0.45 2.25,0.731 2.913,1.013 0.561,0.321 0.796,0.616 1.459,0.601 0.197,0.015 0.493,-0.198 0.859,-0.211 0.296,-0.953 -0.198,-1.61 -0.695,-2.409 -0.628,-0.787 -1.127,-1.574 -1.127,-2.876 l 0.065,-0.156 c 0.405,-0.041 1.744,0.375 1.889,0.731 1.325,0.939 2.253,1.864 2.75,2.985 0.332,0.494 0.496,1.109 0.664,1.431 0.165,1.32 0.793,1.934 1.453,2.551 0.199,0.352 0.498,0.477 0.662,0.785 l 0.199,0.209 c -0.163,0.143 -0.363,1.11 -0.529,2.077 -0.207,1.294 -0.56,2.629 -0.829,3.926 0.235,1.639 0,2.776 0,3.744 0.036,1.133 -0.163,1.975 0.168,3.097 0.221,0.773 0.805,2.527 1.324,3.058 h -0.297 c -0.96,-0.099 -1.822,-1.571 -2.483,-3.002 -0.166,-0.156 -0.332,-0.308 -0.332,-0.644 -0.264,-0.448 -0.497,-0.966 -0.797,-1.43 -0.096,-0.49 -0.497,-0.801 -0.659,-1.277 -0.499,-0.602 -0.499,-2.257 -0.499,-4.206 v -3.098 c -0.129,-0.941 -0.463,-1.429 -0.795,-1.415 m -1.753,-32.458 -0.136,0.015 c -0.658,-0.787 -0.894,-1.596 -0.561,-2.411 l 0.031,-0.153 0.168,-0.017 c 1.043,-0.48 1.522,-0.151 2.415,0.38 0.502,0.63 0.961,1.108 2.254,1.388 0.498,0 0.828,-0.043 1.161,0.281 1.324,0.464 1.786,1.066 2.452,2.508 0.363,0.496 0.628,1.125 1.123,1.895 0.697,1.275 0.962,1.611 1.126,1.922 0.231,0.181 0.166,0.165 0.166,0.474 0.029,0.018 0.321,2.568 0.992,3.252 0.163,0.493 0.296,0.786 0,2.919 0.163,0.167 -0.165,1.302 -0.495,1.624 -0.165,0.168 -0.165,0.168 -0.497,0.18 -0.595,-0.46 -0.959,-1.12 -1.46,-1.569 -0.461,-0.631 -0.955,-1.274 -2.448,-1.372 -0.132,-0.14 -0.628,-0.293 -1.456,-0.6 -0.794,-0.115 -3.412,-1.182 -3.745,-2.135 -0.989,-2.22 1.656,-7.344 -1.123,-8.566 z m -7.683,20.682 c 0.229,-0.016 0.164,0.139 0.33,0.139 0.992,0.616 1.955,1.359 2.283,2.819 0.036,0 0,0.322 0.169,0.475 0,0.56 0.367,1.402 0,1.781 0,0.146 -1.35,-0.292 -1.46,-0.42 -0.131,0 -0.364,-0.142 -0.364,-0.309 0.069,-0.939 -0.298,-1.765 -0.958,-2.231 -0.694,-1.013 -3.314,-2.121 -4.539,-2.047 -0.169,-0.156 -0.306,-0.34 -0.496,-0.475 v -1.778 c -0.297,-3.409 -0.331,-3.409 -0.331,-3.578 l 0.331,-0.166 v 0.166 c 0.892,0.115 1.624,0.394 3.08,0.49 0.884,0.131 1.727,0.096 2.615,0.058 0.828,0.14 1.457,0.238 1.953,0.224 1.36,0.418 4.537,1.585 5.037,3.197 0.033,0.168 0,0.322 0,0.492 -1.04,0.131 -2.552,0.12 -3.577,-0.016 -0.464,-0.127 -1.129,-0.097 -1.46,-0.085 0.036,0.014 -0.164,0 -0.164,0 0.2,0.353 0.495,0.464 0.799,0.619 0.856,0.939 2.28,2.338 2.446,3.952 0.168,0.013 0.333,0.647 0.629,1.276 0.069,0.182 0,0.324 -0.134,0.478 -0.975,0.165 -0.643,-0.652 -1.322,-0.911 -0.763,-1.262 -2.085,-3.156 -3.246,-3.914 -0.133,-0.153 -0.663,-0.462 -1.457,-0.926 -0.597,-0.434 -1.291,-0.741 -1.624,-0.881 v 0.025 c 0.236,0.607 0.665,1.069 1.46,1.53 z m 5.561,-17.792 c 0,0.461 0.301,0.939 0.628,1.583 0.7,1.081 1.461,2.524 1.461,4.319 l 0.033,0.17 c -0.224,0.022 -0.476,0.027 -0.697,0.014 0.031,0.027 0,-0.156 -0.333,-0.144 l 0.103,-0.012 V 5.19 c -0.235,-0.129 -0.433,-0.451 -0.729,-0.618 l -0.466,-0.434 c -0.66,-0.323 -2.313,-1.233 -4.105,-2.144 l -0.134,-0.128 c -0.959,-0.296 -1.457,-0.785 -2.117,-1.08 0,-0.126 -0.332,-0.282 -0.496,-0.447 -1.614,-0.759 -3.235,-0.967 -4.87,-1.545 -2.086,-0.403 -4.571,-0.756 -5.696,-1.344 -1.537,-1.137 -2.112,0.091 -3.577,-1.919 0,-0.296 -0.169,-0.478 -0.332,-0.8 0.033,0.015 -0.495,-0.465 -0.796,-0.927 -1.655,-1.697 -2.448,-2.651 -2.615,-2.803 l 0.035,-0.295 c 3.562,-0.275 7.632,0.582 11.194,1.011 1.95,0.418 3.743,0.63 5.529,0.87 0.529,-0.032 1.128,0.265 1.787,0.575 0.861,0.294 1.59,0.897 2.586,1.511 1.787,1.557 3.28,3.407 3.574,4.71 z m 21.429,30.438 v 2.271 c 0.167,3.252 -0.166,3.912 -0.498,4.095 l 0.066,0.151 v -0.139 c -0.362,0.015 -0.862,-0.169 -1.027,-0.477 h -0.333 c -0.891,-0.294 -1.786,-1.907 -2.614,-3.49 -0.266,-0.308 -0.46,-0.8 -0.628,-1.291 -0.164,-0.307 -0.332,-0.476 -0.496,-0.967 -0.168,-0.462 -0.497,-0.785 -0.63,-1.092 -1.291,-2.106 -1.793,-2.554 -2.616,-3.354 -0.267,-0.293 -0.797,-0.952 -1.624,-1.889 -1.722,-2.02 -3.244,-3.773 -4.404,-5.034 -2.75,-3.155 -5.036,-5.187 -10.069,-9.184 -0.43,-0.45 -0.795,-0.617 -1.322,-0.757 -0.269,-0.294 -0.631,-0.294 -0.93,-0.281 v 0.013 c -0.43,0.03 -0.992,0.198 -1.456,0.533 -0.299,0.03 -0.828,0.366 -1.161,0.38 -1.109,0.703 -2.152,1.237 -3.112,0.013 l 0.035,-0.167 0.2,-0.015 c 0,0 -0.036,-0.013 -0.036,-0.169 l 0.199,0.017 c 0.134,-0.199 0.1,-0.199 0.431,-0.368 1.38,-0.778 1.144,-3.363 0.496,-4.569 -0.263,-0.799 -0.961,-1.428 -1.954,-1.865 -0.166,-0.126 -0.332,-0.309 -0.665,-0.282 -0.427,-0.138 -0.79,-0.476 -1.121,-0.587 -0.185,0.04 -0.52,-0.321 -0.63,-0.461 l -1.324,-0.252 1.324,-0.073 c 1.819,-0.099 4.87,0.378 7.618,1.401 1.156,0.424 1.783,0.901 2.613,1.501 0.53,0.339 0.963,0.788 1.291,0.928 1.656,0.768 2.915,1.328 4.24,1.753 2.156,0.758 3.877,1.33 5.829,2.704 0.729,0.491 1.292,1.091 2.119,1.878 l 0.363,0.156 c 3.215,2.819 6.96,6.279 11.032,8.425 1.19,0.812 0.961,2.242 0.794,4.039 -0.137,0.672 -0.166,1.472 -0.166,2.285 0.029,0.348 0,1.135 0,2.113 0.169,0.666 0.166,1.424 0.166,2.107 m -52.158,-39.973 0.293,-0.014 c 3.147,0.632 7.323,2.846 8.777,5.695 0.365,0.631 0.495,1.106 0.664,1.596 0,0.49 0.165,0.801 0.165,0.967 0.2,0.617 0.168,0.617 0,0.799 0,0.169 -0.225,0.212 -0.334,0.169 -0.495,0.043 -0.792,0.224 -1.122,0.715 -0.074,0.014 -0.275,0.053 -0.333,0.028 0.042,0.241 0,0.167 -0.264,0.21 l -0.23,-0.169 c -0.962,-2.212 -2.287,-4.291 -4.207,-5.156 0.862,1.734 2.582,5.072 3.245,5.186 l 0.164,0.013 v 0.325 c -0.428,0.671 -0.66,0.839 -0.993,1.008 0.034,0.027 -0.163,0.013 -0.329,0.196 l 0.065,0.167 -0.201,0.013 c -0.318,-0.178 -0.962,0.344 -1.256,0.549 V 2.034 c -0.498,-0.168 -1.06,-0.307 -1.524,-0.603 -2.053,-1.009 -3.411,-3.88 -3.246,-7.474 0.035,-1.441 0.167,-2.942 0.666,-4.093 z m -7.652,4.63 c 0,-0.14 0.165,-0.353 0.297,-0.353 0.994,-0.055 1.986,-0.113 2.781,-0.294 0.997,-0.057 1.789,-0.266 2.618,-0.321 v 0.041 c 0.131,-0.015 0.131,0.111 0.131,0.111 0.233,0.156 0.167,0.156 0.167,0.322 0.066,0.494 -0.167,1.305 -0.167,1.793 -0.131,0.17 -0.131,0.34 -0.463,0.355 l -0.927,0.083 c -1.325,0.225 -3.475,0.478 -4.14,0.689 h 0.066 l -0.198,-0.169 c -0.752,-0.257 -0.476,-1.109 -0.331,-1.109 0,-0.295 0.166,-0.828 0.166,-1.164 z m -9.24,5.703 0.43,-0.028 c 0.23,-0.014 0.199,-0.014 0.199,0.156 0.184,0.377 0.399,0.616 0.827,0.643 0.167,0.125 0.298,0.436 0.135,0.436 -0.27,0.841 -1.459,2.692 -2.421,3.084 h 0.035 c -0.231,0.013 -0.364,-0.169 -0.364,-0.324 -0.301,-0.459 -0.498,-0.615 -0.665,-0.602 0,-0.151 0,-0.182 -0.164,-0.182 0.032,-0.112 0.164,-0.14 0.164,-0.322 0.201,-0.324 0.499,-0.829 1.13,-1.683 0.033,-0.331 0.487,-0.845 0.694,-1.178 m -3.279,3.757 c 0.366,-0.014 0.464,0.295 0.63,0.45 0.398,0.492 0.825,0.937 2.618,0.841 0.242,0.209 0.295,0.113 0.295,0.46 -0.099,0.856 -0.627,1.183 -1.589,1.391 -0.644,0.308 -2.725,0.394 -3.412,0.182 -0.698,0.063 -1.414,0.074 -2.119,0.111 -0.166,0.015 -0.495,0.031 -0.662,0.031 -0.96,0.067 -1.953,0.433 -2.915,0.811 0.102,0.043 -1.788,0.645 -1.788,-0.239 0.166,-1.78 2.12,-1.891 2.75,-1.921 0.694,-0.028 1.325,0.085 2.12,0.045 0.622,0.086 1.89,0.262 2.45,0.026 0.363,0.014 0.665,-0.198 0.665,-0.198 0.211,-0.5 -0.306,-1.377 -0.665,-1.752 0,-0.154 -0.201,-0.137 -0.332,-0.433 -0.465,-0.63 -0.993,-1.43 -1.457,-2.06 -0.1,-0.155 -0.166,-0.309 0,-0.646 0.085,0.035 0.631,-0.094 0.631,0.127 0.728,0.813 1.158,1.234 1.454,1.711 0.498,0.489 0.963,0.768 1.326,1.063 m -5.498,11.191 c 0,-0.143 0.132,-0.337 0.132,-0.337 l 0.499,-0.015 c 0.776,-0.068 1.899,0.886 0.961,1.401 -0.265,0.197 -0.333,0.335 -0.498,0.504 v 0.326 c -0.131,0.514 -0.463,0.854 -0.825,1.511 -0.634,1.501 -1.462,2.341 -2.253,2.385 0,0.028 -0.332,0.028 -0.664,-0.113 l 0.033,0.014 h -0.2 c -0.1,-0.139 -0.164,-0.323 -0.164,-0.491 0.364,-0.659 1.161,-1.682 1.655,-2.679 0.661,-1.345 1.126,-2.34 1.292,-2.521 z m 3.744,-6.183 c 0.66,-0.703 0.926,-1.067 1.256,-1.08 0.034,0.013 0.135,0 0.135,0 0.363,0.138 0.495,0.294 0.993,0.11 0.166,-0.014 0.329,-0.014 0.494,-0.198 0.199,0 0.331,-0.165 0.498,-0.181 l 0.332,0.016 -0.135,0.475 c 0,0 -0.031,-0.027 -0.528,0.17 -0.627,0.56 -1.459,1.051 -1.789,1.387 -0.33,0.366 -0.459,0.351 -0.828,0.366 -0.204,-0.219 -0.784,-0.303 -1.093,-0.241 l -0.165,-0.321 c 0.165,-0.014 0.297,-0.182 0.467,-0.52 z m 14.769,-9.774 c 0.795,0.939 1.787,1.992 2.418,2.3 0.486,0.033 0.794,0.471 0.794,0.938 0.066,0.17 -0.298,0.155 -0.794,0.184 -0.43,0.055 -1.457,0.252 -1.952,0.926 -0.101,0.026 -0.499,0.181 -0.665,0.04 0.136,-0.287 -0.118,-0.882 0.066,-1.273 0,-0.662 -0.861,-1.448 -2.482,-2.498 -0.166,0.014 -0.166,0.014 -0.166,-0.155 v 0.018 c 0,-0.142 0.996,-1.685 0.996,-1.685 0.05,-0.246 -0.077,-0.08 0.165,-0.321 h 0.162 c 0.207,-0.022 1.259,1.443 1.458,1.526 m 55.862,94.598 c 0.006,-0.13 0.162,-0.349 0.31,-0.279 2.215,0.227 3.106,2.113 3.865,3.922 0.446,1.143 0.898,2.147 1.517,3.141 0.987,1.104 2.926,2.352 4.434,2.393 l -0.001,0.013 c -0.125,-0.19 -0.481,-0.344 -0.806,-0.529 -0.375,-0.479 -1.087,-0.835 -1.69,-1.509 l -1.265,-1.333 c -0.311,-0.462 -1.464,-3.449 -0.941,-4.098 0.23,0.023 0.497,0.023 0.794,0.021 0.354,0.184 0.479,0.344 0.966,0.691 0.154,0.173 3.764,3.185 5.488,4.695 0.229,0.25 0.169,0.218 0.489,0.206 -0.621,-0.998 -1.834,-3.494 -1.473,-4.138 0.133,-0.11 0.545,-0.415 0.708,-0.262 0.963,0.015 2.819,1.504 3.925,2.706 -0.009,0.224 0.061,-0.285 -0.145,-0.513 -0.105,-0.621 -0.106,-1.312 0.075,-1.625 0.385,-0.43 1.311,-0.432 3.225,0.457 2.645,1.054 3.778,6.639 4.253,7.152 l -0.001,0.027 c 0.142,-0.256 0.676,-0.783 0.905,-1 0.065,-0.062 0.105,-0.103 0.105,-0.103 0.398,-0.755 1.026,-1.416 1.898,-2.358 2.263,-2.463 4.714,-3.826 7.519,-4.331 0.134,0.062 2.546,-0.359 2.636,-0.314 0,0 0.134,-0.01 0.299,-0.002 0.092,0.272 0.29,0.43 -0.03,0.66 -2.499,1.009 -5.318,2.478 -6.234,4.377 -0.186,0.451 -0.274,1.315 -0.079,1.777 0.405,-0.104 3.478,-1.831 7.742,-5.584 4.267,-3.754 11.958,-4.876 12.438,-5.175 0.447,0.102 0.499,-0.013 0.474,0.526 -0.179,1 -0.237,1.601 -0.26,2.079 -3.328,12.987 -25.798,12.611 -26.444,12.905 l -0.157,-0.161 -0.006,0.139 c -0.794,-0.036 -1.796,0.072 -2.631,0.217 -1.404,0.287 -20.457,-1.906 -22.191,-12.837 0.077,-0.305 -0.265,-1.47 0.252,-1.953 z m 49.614,-27.957 c 2.121,-1.375 14.834,-11.097 21.494,-20.205 0.25,0 0.631,0 0.631,0.35 0.062,0.491 1.641,2.273 -4.704,12.157 -0.427,0.66 -1.159,1.247 -1.485,1.722 -0.931,1.123 -9.906,6.155 -11.033,7.573 -1.46,1.754 -3.444,3.799 -5.397,6.029 -1.393,1.415 -3.08,2.987 -4.208,4.429 -0.494,0.672 -0.958,1.123 -1.292,1.601 -0.959,1.315 -1.787,2.257 -3.443,3.517 -0.298,0.379 -0.767,-0.21 -0.465,-0.49 0.465,-0.952 6.407,-13.425 9.902,-16.683 m -33.147,22.458 c 0.032,0.489 0.165,0.814 -0.333,0.968 0.065,0 -0.332,0 -0.332,-0.154 -0.923,-0.633 -10.231,-14.621 -13.344,-17.623 -1.921,-1.713 -4.372,-2.959 -6.655,-4.193 -2.582,-1.179 -5.367,-2.58 -7.155,-4.78 -0.462,-0.31 -0.995,-0.785 -1.456,-1.236 -0.499,-0.293 -0.797,-0.629 -1.294,-0.937 -0.427,-0.31 -0.991,-0.618 -1.455,-1.249 -0.133,-0.292 -0.499,-0.643 -0.831,-0.952 l -0.133,-0.295 c -1,-1.224 -4.235,-5.009 -3.573,-6.688 0.165,-0.156 0.461,-0.507 0.791,-0.69 1.196,-0.334 2.088,-0.56 2.915,-1.26 0.831,-0.828 1.295,-1.836 1.459,-3.478 0.033,-0.644 0.164,-1.132 0.329,-1.471 0.233,-0.127 0.366,-0.351 0.662,-0.367 0.2,0.016 0.631,0.168 0.799,0.157 0.066,0.168 0.162,0.152 0.162,0.152 0.342,0.335 4.706,2.104 6.493,3.661 1.046,0.969 2.509,2.6 3.909,2.803 0.195,0.03 0.497,0.63 0.661,0.967 0.035,0.171 3.082,8.668 4.072,10.435 0.069,0 0,0.321 -0.165,0.336 0,0.197 -0.333,0.167 -0.333,0 -1.42,-0.603 -2.91,-1.529 -4.235,-2.636 -1.231,-1.078 -4.425,-3.132 -5.998,-3.381 l 0.036,0.028 c 0.567,0.33 1,0.796 1.624,1.065 4.104,2.807 8.906,7.043 10.532,8.442 4.796,4.377 12.848,22.376 12.848,22.376" /></g></g></g></g></svg>