<?xml version="1.0" encoding="UTF-8" standalone="no"?>
<svg
   xmlns:dc="http://purl.org/dc/elements/1.1/"
   xmlns:cc="http://creativecommons.org/ns#"
   xmlns:rdf="http://www.w3.org/1999/02/22-rdf-syntax-ns#"
   xmlns:svg="http://www.w3.org/2000/svg"
   xmlns="http://www.w3.org/2000/svg"
   viewBox="0 0 555.95331 127.32347"
   height="127.32347"
   width="555.95331"
   xml:space="preserve"
   id="svg2"
   version="1.1"><metadata
     id="metadata8"><rdf:RDF><cc:Work
         rdf:about=""><dc:format>image/svg+xml</dc:format><dc:type
           rdf:resource="http://purl.org/dc/dcmitype/StillImage" /></cc:Work></rdf:RDF></metadata><defs
     id="defs6"><clipPath
       id="clipPath22"
       clipPathUnits="userSpaceOnUse"><path
         id="path20"
         d="M 0,95.493 H 416.965 V 0 H 0 Z" /></clipPath></defs><g
     transform="matrix(1.3333333,0,0,-1.3333333,0,127.32347)"
     id="g10"><g
       transform="translate(0,93.8079)"
       id="g12"><path
         id="path14"
         style="fill:#ffffff;fill-opacity:1;fill-rule:nonzero;stroke:none"
         d="m 0,0 v -92.789 h 6.165 v 75.892 h 28.212 v 6.034 H 6.165 v 4.819 H 34.703 V 0 Z" /></g><g
       id="g16"><g
         clip-path="url(#clipPath22)"
         id="g18"><g
           transform="translate(76.5113)"
           id="g24"><path
             id="path26"
             style="fill:#ffffff;fill-opacity:1;fill-rule:nonzero;stroke:none"
             d="m 0,0 c 8.663,0 15.071,6.172 19.264,18.488 2.976,8.573 4.463,18.232 4.463,28.974 0,10.672 -1.487,20.335 -4.463,28.998 C 15.071,88.696 8.663,94.821 0,94.821 c -8.729,0 -15.182,-6.125 -19.356,-18.361 -2.912,-8.663 -4.372,-18.326 -4.372,-28.998 0,-10.668 1.46,-20.331 4.372,-28.974 C -15.182,6.172 -8.729,0 0,0 m -12.088,79.033 v 0 C -8.873,85.528 -4.85,88.78 0,88.78 c 4.766,0 8.845,-3.252 12.198,-9.747 3.67,-7.171 5.489,-16.678 5.489,-28.537 0,-8.142 -1.116,-15.747 -3.356,-22.833 C 11.115,17.418 6.343,12.316 0,12.316 c -6.344,0 -11.12,5.102 -14.32,15.347 -2.242,7.231 -3.367,14.841 -3.367,22.833 0,11.556 1.872,21.078 5.599,28.537" /></g><g
           transform="translate(142.7197)"
           id="g28"><path
             id="path30"
             style="fill:#ffffff;fill-opacity:1;fill-rule:nonzero;stroke:none"
             d="m 0,0 c 8.665,0 15.078,6.172 19.251,18.488 2.984,8.573 4.471,18.232 4.471,28.974 0,10.672 -1.487,20.335 -4.471,28.998 C 15.078,88.696 8.665,94.821 0,94.821 c -8.734,0 -15.181,-6.125 -19.361,-18.361 -2.907,-8.663 -4.359,-18.326 -4.359,-28.998 0,-10.668 1.452,-20.331 4.359,-28.974 C -15.181,6.172 -8.734,0 0,0 m -12.086,79.033 v 0 c 3.214,6.495 7.243,9.747 12.086,9.747 4.772,0 8.845,-3.252 12.199,-9.747 3.669,-7.171 5.489,-16.678 5.489,-28.537 0,-8.142 -1.118,-15.747 -3.361,-22.833 C 11.127,17.418 6.357,12.316 0,12.316 c -6.329,0 -11.102,5.102 -14.32,15.347 -2.229,7.231 -3.353,14.841 -3.353,22.833 0,11.556 1.853,21.078 5.587,28.537" /></g><g
           transform="translate(215.0972,8.1255)"
           id="g32"><path
             id="path34"
             style="fill:#ffffff;fill-opacity:1;fill-rule:nonzero;stroke:none"
             d="m 0,0 c 4.318,4.738 6.482,11.502 6.482,20.304 0,6.649 -1.191,13.991 -3.582,22.063 -6.936,22.749 -18.054,37.753 -33.344,45 v -94.47 h 12.411 C -10.337,-7.103 -4.331,-4.739 0,0 m -24.404,11.351 v 0 65.816 c 9.169,-7.308 16.188,-18.909 21.041,-34.8 1.634,-5.593 2.469,-10.793 2.469,-15.561 0,-2.762 -0.27,-5.345 -0.795,-7.723 -0.886,-3.729 -2.642,-7.059 -5.263,-9.972 -2.983,-3.276 -6.187,-4.924 -9.628,-4.924 -2.308,0 -4.194,0.619 -5.648,1.853 -1.452,1.231 -2.176,3.003 -2.176,5.311" /></g><g
           transform="translate(267.8643,58.8774)"
           id="g36"><path
             id="path38"
             style="fill:#ffffff;fill-opacity:1;fill-rule:nonzero;stroke:none"
             d="m 0,0 c 0,2.829 1.452,4.255 4.372,4.255 h 18.351 c 3.214,0 4.814,-1.426 4.814,-4.255 v -57.855 h 6.041 V 34.93 h -6.041 v -5.374 c 0,-3.292 -1.64,-4.933 -4.922,-4.933 H 4.486 C 1.493,24.623 0,26.126 0,29.109 V 34.93 H -6.04 V -57.855 H 0 Z m 4.372,17.583 v 0 h 18.351 c 3.053,0 4.587,-0.976 4.587,-2.913 0,-0.9 -0.444,-1.661 -1.339,-2.293 -0.889,-0.633 -2.012,-0.949 -3.356,-0.949 H 4.486 c -2.912,0 -4.373,1.046 -4.373,3.117 0,2.025 1.42,3.038 4.259,3.038" /></g><g
           transform="translate(331.5098,9.518)"
           id="g40"><path
             id="path42"
             style="fill:#ffffff;fill-opacity:1;fill-rule:nonzero;stroke:none"
             d="m 0,0 c 3.27,1.867 7.077,2.795 11.408,2.795 4.332,0 8.1,-0.928 11.315,-2.795 3.565,-2.079 5.771,-4.921 6.605,-8.496 h 6.256 L 14.328,84.29 H 8.395 L -12.766,-8.496 h 6.161 C -5.784,-4.921 -3.585,-2.079 0,0 m 11.408,70.52 v 0 L 22.265,22.062 H 0.216 Z M 1.454,16.009 v 0 h 19.465 c 1.804,0 2.732,-1.043 2.8,-3.128 0,-0.828 -0.216,-1.537 -0.654,-2.135 C 22.615,10.147 21.93,9.854 21.041,9.854 L 1.454,9.958 c -1.878,0 -2.765,1.013 -2.69,3.034 0.072,2.011 0.967,3.017 2.69,3.017" /></g><g
           transform="translate(416.9649,12.3164)"
           id="g44"><path
             id="path46"
             style="fill:#ffffff;fill-opacity:1;fill-rule:nonzero;stroke:none"
             d="m 0,0 h -21.6 c -1.182,0 -2.375,0.579 -3.517,1.735 -1.164,1.157 -1.736,2.344 -1.736,3.535 v 76.221 h -6.046 V -11.297 H 0 Z" /></g></g></g></g></svg>