<?xml version="1.0" encoding="utf-8"?>
<!-- Generator: Adobe Illustrator 16.0.1, SVG Export Plug-In . SVG Version: 6.00 Build 0)  -->
<!DOCTYPE svg PUBLIC "-//W3C//DTD SVG 1.1//EN" "http://www.w3.org/Graphics/SVG/1.1/DTD/svg11.dtd">
<svg version="1.1" id="Слой_1" xmlns="http://www.w3.org/2000/svg" xmlns:xlink="http://www.w3.org/1999/xlink" x="0px" y="0px"
	 width="1088.49px" height="77.588px" viewBox="0 0 1088.49 77.588" enable-background="new 0 0 1088.49 77.588"
	 xml:space="preserve">
<path fill="#B6A29B" d="M535.785,49.331c0.001,0.002-0.006-0.007-0.019-0.023c0.004,0.007,0.007,0.017,0.013,0.023H535.785z"/>
<path fill="#A18888" d="M650.603,30.421c0.755-1.077,2.093-1.807,3.479-1.689c-2.975-6.374-12.395-6.841-16.169-1.449
	c-0.206-1.18-0.244-2.675,0.493-3.727c-5.755,1.018-12.231,2.004-13.986,12.571c0.312-2.941-1.202-7.004-3.136-9.68
	c-4.595-6.355-9.364-4.736-9.821-3.477c-2.816,0.328-7.193,1.639-6.422,6.002c3.229-2.71,6.52-2.329,8.279,1.443
	c-1.276,0.598-2.73,1.009-2.839,2.246c6.557,2.384,7.294,10.47,4.394,16.49c-0.359,0.748-0.772,1.467-1.24,2.136
	c0.269-0.735,0.46-1.438,0.613-2.132c1.501-6.661-2.014-11.2-6.564-14.382c-2.689-1.883-7.976-0.506-8.2,2.08
	c-5.275-0.458-10.141,3.712-7.286,9.831c1.973-2.059,3.924-4.25,7.757-3.796c-0.979,1.112-1.646,2.314-1.494,3.763
	c3.979-0.702,6.023,0.703,7.014,2.562c0.775,1.454,0.904,3.185,0.804,4.399c-0.419,0-0.837,0-1.252,0.002
	c-0.783-1.76-2.404-4.112-6.776-2.07c0.577,0.685,1.005,1.376,1.326,2.07c0.649,1.406,0.809,2.82,0.581,4.198
	c-0.16,0.952-0.503,1.889-0.986,2.794c-2.696,5.072-9.858,9.211-14.71,10.069c-5.352,0.944-9.826,1.309-15.801,0.004
	c0.274,0.074,0.544,0.153,0.823,0.221c8.56,3.113,17.859,2.173,26.924-2.552c2-1.043,4.541-4.364,6.038-7.739
	c0.419-0.942,0.763-1.893,0.983-2.797h0.801c0.011,0.943-0.112,1.879-0.336,2.798c-0.444,1.81-1.288,3.541-2.359,5.073
	c2.385-1.575,4.335-3.156,5.742-5.071c0.63-0.855,1.149-1.779,1.55-2.8c0.362-0.923,0.632-1.92,0.792-3.022
	c0.057-0.388,0.089-0.783,0.107-1.182c0.063-1.496-0.155-3.043-0.714-4.418c-0.664-1.629-1.804-3.013-3.528-3.779
	c2.015,0.496,2.687,0.805,4.224,2.311c-1.27-5.109-4.85-7.514-9.534-8.613c3.514-0.474,7.265,1.199,11.635,8.621
	c0.24-2.456-0.252-4.78-0.874-7.085c1.321,2.832,1.856,5.774,1.878,8.521c0.013,1.562-0.146,3.057-0.416,4.438
	c-0.312,1.58-0.771,3.007-1.315,4.204c-0.336,0.741-0.698,1.402-1.08,1.946c0.729-0.525,1.488-1.186,2.243-1.948
	c1.175-1.183,2.343-2.619,3.404-4.208c0.931-1.396,1.771-2.905,2.455-4.468c0.8-1.824,1.389-3.72,1.634-5.581
	c0.756-5.688-0.702-13.605-6.667-17.778c9.172,4.467,9.305,15.783,8.479,19.622c4.477-5.542,5.625-13.454,11.803-17.332
	c0.27-0.196,0.547-0.365,0.825-0.495c-0.291,0.153-0.556,0.325-0.825,0.495c-1.599,1.161-2.934,3.346-2.637,5.018
	c4.412-3.705,14.788-3.902,17.98,1.423c-2.957-4.651-12.755-3.196-14.857-0.192c1.492-0.266,5.444-0.504,7.043,1.017
	c-2.02-1.599-10.405,0.232-12.663,4.437c-1.315,2.452-3.557,5.756-6.428,9.339c-1.171,1.463-2.447,2.971-3.808,4.488
	c-1.265,1.408-2.6,2.821-3.993,4.215c-0.954,0.95-1.937,1.887-2.94,2.805c-4.385,4.017-9.176,7.62-13.944,9.965
	c-9.651,4.743-23.351,5.575-34.46-1.063c0.268,0.066,0.542,0.142,0.808,0.212c-0.364-0.118-0.723-0.243-1.091-0.375
	c8.638-0.245,17.835-3.359,23.196-8.777c0.859-0.868,1.62-1.796,2.264-2.781c0.848-1.3,1.492-2.694,1.892-4.187
	c0.366-1.36,0.524-2.798,0.45-4.313c-0.03-0.636-0.092-1.282-0.209-1.943c-1.167,0.768-2.53,0.77-3.639,0.719
	c1.837-3.857-1.606-10.99-2.95-12.417c0.044,0.801-1.121,1.927-2.742,2.797c-5.526-5.427-10.877-2.407-12.612,2.933
	c3.538-1.651,6.093-0.737,9.301,3.085c-1.808-0.657-4.854-0.278-5.972,1.319c1.415,1.069,2.144,2.301,2.415,3.567
	c0.303,1.409,0.04,2.862-0.495,4.195c-0.691,1.71-1.823,3.217-2.764,4.167c-0.47,0.476-0.892,0.813-1.186,0.966
	c-0.328,0.169-0.371-0.245-0.346-0.977c0.033-1.016,0.198-2.643-0.084-4.18c-0.447-2.442-2.026-4.646-7.086-3.753
	c0.254,1.426,0.233,2.656-0.006,3.708c-0.465,2.054-1.774,3.415-3.585,4.151c-1.923,0.777-4.411,0.852-7.042,0.294
	c0.087-0.118,0.167-0.237,0.254-0.355c0.995-1.351,1.887-2.736,2.66-4.148c0.728-1.326,1.355-2.671,1.872-4.029h0.001
	c0.633-1.322,1.112-2.661,1.41-4c1.449-6.525-1.425-10.411-3.471-12.265c-0.999-1.228-2.521-2.016-4.229-2.016
	c-3.006,0-5.446,2.439-5.446,5.446c0,3.01,2.44,5.448,5.446,5.448c0.95,0,1.842-0.245,2.622-0.671
	c0.231,2.653-0.408,5.417-1.699,8.063c-0.471,1.211-1.031,2.4-1.665,3.56c-0.066,0.121-0.129,0.244-0.197,0.363
	c-0.01,0.021-0.021,0.035-0.03,0.054c-0.597,1.052-1.259,2.07-1.973,3.053c-0.247,0.339-0.498,0.673-0.759,1.002
	c-0.022,0.029-0.047,0.059-0.071,0.089c-0.588,0.741-1.205,1.454-1.851,2.135c-0.194,0.205-0.386,0.408-0.584,0.605
	c-0.005,0.006-0.011,0.012-0.017,0.016c-0.079,0.079-0.16,0.155-0.239,0.232c-1.019,0.994-2.096,1.907-3.22,2.723
	c-3.193,2.319-6.749,3.849-10.355,4.165c-8.779,0.763-16.5,0-24.046-6.846c-0.918-0.835-1.831-1.759-2.745-2.777h0.1
	c1.147,0.953,2.333,1.901,3.546,2.773c2.567,1.844,5.24,3.344,7.86,3.805c-1.407-1.18-2.742-2.467-3.94-3.83
	c-0.785-0.894-1.512-1.82-2.161-2.773c-0.92-1.349-1.68-2.744-2.233-4.173c-0.538-1.393-0.873-2.813-0.96-4.237
	c-0.169-2.72,0.569-5.465,2.572-8.086c-1.801,2.45-2.321,5.287-1.944,8.088c0.193,1.439,0.623,2.866,1.236,4.232
	c0.672,1.493,1.565,2.908,2.61,4.17c0.696,0.839,1.459,1.614,2.271,2.294c-0.511-0.732-0.866-1.509-1.132-2.3
	c-0.467-1.381-0.642-2.813-0.762-4.178h0.073c0.307,1.531,0.946,2.928,1.856,4.172c0.754,1.031,1.692,1.955,2.763,2.768
	c4.64,3.521,11.854,4.935,18.148,3.517c-3.491-0.658-6.974-1.455-9.269-3.577c-0.802-0.743-1.457-1.649-1.917-2.767h0.011
	c0.486,1.096,1.345,2.018,2.448,2.762c2.807,1.894,7.132,2.664,10.61,2.362c1.37-0.12,2.689-0.464,3.946-0.973
	c1.019-0.412,1.998-0.932,2.927-1.549c0.007-0.006,0.013-0.012,0.022-0.017c0.286-0.191,0.568-0.394,0.846-0.602
	c0.284-0.216,0.564-0.438,0.839-0.67c0.55-0.462,1.08-0.956,1.584-1.475c0.027-0.027,0.053-0.055,0.079-0.079
	c0.412-0.428,0.805-0.872,1.181-1.328c0.721-0.872,1.375-1.79,1.96-2.733c0.011-0.017,0.021-0.035,0.032-0.053
	c0.315-0.516,0.611-1.034,0.885-1.558c0.408-0.783,0.767-1.572,1.07-2.359c0.92-2.373,1.356-4.713,1.193-6.679
	c-0.475,2.464-1.488,4.681-2.853,6.621c-0.014,0.02-0.026,0.04-0.04,0.058c-1.036,1.459-2.271,2.76-3.626,3.885
	c-0.021,0.019-0.042,0.033-0.062,0.051c-0.457,0.376-0.924,0.734-1.404,1.068c-0.488-0.341-0.964-0.705-1.427-1.087
	c-0.004-0.005-0.009-0.007-0.013-0.012c-1.365-1.129-2.61-2.436-3.652-3.904c-0.006-0.008-0.011-0.018-0.018-0.027
	c-1.376-1.946-2.397-4.177-2.875-6.652c-0.161,1.951,0.268,4.27,1.174,6.626c0.007,0.017,0.013,0.036,0.021,0.053
	c0.506,1.308,1.159,2.625,1.942,3.896c0.01,0.021,0.022,0.038,0.033,0.055c0.587,0.952,1.246,1.875,1.97,2.752
	c-0.225,0.111-0.448,0.22-0.675,0.326c-0.717-0.987-1.384-2.014-1.984-3.071c-0.009-0.018-0.022-0.036-0.031-0.055
	c-0.713-1.264-1.335-2.571-1.851-3.903c-6.195-8.79-0.408-0.599-0.042-0.088c-0.746-1.544-1.95-4.205-2.047-7.064
	c-0.018-0.504-0.012-1.015,0.009-1.524c0.948,0.8,2.171,1.285,3.509,1.285c3.009,0,5.446-2.438,5.446-5.448
	c0-3.007-2.437-5.446-5.446-5.446c-0.514,0-1.012,0.077-1.482,0.21c0.006-0.017,0.014-0.036,0.021-0.054c0,0-0.069,0.035-0.186,0.1
	c-1.16,0.368-2.15,1.114-2.829,2.091c-2.352,2.206-5.022,6.117-3.73,11.934c0.296,1.341,0.777,2.679,1.411,4.002h0.001
	c0.515,1.353,1.139,2.692,1.861,4.011c0.774,1.412,1.664,2.798,2.657,4.149c0.09,0.123,0.176,0.248,0.267,0.371
	c-2.649,0.561-5.15,0.483-7.078-0.312c-1.795-0.738-3.093-2.098-3.553-4.146c-0.235-1.05-0.253-2.277-0.002-3.696
	c-5.052-0.892-6.634,1.304-7.085,3.743c-0.282,1.532-0.119,3.158-0.084,4.179c0.026,0.737-0.016,1.156-0.347,0.987
	c-0.294-0.153-0.723-0.496-1.196-0.979c-0.94-0.951-2.069-2.457-2.755-4.165c-0.533-1.326-0.795-2.775-0.494-4.179
	c0.272-1.269,1-2.503,2.416-3.573c-1.118-1.598-4.164-1.977-5.971-1.319c3.208-3.822,5.762-4.736,9.3-3.085
	c-1.736-5.34-7.085-8.36-12.613-2.933c-1.62-0.87-2.785-1.996-2.741-2.797c-1.344,1.427-4.786,8.56-2.949,12.417
	c-1.11,0.051-2.472,0.049-3.639-0.719c-0.118,0.664-0.178,1.313-0.21,1.95c-0.073,1.51,0.086,2.945,0.449,4.302
	c0.4,1.49,1.043,2.887,1.891,4.185c0.641,0.984,1.401,1.911,2.259,2.781c5.359,5.42,14.561,8.538,23.204,8.783
	c-0.368,0.132-0.728,0.257-1.091,0.375c0.264-0.07,0.538-0.146,0.807-0.212c-11.11,6.639-24.809,5.807-34.46,1.063
	c-4.769-2.345-9.561-5.945-13.944-9.965c-1.002-0.917-1.984-1.854-2.937-2.805c-1.393-1.389-2.729-2.802-3.99-4.21
	c-1.359-1.515-2.634-3.021-3.803-4.48c-2.876-3.587-5.123-6.896-6.44-9.352c-2.257-4.205-10.643-6.036-12.664-4.437
	c1.601-1.521,5.551-1.283,7.043-1.017c-2.1-3.004-11.898-4.459-14.856,0.192c3.192-5.325,13.567-5.128,17.981-1.423
	c0.295-1.672-1.038-3.857-2.637-5.018c6.177,3.878,7.327,11.79,11.802,17.332c-0.825-3.839-0.693-15.155,8.479-19.622
	c-5.964,4.173-7.421,12.09-6.667,17.778c0.245,1.866,0.838,3.765,1.638,5.594c0.686,1.561,1.526,3.067,2.454,4.458
	c1.062,1.59,2.229,3.026,3.403,4.208c0.756,0.76,1.513,1.42,2.24,1.945c-0.38-0.544-0.743-1.203-1.078-1.943
	c-0.544-1.198-1.005-2.623-1.316-4.204c-0.271-1.38-0.427-2.871-0.417-4.428c0.021-2.753,0.554-5.697,1.878-8.534
	c-0.622,2.305-1.114,4.629-0.873,7.085c4.371-7.422,8.122-9.095,11.633-8.621c-4.684,1.1-8.263,3.504-9.534,8.613
	c1.538-1.506,2.209-1.814,4.225-2.311c-1.73,0.767-2.87,2.157-3.532,3.79c-0.557,1.374-0.774,2.916-0.709,4.409
	c0.016,0.398,0.05,0.793,0.105,1.18c0.161,1.103,0.432,2.1,0.793,3.022c0.402,1.021,0.921,1.944,1.55,2.8
	c1.407,1.915,3.356,3.496,5.743,5.071c-1.072-1.532-1.917-3.266-2.36-5.074c-0.224-0.918-0.345-1.855-0.336-2.797h0.803
	c0.217,0.904,0.562,1.852,0.981,2.796c1.497,3.374,4.039,6.697,6.039,7.74c9.064,4.725,18.361,5.665,26.923,2.552
	c0.278-0.067,0.549-0.146,0.823-0.221c-5.975,1.305-10.448,0.94-15.801-0.004c-4.851-0.858-12.015-4.998-14.712-10.072
	c-0.482-0.906-0.825-1.842-0.983-2.795c-0.229-1.377-0.068-2.788,0.581-4.194c0.32-0.694,0.748-1.386,1.324-2.07
	c-4.371-2.042-5.992,0.311-6.774,2.07h-1.251c-0.104-1.213,0.025-2.938,0.796-4.391c0.987-1.863,3.033-3.276,7.018-2.572
	c0.153-1.448-0.513-2.65-1.494-3.763c3.835-0.454,5.786,1.737,7.759,3.796c2.855-6.119-2.012-10.289-7.287-9.831
	c-0.226-2.586-5.511-3.963-8.2-2.08c-4.552,3.183-8.071,7.728-6.563,14.396c0.155,0.685,0.346,1.386,0.612,2.117
	c-0.466-0.665-0.877-1.38-1.235-2.122c-2.906-6.022-2.174-14.12,4.388-16.503c-0.109-1.237-1.564-1.648-2.84-2.246
	c1.761-3.772,5.052-4.153,8.28-1.443c0.771-4.363-3.605-5.674-6.421-6.002c-0.457-1.259-5.226-2.878-9.822,3.477
	c-1.934,2.676-3.447,6.739-3.135,9.68c-1.755-10.567-8.231-11.553-13.986-12.571c0.736,1.052,0.698,2.547,0.491,3.727
	c-3.773-5.392-13.192-4.925-16.167,1.449c1.387-0.118,2.724,0.612,3.479,1.689c-12.738,1.112-6.983,24.39,5.296,15.798
	c-2.875-2.411-2.831-6.258-1.7-8.678c0.846,4.366,3.541,5.415,6.03,4.77c-0.576-6.61,7.963-4.14,10.816-0.061
	c1.583,2.263,3.305,4.559,5.14,6.842c1.214,1.51,2.479,3.012,3.793,4.493c1.269,1.43,2.582,2.841,3.934,4.216
	c0.936,0.955,1.894,1.891,2.867,2.808c8.475,7.98,18.247,14.362,28.313,16.141c16.691,2.949,32.221-2.187,42.919-10.714
	c10.698,8.527,26.229,13.663,42.918,10.714c10.068-1.778,19.84-8.16,28.314-16.142c0.975-0.919,1.934-1.854,2.872-2.812
	c1.352-1.376,2.667-2.787,3.936-4.219c1.316-1.48,2.581-2.989,3.798-4.501c1.833-2.275,3.548-4.568,5.128-6.826
	c2.853-4.08,11.393-6.549,10.817,0.061c2.487,0.645,5.183-0.404,6.03-4.77c1.13,2.42,1.172,6.267-1.701,8.678
	C657.585,54.812,663.341,31.534,650.603,30.421 M556.77,67.392c-3.607-0.316-7.161-1.845-10.354-4.165
	c0.485-0.462,0.954-0.932,1.412-1.409c1.258,0.509,2.576,0.853,3.946,0.973c3.47,0.302,7.786-0.465,10.592-2.349
	c1.109-0.746,1.971-1.666,2.462-2.764h0.011c-0.463,1.119-1.119,2.025-1.927,2.768c-2.295,2.113-5.77,2.909-9.252,3.564
	c6.285,1.416,13.492,0.009,18.132-3.504c1.075-0.814,2.015-1.738,2.771-2.771c0.911-1.244,1.552-2.642,1.861-4.174h0.072
	c-0.121,1.365-0.295,2.798-0.763,4.178c-0.268,0.79-0.62,1.563-1.13,2.292c0.808-0.68,1.568-1.447,2.262-2.282
	c1.049-1.264,1.941-2.681,2.616-4.176c0.616-1.368,1.048-2.803,1.241-4.242c0.374-2.803-0.148-5.636-1.945-8.084
	c2,2.62,2.738,5.361,2.572,8.08c-0.088,1.429-0.424,2.854-0.965,4.251c-0.554,1.428-1.316,2.826-2.235,4.178
	c-0.651,0.951-1.377,1.88-2.165,2.772c-1.197,1.36-2.527,2.642-3.93,3.818c2.614-0.461,5.285-1.957,7.851-3.798
	c1.212-0.873,2.4-1.819,3.547-2.773h0.102c-0.914,1.021-1.829,1.944-2.746,2.776C573.266,67.393,565.545,68.154,556.77,67.392"/>
<path fill="#A18888" d="M1000.335,48.773c-128.362,8.078-381.312,8.281-381.312,8.281l-4.28,3.617c0,0,279.663-2.26,378.612-7.966
	c98.949-5.707,89.226-24.241,79.194-32.357c-5.224-4.226-14.351-7.526-27.081-8.719c-4.091-0.385-1.095-1.894-0.145-2.996
	c-1.116-0.092-7.02-0.12-8.077-0.057c-3.638,0.222-6.659,1.437-9.164,3.153c-4.322,2.955-7.104,7.411-8.822,10.879
	c-0.975-4.213,4.247-10.003,9.135-13.177c0.619-0.402,1.233-0.764,1.828-1.072c-0.462,0.009-0.924,0.029-1.387,0.055
	c-3.075,0.183-6.2,0.749-9.57,1.767c1.485-1.6,5.892-2.926,10.923-3.624c5.45-0.757,11.635-0.777,15.663,0.396
	c-1.227-1.016-3.255-2.668-7.903-3.365c1.032-0.092,2.117-0.118,3.24-0.091c3.518,0.55,6.813,1.892,12.043,4.783
	c1.041,0.577,4.969,3.907,4.969,3.907s-1.252-2.671-1.243-3.068c0.614,0.156,1.243,0.322,1.895,0.501
	c1.897,0.525,3.938,1.149,6.153,1.904c3.745,1.282,6.289,2.55,8.865,4.11c0.167,0.101,0.333,0.199,0.498,0.301
	c1.095,0.679,2.078,1.385,2.975,2.108c1.254,1.008,2.321,2.056,3.199,3.135c5.095,6.468,7.594,14.9-8.113,23.426
	c-18.96,10.55-78.311,13.073-78.311,13.073c-28.061,1.631-119.529,2.975-151.323,4.058c-77.47,2.65-234.734,3.986-234.734,3.986
	l-4.144,3.365c0,0,288.357-2.146,390.705-8.091c0,0-86.35-0.833,0-0.002c92.016-4.042,101.256-25.57,90.129-40.235
	c-0.277-0.363-0.565-0.727-0.878-1.091l-0.011,0.002c-0.604-0.703-1.293-1.396-2.046-2.072c-0.645-0.582-1.346-1.145-2.082-1.697
	c-0.891-0.668-1.841-1.312-2.841-1.923c-1.188-0.726-2.437-1.412-3.731-2.031c-0.525-0.289-6.112-2.681-13.197-4.848
	c-2.458-0.752-5.099-1.477-7.769-2.077c-0.283-0.063-0.569-0.124-0.854-0.186c-9.798-6.779-22.511-4.854-29.562-3.537
	c-1.454,0.27,0.284,2.069,2.485,3.457c1.398,0.883-9.083,1.972-10.741,8.354c-0.315,1.219,4.545,0.625,3.28,1.958
	c-7.021,5.919,6.062,16.032,6.147,14.436c0.464-8.592,6.453-14.635,14.238-15.493C1054.438,9.125,1128.697,40.696,1000.335,48.773"
	/>
<path fill="#A18888" d="M88.155,48.773c128.362,8.078,381.311,8.281,381.311,8.281l4.281,3.617c0,0-279.663-2.26-378.613-7.966
	C-3.815,46.999,5.909,28.465,15.94,20.349c5.224-4.226,14.35-7.526,27.081-8.719c4.091-0.385,1.095-1.894,0.144-2.996
	c1.117-0.092,7.02-0.12,8.078-0.057c3.637,0.222,6.659,1.437,9.164,3.153c4.322,2.955,7.103,7.411,8.822,10.879
	c0.975-4.213-4.247-10.003-9.136-13.177c-0.618-0.402-1.232-0.764-1.827-1.072c0.462,0.009,0.924,0.029,1.387,0.055
	c3.075,0.183,6.2,0.749,9.57,1.767c-1.485-1.6-5.891-2.926-10.923-3.624c-5.45-0.757-11.635-0.777-15.663,0.396
	c1.227-1.016,3.255-2.668,7.903-3.365c-1.033-0.092-2.117-0.118-3.24-0.091c-3.517,0.55-6.814,1.892-12.043,4.783
	c-1.041,0.577-4.968,3.907-4.968,3.907s1.251-2.671,1.243-3.068c-0.614,0.156-1.244,0.322-1.895,0.501
	c-1.897,0.525-3.938,1.149-6.153,1.904c-3.745,1.282-6.289,2.55-8.865,4.11c-0.167,0.101-0.333,0.199-0.498,0.301
	c-1.095,0.679-2.078,1.385-2.975,2.108c-1.254,1.008-2.321,2.056-3.199,3.135c-5.095,6.468-7.594,14.9,8.113,23.426
	c18.96,10.55,78.311,13.073,78.311,13.073c28.06,1.631,119.529,2.975,151.323,4.058c77.47,2.65,234.733,3.986,234.733,3.986
	l4.145,3.365c0,0-288.358-2.146-390.705-8.091c0,0,86.349-0.833,0-0.002C1.851,56.952-7.389,35.424,3.738,20.759
	c0.277-0.363,0.564-0.727,0.878-1.091l0.01,0.002c0.604-0.703,1.293-1.396,2.046-2.072c0.645-0.582,1.346-1.145,2.082-1.697
	c0.891-0.668,1.841-1.312,2.841-1.923c1.189-0.726,2.437-1.412,3.732-2.031c0.525-0.289,6.112-2.681,13.197-4.848
	c2.458-0.752,5.098-1.477,7.768-2.077c0.284-0.063,0.569-0.124,0.855-0.186c9.798-6.779,22.511-4.854,29.562-3.537
	c1.454,0.27-0.285,2.069-2.486,3.457c-1.398,0.883,9.083,1.972,10.741,8.354c0.316,1.219-4.545,0.625-3.28,1.958
	c7.021,5.919-6.061,16.032-6.147,14.436c-0.464-8.592-6.453-14.635-14.239-15.493C34.052,9.125-40.207,40.696,88.155,48.773"/>
<rect fill="none" width="1088.49" height="77.588"/>
</svg>
