<?xml version="1.0" encoding="UTF-8" standalone="no"?>
<svg
   xmlns:dc="http://purl.org/dc/elements/1.1/"
   xmlns:cc="http://creativecommons.org/ns#"
   xmlns:rdf="http://www.w3.org/1999/02/22-rdf-syntax-ns#"
   xmlns:svg="http://www.w3.org/2000/svg"
   xmlns="http://www.w3.org/2000/svg"
   viewBox="0 0 145.72267 76.253731"
   height="76.253731"
   width="145.72267"
   xml:space="preserve"
   id="svg2"
   version="1.1"><metadata
     id="metadata8"><rdf:RDF><cc:Work
         rdf:about=""><dc:format>image/svg+xml</dc:format><dc:type
           rdf:resource="http://purl.org/dc/dcmitype/StillImage" /></cc:Work></rdf:RDF></metadata><defs
     id="defs6"><clipPath
       id="clipPath18"
       clipPathUnits="userSpaceOnUse"><path
         id="path16"
         d="M 0,57.19 H 109.292 V 0 H 0 Z" /></clipPath></defs><g
     transform="matrix(1.3333333,0,0,-1.3333333,0,76.253733)"
     id="g10"><g
       id="g12"><g
         clip-path="url(#clipPath18)"
         id="g14"><g
           transform="translate(48.711,43.1131)"
           id="g20"><path
             id="path22"
             style="fill:#ffffff;fill-opacity:1;fill-rule:evenodd;stroke:none"
             d="m 0,0 c 0.277,12.964 3.133,10.492 2.726,12.993 -0.199,1.224 -3.433,0.922 -5.406,0.845 -0.687,0 -2.562,-10e-4 -3.256,-0.004 -4.451,0.586 -4.605,-0.422 -3.914,-2.052 0.393,-0.935 0.875,-2.348 1.123,-3.855 0.525,-3.179 0.689,-9.365 0.809,-13.303 0.068,-2.235 -0.6,-2.786 -1.461,-2.202 0,0 -7.905,5.57 -19.706,15.613 -1.382,1.175 -6.685,6.051 -11.7,5.84 -4.034,-0.17 -6.349,-15.662 -1.712,-17.236 1.785,-0.604 2.136,-0.558 2.51,-1.173 0.185,-0.307 -0.084,-0.316 -0.193,-0.386 -0.142,-0.087 -0.236,-0.182 -0.181,-0.363 0.085,-0.296 0.222,-0.483 0.508,-0.341 0.398,0.195 2.407,0.513 2.407,0.513 2.874,0.396 3.556,-0.677 3.866,-0.137 1.637,2.834 -2.213,3.338 -4.804,3.579 -0.921,0.087 -1.73,-0.125 -2.978,0.373 -2.753,1.09 5.457,11.773 11.329,7.597 4.775,-3.513 9.754,-7.912 10.743,-9.123 0.969,-1.18 0.334,-3.061 -0.174,-3.847 -4.787,-7.444 -3.128,-4.477 -8.229,-11.811 -5.481,-7.879 -12.787,-16.496 -15.911,-19.62 -3.159,-3.157 -4.646,-1.969 -5.08,-3.483 -0.148,-0.503 0.275,-1.34 1.955,-1.388 1.086,-0.04 2.378,0.169 3.387,0.229 1.177,0.071 10.299,0.065 10.888,0.065 2.061,0 2.93,1.217 1.831,2.84 -1.097,1.625 0.259,4.837 7.173,15.177 2.521,3.768 3.749,5.881 8.51,12.35 3.184,4.332 2.639,3.786 5.463,1.94 0.663,-0.434 1.316,-0.725 1.354,-3.807 0.097,-7.535 0.162,-9.281 -0.309,-14.399 -0.282,-3.039 -0.372,-8.32 -1.804,-10.519 -1.117,-1.708 -0.832,-3.941 1.658,-3.943 2.73,0.073 3.036,0.822 7.134,0.359 1.546,-0.173 3.139,-0.675 3.946,0.008 1.221,1.031 0.453,3.029 0,3.936 C 0.022,-33.771 -0.246,-12.551 0,0 m 53.89,-32.617 c -2.855,0.652 -3.469,-0.488 -6.171,-1.618 -1.384,-0.578 -3.185,-1.581 -4.699,-0.068 -0.433,0.433 -2.369,-0.312 -1.844,-1.067 2.827,-2.826 4.17,-2.657 8.316,-1.942 0.817,0.142 3.234,-0.033 2.764,-0.502 -3.207,-3.206 -23.04,-2.373 -25.899,-1.843 -3.888,0.716 -3.944,7.04 -4.306,10.978 -0.419,4.489 -0.789,8.243 -0.81,14.168 0,0.848 0.012,1.176 0.012,2.12 0.024,1.813 0.353,2.164 1.537,2.517 4.115,1.22 14.132,5.37 18.216,4.478 1.679,-0.368 3.374,-3.456 3.719,-1.945 0.194,0.839 0.194,0.922 0.505,2.437 0.485,2.331 1.36,2.513 0.955,3.282 -0.746,1.416 -20.523,-5.857 -22.75,-6.035 -0.853,-0.069 -1.627,0.121 -1.949,0.781 -0.108,0.219 -0.156,0.491 -0.156,0.825 0.107,5.501 0.502,13.878 0.982,16.701 0.169,1.014 0.906,1.06 1.945,1.144 5.047,0.396 9.14,0.339 12.444,0.457 6.295,0 7.235,-0.118 7.498,-1.298 C 44.46,9.774 41.926,10.287 41.56,9.096 41.193,7.902 42.006,7.98 43.196,8 c 1.192,0.02 2.662,0.085 3.622,0.085 2.269,0 7.037,0.811 3.807,3.495 -2.79,2.318 -7.919,2.616 -14.258,2.464 -4.507,-0.108 -10.349,-0.181 -16.597,-0.213 -0.191,-0.004 -0.385,-0.004 -0.579,-0.006 -0.694,0.006 -2.571,0.006 -3.262,0.006 -1.976,0.078 -5.217,0.379 -5.417,-0.847 -0.407,-2.507 2.455,-0.026 2.731,-13.023 0.246,-12.578 -0.022,-33.846 -2.506,-38.817 -0.455,-0.914 -1.224,-2.914 0,-3.952 0.807,-0.684 1.978,-0.005 3.951,-0.005 5.082,0.222 10.56,0.268 16.011,0.238 4.166,-0.031 8.109,-0.078 11.638,-0.135 4.809,-0.08 18.244,-1.103 18.244,1.962 0,1.796 -1.474,6.94 -6.691,8.131" /></g></g></g></g></svg>