<?xml version="1.0" encoding="UTF-8" standalone="no"?>
<svg
   xmlns:dc="http://purl.org/dc/elements/1.1/"
   xmlns:cc="http://creativecommons.org/ns#"
   xmlns:rdf="http://www.w3.org/1999/02/22-rdf-syntax-ns#"
   xmlns:svg="http://www.w3.org/2000/svg"
   xmlns="http://www.w3.org/2000/svg"
   viewBox="0 0 114.98573 77.767998"
   height="77.767998"
   width="114.98573"
   xml:space="preserve"
   id="svg2"
   version="1.1"><metadata
     id="metadata8"><rdf:RDF><cc:Work
         rdf:about=""><dc:format>image/svg+xml</dc:format><dc:type
           rdf:resource="http://purl.org/dc/dcmitype/StillImage" /></cc:Work></rdf:RDF></metadata><defs
     id="defs6"><clipPath
       id="clipPath34"
       clipPathUnits="userSpaceOnUse"><path
         id="path32"
         d="M 0,58.326 H 86.239 V 0 H 0 Z" /></clipPath></defs><g
     transform="matrix(1.3333333,0,0,-1.3333333,0,77.768)"
     id="g10"><g
       transform="translate(6.4017,7.4511)"
       id="g12"><path
         id="path14"
         style="fill:#665050;fill-opacity:1;fill-rule:nonzero;stroke:none"
         d="M 0,0 -2.848,-4.035 -5.813,0 h -0.589 v -7.357 h 0.579 v 6.422 l 2.879,-3.942 h 0.096 l 2.826,3.973 v -6.453 h 0.578 l 0,7.357 z" /></g><g
       transform="translate(17.8569,7.5123)"
       id="g16"><path
         id="path18"
         style="fill:#665050;fill-opacity:1;fill-rule:nonzero;stroke:none"
         d="m 0,0 -3.206,-7.418 h 0.587 l 1.073,2.501 h 3.53 L 3.056,-7.418 H 3.677 L 0.473,0 Z m 0.22,-0.797 1.523,-3.572 h -3.059 z" /></g><g
       transform="translate(29.2275,7.4511)"
       id="g20"><path
         id="path22"
         style="fill:#665050;fill-opacity:1;fill-rule:nonzero;stroke:none"
         d="m 0,0 v -7.357 h 0.577 v 6.813 H 4.056 V 0 Z" /></g><g
       transform="translate(42.1119,7.5123)"
       id="g24"><path
         id="path26"
         style="fill:#665050;fill-opacity:1;fill-rule:nonzero;stroke:none"
         d="m 0,0 -3.206,-7.418 h 0.589 l 1.071,2.501 H 1.987 L 3.058,-7.418 H 3.679 L 0.473,0 Z m 0.221,-0.797 1.522,-3.572 h -3.057 z" /></g><g
       id="g28"><g
         clip-path="url(#clipPath34)"
         id="g30"><g
           transform="translate(52.7774,1.083)"
           id="g36"><path
             id="path38"
             style="fill:#665050;fill-opacity:1;fill-rule:nonzero;stroke:none"
             d="m 0,0 0.325,0.389 c 0.493,-0.589 1.347,-0.926 1.954,-0.926 1.147,0 1.922,0.621 1.922,1.661 0,0.841 -0.596,1.377 -1.564,1.377 H 1.723 v 0.547 h 0.851 c 0.673,0 1.346,0.62 1.346,1.471 0,0.933 -0.673,1.397 -1.546,1.397 -0.818,0 -1.366,-0.315 -1.828,-0.84 L 0.211,5.443 c 0.491,0.631 1.302,1.019 2.206,1.019 1.249,0 2.08,-0.693 2.08,-1.899 0,-0.665 -0.378,-1.4 -1.113,-1.737 V 2.795 C 4.285,2.669 4.78,1.912 4.78,1.071 4.78,-0.283 3.677,-1.083 2.321,-1.083 1.345,-1.083 0.389,-0.59 0,0" /></g><g
           transform="translate(65.8106,0.0947)"
           id="g40"><path
             id="path42"
             style="fill:#665050;fill-opacity:1;fill-rule:nonzero;stroke:none"
             d="m 0,0 v 7.356 h 0.575 v -6.41 l 4.952,6.41 H 6.041 V 0 H 5.464 V 6.41 L 0.514,0 Z" /></g><g
           transform="translate(85.6631,3.5742)"
           id="g44"><path
             id="path46"
             style="fill:#665050;fill-opacity:1;fill-rule:nonzero;stroke:none"
             d="m 0,0 h -4.595 v -3.48 h -0.578 v 7.357 h 0.578 V 0.545 H 0 V 3.877 H 0.576 V -3.48 H 0 Z" /></g><g
           transform="translate(38.6914,48.3164)"
           id="g48"><path
             id="path50"
             style="fill:#837171;fill-opacity:1;fill-rule:evenodd;stroke:none"
             d="m 0,0 c 0.197,9.219 2.229,7.461 1.937,9.238 -0.139,0.871 -2.439,0.657 -3.841,0.603 -0.491,0 -1.824,-0.002 -2.318,-0.003 -3.165,0.416 -3.273,-0.302 -2.782,-1.461 0.279,-0.664 0.623,-1.668 0.799,-2.74 0.373,-2.263 0.49,-6.66 0.575,-9.46 0.047,-1.591 -0.428,-1.982 -1.04,-1.566 0,0 -5.621,3.96 -14.013,11.102 -0.982,0.836 -4.754,4.303 -8.319,4.153 -2.87,-0.122 -4.516,-11.137 -1.218,-12.257 1.27,-0.429 1.518,-0.396 1.784,-0.834 0.132,-0.217 -0.059,-0.224 -0.136,-0.274 -0.102,-0.063 -0.168,-0.131 -0.13,-0.258 0.061,-0.211 0.158,-0.343 0.362,-0.243 0.283,0.14 1.712,0.364 1.712,0.364 2.042,0.282 2.529,-0.481 2.749,-0.096 1.165,2.015 -1.573,2.374 -3.417,2.545 -0.653,0.061 -1.229,-0.09 -2.117,0.264 -1.957,0.775 3.881,8.372 8.057,5.402 3.395,-2.497 6.934,-5.627 7.639,-6.487 0.69,-0.839 0.237,-2.176 -0.125,-2.735 -3.402,-5.294 -2.223,-3.185 -5.851,-8.4 -3.898,-5.603 -9.092,-11.73 -11.316,-13.951 -2.245,-2.245 -3.302,-1.4 -3.61,-2.476 -0.106,-0.359 0.195,-0.954 1.389,-0.989 0.773,-0.028 1.691,0.122 2.41,0.163 0.837,0.051 7.322,0.047 7.742,0.047 1.465,0 2.083,0.865 1.302,2.02 -0.781,1.154 0.184,3.439 5.101,10.792 1.791,2.68 2.665,4.183 6.051,8.782 2.265,3.082 1.876,2.693 3.886,1.381 0.47,-0.31 0.935,-0.517 0.962,-2.708 0.069,-5.357 0.115,-6.6 -0.219,-10.239 -0.202,-2.161 -0.265,-5.918 -1.282,-7.481 -0.795,-1.215 -0.592,-2.802 1.177,-2.803 1.942,0.051 2.159,0.584 5.073,0.254 1.099,-0.122 2.233,-0.479 2.806,0.006 0.867,0.735 0.323,2.155 0,2.8 C 0.017,-24.016 -0.175,-8.926 0,0 m 38.322,-23.194 c -2.031,0.462 -2.468,-0.348 -4.388,-1.151 -0.984,-0.412 -2.265,-1.125 -3.342,-0.049 -0.307,0.308 -1.684,-0.221 -1.312,-0.759 2.013,-2.009 2.966,-1.889 5.915,-1.38 0.578,0.101 2.299,-0.024 1.964,-0.358 -2.28,-2.28 -16.383,-1.687 -18.417,-1.311 -2.764,0.51 -2.804,5.008 -3.062,7.807 -0.297,3.192 -0.561,5.862 -0.576,10.075 0,0.603 0.009,0.838 0.009,1.507 0.019,1.29 0.25,1.539 1.093,1.789 2.927,0.869 10.049,3.821 12.954,3.186 1.194,-0.261 2.399,-2.457 2.645,-1.383 0.137,0.597 0.137,0.656 0.359,1.733 0.344,1.657 0.966,1.787 0.678,2.335 -0.531,1.005 -14.594,-4.167 -16.177,-4.293 -0.606,-0.049 -1.158,0.086 -1.387,0.555 -0.075,0.157 -0.11,0.349 -0.11,0.587 0.076,3.912 0.357,9.869 0.698,11.876 0.12,0.722 0.644,0.755 1.383,0.814 3.589,0.283 6.499,0.241 8.85,0.325 4.477,0 5.144,-0.082 5.332,-0.924 0.184,-0.837 -1.618,-0.474 -1.876,-1.32 -0.262,-0.849 0.317,-0.793 1.163,-0.779 0.846,0.014 1.892,0.061 2.575,0.061 1.613,0 5.004,0.576 2.707,2.485 -1.984,1.649 -5.631,1.86 -10.14,1.752 C 22.656,9.909 18.504,9.858 14.059,9.834 13.923,9.832 13.785,9.832 13.646,9.83 13.154,9.834 11.818,9.835 11.327,9.835 9.922,9.891 7.617,10.104 7.476,9.233 7.186,7.449 9.221,9.213 9.417,-0.028 9.593,-8.973 9.4,-24.096 7.635,-27.632 c -0.323,-0.648 -0.871,-2.073 0,-2.808 0.573,-0.489 1.406,-0.005 2.81,-0.005 3.614,0.157 7.509,0.19 11.384,0.169 2.964,-0.023 5.767,-0.055 8.278,-0.096 3.419,-0.057 12.973,-0.784 12.973,1.394 0,1.277 -1.048,4.936 -4.758,5.784" /></g></g></g></g></svg>