<?xml version="1.0" encoding="UTF-8" standalone="no"?>
<svg
   xmlns:dc="http://purl.org/dc/elements/1.1/"
   xmlns:cc="http://creativecommons.org/ns#"
   xmlns:rdf="http://www.w3.org/1999/02/22-rdf-syntax-ns#"
   xmlns:svg="http://www.w3.org/2000/svg"
   xmlns="http://www.w3.org/2000/svg"
   viewBox="0 0 290.72534 188.52667"
   height="188.52667"
   width="290.72534"
   xml:space="preserve"
   id="svg2"
   version="1.1"><metadata
     id="metadata8"><rdf:RDF><cc:Work
         rdf:about=""><dc:format>image/svg+xml</dc:format><dc:type
           rdf:resource="http://purl.org/dc/dcmitype/StillImage" /></cc:Work></rdf:RDF></metadata><defs
     id="defs6"><clipPath
       id="clipPath18"
       clipPathUnits="userSpaceOnUse"><path
         id="path16"
         d="M 0,141.395 H 218.044 V 0 H 0 Z" /></clipPath></defs><g
     transform="matrix(1.3333333,0,0,-1.3333333,0,188.52667)"
     id="g10"><g
       id="g12"><g
         clip-path="url(#clipPath18)"
         id="g14"><g
           transform="translate(5.3989,47.0342)"
           id="g20"><path
             id="path22"
             style="fill:#ffffff;fill-opacity:1;fill-rule:nonzero;stroke:none"
             d="m 0,0 c 1.817,0.317 2.597,1.614 3.202,2.8 l 1.79,3.377 c 1.386,2.596 3.118,2.915 4.244,2.915 1.443,0 2.626,-0.692 2.626,-2.28 0,-1.011 -0.722,-1.674 -1.616,-1.674 -0.952,0 -1.674,0.635 -1.674,1.588 0,0.693 0.375,1.008 0.635,1.183 C 9.092,7.966 9.005,7.993 8.889,7.993 8.197,7.993 7.677,7.419 7.476,7.157 6.408,5.801 6.667,5.138 5.022,2.684 4.3,1.614 3.377,0.345 1.5,-0.319 v -0.172 c 1.877,-0.434 4.099,-1.502 5.744,-3.752 1.097,-1.5 1.443,-2.744 2.771,-4.85 0.404,-0.666 1.01,-1.531 2.049,-1.531 0.463,0 0.953,0.232 1.299,0.434 h 0.261 l 0.172,-0.233 -0.027,-0.23 c -0.492,-0.692 -1.3,-1.096 -2.629,-1.096 -2.279,0 -3.694,2.049 -4.646,3.609 C 5.166,-5.946 4.503,-4.476 3.636,-3.321 2.539,-1.85 1.413,-1.3 0,-1.126 v -7.42 c 0,-0.865 0.113,-1.443 0.895,-1.791 0.547,-0.229 1.125,-0.201 1.644,-0.201 0.345,0 0.375,-0.201 0.375,-0.345 v -0.173 c 0,-0.146 -0.03,-0.347 -0.375,-0.347 -0.376,0 -0.692,0.058 -1.531,0.115 -1.039,0.086 -1.674,0.146 -2.25,0.146 -0.578,0 -1.213,-0.06 -2.252,-0.146 -0.838,-0.057 -1.156,-0.115 -1.53,-0.115 -0.347,0 -0.375,0.201 -0.375,0.347 v 0.173 c 0,0.144 0.028,0.345 0.375,0.345 0.52,0 1.098,-0.028 1.646,0.201 0.778,0.348 0.895,0.926 0.895,1.791 V 5.946 c 0,0.866 -0.117,1.444 -0.895,1.788 -0.548,0.232 -1.126,0.203 -1.646,0.203 -0.347,0 -0.375,0.201 -0.375,0.346 v 0.173 c 0,0.145 0.028,0.347 0.375,0.347 0.374,0 0.692,-0.056 1.53,-0.115 1.039,-0.087 1.674,-0.144 2.252,-0.144 0.576,0 1.211,0.057 2.25,0.144 0.839,0.059 1.155,0.115 1.531,0.115 0.345,0 0.375,-0.202 0.375,-0.347 V 8.283 C 2.914,8.138 2.884,7.937 2.539,7.937 2.02,7.937 1.442,7.966 0.895,7.734 0.113,7.39 0,6.812 0,5.946 Z" /></g><g
           transform="translate(27.5366,43.7988)"
           id="g24"><path
             id="path26"
             style="fill:#ffffff;fill-opacity:1;fill-rule:nonzero;stroke:none"
             d="m 0,0 c 0.174,0.463 0.29,1.011 0.29,1.414 0,0.232 -0.028,0.926 -0.868,1.043 -0.257,0.025 -0.721,0.025 -0.721,0.345 v 0.143 c 0,0.086 0.058,0.203 0.376,0.203 0.462,0 0.866,-0.117 1.473,-0.145 0.23,-0.028 0.749,-0.058 1.067,-0.058 0.52,0 0.807,0.058 1.069,0.116 0.287,0.059 0.461,0.087 0.837,0.087 0.288,0 0.432,-0.087 0.432,-0.203 V 2.77 C 3.955,2.571 3.782,2.571 3.638,2.571 3.321,2.541 2.83,2.457 2.398,1.994 1.993,1.561 1.82,1.011 1.617,0.521 l -4.648,-11.777 c -0.519,-1.328 -1.095,-2.367 -1.848,-3.09 -0.634,-0.605 -1.24,-0.866 -2.193,-0.866 -1.616,0 -2.251,1.01 -2.251,1.819 0,0.922 0.751,1.443 1.385,1.443 0.722,0 1.328,-0.575 1.328,-1.269 0,-0.492 -0.26,-0.75 -0.518,-0.895 0.087,-0.144 0.172,-0.232 0.402,-0.232 0.549,0 1.126,0.52 1.501,1.039 0.723,0.984 1.329,2.916 1.617,4.1 l -4.531,9.469 c -0.32,0.692 -0.636,1.384 -1.068,1.816 -0.866,0.867 -1.559,0.262 -1.559,0.781 v 0.202 c 0,0.087 0.056,0.201 0.403,0.201 0.752,-0.027 1.993,-0.201 2.713,-0.201 1.012,0 0.694,0.144 2.282,0.201 0.23,0 0.374,0 0.374,-0.201 V 2.945 c 0,-0.229 -0.087,-0.258 -0.287,-0.258 -0.348,0 -0.954,0.029 -0.954,-0.751 0,-0.346 0.173,-0.867 0.232,-0.982 l 3.523,-8.056 z" /></g><g
           transform="translate(34.7827,46.1094)"
           id="g28"><path
             id="path30"
             style="fill:#ffffff;fill-opacity:1;fill-rule:nonzero;stroke:none"
             d="M 0,0 V -8.689 C 0,-9.527 0.201,-9.93 1.501,-9.9 c 0.116,0 0.288,0 0.288,-0.203 v -0.174 c 0,-0.172 -0.201,-0.202 -0.288,-0.202 -0.375,0 -0.752,0.059 -1.3,0.116 -0.604,0.058 -0.953,0.086 -1.183,0.086 -0.231,0 -0.576,-0.028 -1.183,-0.086 -0.549,-0.057 -0.923,-0.116 -1.299,-0.116 -0.087,0 -0.29,0.03 -0.29,0.202 v 0.174 c 0,0.203 0.174,0.203 0.29,0.203 1.299,-0.03 1.502,0.373 1.502,1.211 v 7.851 c 0,0.838 -0.203,1.243 -1.502,1.214 -0.116,0 -0.29,0 -0.29,0.203 V 0.75 c 0,0.088 0.059,0.201 0.29,0.201 h 13.798 c 0.23,0 0.289,-0.113 0.289,-0.201 V 0.579 C 10.623,0.376 10.45,0.376 10.334,0.376 9.035,0.405 8.834,0 8.834,-0.838 v -7.851 c 0,-0.838 0.201,-1.241 1.5,-1.211 0.116,0 0.289,0 0.289,-0.203 v -0.174 c 0,-0.172 -0.202,-0.202 -0.289,-0.202 -0.376,0 -0.752,0.059 -1.299,0.116 -0.606,0.058 -0.953,0.086 -1.183,0.086 -0.231,0 -0.577,-0.028 -1.183,-0.086 -0.549,-0.057 -0.925,-0.116 -1.301,-0.116 -0.086,0 -0.288,0.03 -0.288,0.202 v 0.174 C 5.08,-9.9 5.252,-9.9 5.368,-9.9 6.669,-9.93 6.87,-9.527 6.87,-8.689 V 0 Z" /></g><g
           transform="translate(48.5786,45.2715)"
           id="g32"><path
             id="path34"
             style="fill:#ffffff;fill-opacity:1;fill-rule:nonzero;stroke:none"
             d="m 0,0 c 0,0.838 -0.2,1.243 -1.501,1.214 -0.114,0 -0.288,0 -0.288,0.203 v 0.171 c 0,0.175 0.203,0.201 0.288,0.201 0.378,0 0.752,-0.057 1.301,-0.113 0.606,-0.06 0.951,-0.088 1.182,-0.088 0.231,0 0.579,0.028 1.184,0.088 0.549,0.056 0.924,0.113 1.299,0.113 0.087,0 0.289,-0.026 0.289,-0.201 V 1.417 C 3.754,1.214 3.581,1.214 3.465,1.214 2.166,1.243 1.964,0.838 1.964,0 V -8.689 H 7.883 V 0 c 0,0.838 -0.205,1.243 -1.502,1.214 -0.116,0 -0.289,0 -0.289,0.203 v 0.171 c 0,0.175 0.2,0.201 0.289,0.201 0.376,0 0.751,-0.057 1.297,-0.113 0.608,-0.06 0.955,-0.088 1.185,-0.088 0.231,0 0.578,0.028 1.183,0.088 0.549,0.056 0.925,0.113 1.299,0.113 0.088,0 0.289,-0.026 0.289,-0.201 V 1.417 C 11.634,1.214 11.461,1.214 11.345,1.214 10.046,1.243 9.844,0.838 9.844,0 v -8.689 h 1.675 l 0.232,-0.057 0.055,-0.261 v -3.694 l -0.2,-0.172 h -0.173 l -0.231,0.172 c -0.116,0.81 -0.491,1.76 -0.953,2.281 -0.721,0.779 -1.501,0.779 -2.137,0.779 h -9.613 c -0.229,0 -0.288,0.116 -0.288,0.202 v 0.174 c 0,0.202 0.174,0.202 0.288,0.202 C -0.2,-9.092 0,-8.689 0,-7.852 Z" /></g><g
           transform="translate(64.8301,44.8096)"
           id="g36"><path
             id="path38"
             style="fill:#ffffff;fill-opacity:1;fill-rule:nonzero;stroke:none"
             d="m 0,0 c -0.606,-0.924 -0.895,-2.223 -0.895,-3.519 0,-1.272 0.289,-2.599 0.895,-3.465 0.606,-0.896 1.675,-1.674 3.09,-1.674 1.095,0 2.28,0.431 3.174,1.674 0.809,1.153 0.983,2.424 0.983,3.465 0,1.066 -0.174,2.537 -0.894,3.578 C 5.773,0.925 4.707,1.733 3.178,1.733 1.416,1.733 0.464,0.693 0,0 m 9.557,-3.464 c 0,-2.078 -0.724,-3.637 -2.195,-4.791 -1.473,-1.125 -2.945,-1.269 -4.184,-1.269 -1.244,0 -2.714,0.144 -4.188,1.269 -1.471,1.154 -2.194,2.713 -2.194,4.791 0,2.08 0.723,3.637 2.194,4.793 1.474,1.154 2.944,1.271 4.188,1.271 1.5,0 2.77,-0.202 4.184,-1.327 1.442,-1.157 2.195,-2.571 2.195,-4.737" /></g><g
           transform="translate(79.5527,37.9102)"
           id="g40"><path
             id="path42"
             style="fill:#ffffff;fill-opacity:1;fill-rule:nonzero;stroke:none"
             d="m 0,0 c 0,-0.721 0.259,-1.414 2.048,-1.414 2.657,0 3.003,1.385 3.003,2.398 0,0.661 -0.028,1.383 -0.837,1.962 -0.693,0.461 -1.502,0.49 -2.251,0.49 H 1.443 L 1.241,3.666 V 3.898 L 1.443,4.129 C 2.25,4.215 3.031,4.244 3.608,4.764 4.041,5.141 4.33,5.774 4.33,6.496 4.33,6.932 4.214,7.479 3.695,7.912 3.088,8.402 2.338,8.371 1.789,8.371 1.097,8.371 0.607,8.346 0,8.257 Z m -1.964,7.361 c 0,0.838 -0.201,1.244 -1.5,1.214 -0.116,0 -0.29,0 -0.29,0.203 v 0.171 c 0,0.175 0.204,0.201 0.29,0.201 0.375,0 0.75,-0.056 1.299,-0.113 0.606,-0.06 0.953,-0.088 1.211,-0.088 2.656,0 1.618,0.201 3.58,0.201 1.819,0 2.598,-0.492 2.915,-0.72 C 6.061,8.026 6.496,7.334 6.496,6.582 6.496,5.516 5.657,4.389 4.244,3.955 V 3.809 C 5.023,3.754 5.801,3.436 6.379,2.946 7.101,2.34 7.361,1.617 7.361,0.867 7.361,-0.201 6.727,-1.066 5.917,-1.558 5.08,-2.049 3.55,-2.279 2.568,-2.279 c -0.577,0 -0.923,0.058 -1.961,0.115 -0.753,0.029 -1.128,0.086 -1.561,0.086 -0.808,0 -1.876,-0.201 -2.51,-0.201 -0.086,0 -0.29,0.029 -0.29,0.201 v 0.175 c 0,0.202 0.174,0.202 0.29,0.202 1.299,-0.029 1.5,0.373 1.5,1.211 z" /></g><g
           transform="translate(97.4775,52.9805)"
           id="g44"><path
             id="path46"
             style="fill:#ffffff;fill-opacity:1;fill-rule:nonzero;stroke:none"
             d="m 0,0 c 0,0.865 -0.116,1.443 -0.896,1.788 -0.548,0.232 -1.125,0.203 -1.645,0.203 -0.346,0 -0.375,0.2 -0.375,0.346 V 2.51 c 0,0.144 0.029,0.346 0.375,0.346 H 11.92 c 0.145,0 0.235,-0.085 0.235,-0.228 v -4.765 c 0,-0.086 -0.09,-0.174 -0.177,-0.174 h -0.229 c -0.115,0 -0.175,0.031 -0.232,0.117 C 11.113,-0.521 10.564,0.489 9.815,1.01 8.977,1.588 7.793,1.646 7.332,1.646 H 2.481 v -7.65 h 2.252 c 0.548,0 1.271,0.084 1.877,0.953 0.231,0.344 0.548,0.979 0.664,2.194 0.029,0.086 0.085,0.115 0.173,0.115 h 0.232 c 0.057,0 0.142,-0.029 0.142,-0.174 v -7.42 c 0,-0.086 -0.085,-0.143 -0.142,-0.143 H 7.447 c -0.088,0 -0.144,0.028 -0.173,0.143 -0.145,1.184 -0.404,1.79 -0.664,2.165 -0.606,0.866 -1.329,0.954 -1.877,0.954 H 2.481 v -6.813 c 0,-2.107 2.57,-2.107 3.667,-2.107 1.904,0 4.071,0.028 5.514,1.213 0.894,0.75 1.673,2.136 1.758,3.752 0,0.115 0.088,0.201 0.176,0.201 h 0.142 c 0.147,0 0.203,-0.144 0.261,-0.23 0.259,-0.52 0.434,-1.56 0.434,-2.252 0,-0.895 -0.377,-2.049 -1.013,-2.713 -1.152,-1.184 -3.201,-1.184 -4.588,-1.184 -1.473,0 -3.926,0.059 -4.821,0.116 -1.096,0.058 -1.875,0.146 -2.741,0.146 -1.241,0 -2.858,-0.232 -3.753,-0.262 -0.404,-0.028 -0.433,0.174 -0.433,0.348 v 0.173 c 0,0.143 0.029,0.345 0.375,0.345 0.52,0 1.097,-0.029 1.645,0.201 0.78,0.347 0.896,0.926 0.896,1.791 z" /></g><g
           transform="translate(118.7495,44.8096)"
           id="g48"><path
             id="path50"
             style="fill:#ffffff;fill-opacity:1;fill-rule:nonzero;stroke:none"
             d="m 0,0 -2.597,-6.58 c -0.088,-0.202 -0.23,-0.578 -0.23,-1.099 0,-0.316 0.028,-0.691 0.634,-0.836 0.288,-0.056 0.605,-0.056 0.605,-0.288 v -0.174 c 0,-0.202 -0.233,-0.202 -0.346,-0.202 -0.577,0.03 -1.3,0.202 -1.848,0.202 -0.317,0 -0.634,-0.057 -0.951,-0.115 -0.318,-0.057 -0.605,-0.087 -0.953,-0.087 -0.087,0 -0.291,0 -0.291,0.174 v 0.174 c 0,0.374 0.953,0.059 1.619,1.5 L 0.23,2.802 0.52,3.089 H 0.722 L 1.009,2.802 5.195,-7.505 c 0.721,-1.731 1.56,-0.289 1.56,-1.326 v -0.174 c 0,-0.058 -0.058,-0.174 -0.318,-0.174 -0.406,0 -0.78,0.03 -1.183,0.087 -0.403,0.058 -0.839,0.115 -1.243,0.115 -0.405,0 -0.807,-0.057 -1.21,-0.115 -0.29,-0.028 -0.549,-0.087 -0.866,-0.087 -0.09,0 -0.319,0 -0.319,0.174 v 0.174 c 0,0.26 0.262,0.23 0.462,0.23 0.662,-0.029 0.982,0.606 0.723,1.327 L 0.173,0 Z" /></g><g
           transform="translate(137.6567,47.4375)"
           id="g52"><path
             id="path54"
             style="fill:#ffffff;fill-opacity:1;fill-rule:nonzero;stroke:none"
             d="m 0,0 -0.03,-0.26 c -0.289,-0.29 -0.432,-0.692 -0.432,-1.039 v -8.719 c 0,-0.837 0.2,-1.24 1.5,-1.211 0.115,0 0.291,0 0.291,-0.202 v -0.174 c 0,-0.172 -0.202,-0.202 -0.291,-0.202 -0.375,0 -0.749,0.059 -1.3,0.116 -0.604,0.058 -0.951,0.086 -1.182,0.086 -0.229,0 -0.579,-0.028 -1.185,-0.086 -0.548,-0.057 -0.922,-0.116 -1.296,-0.116 -0.088,0 -0.29,0.03 -0.29,0.202 v 0.174 c 0,0.202 0.173,0.202 0.29,0.202 1.296,-0.029 1.499,0.374 1.499,1.211 v 7.045 h -0.145 c -2.684,-2.974 -5.221,-6.004 -7.649,-9.094 l -0.203,-0.173 h -0.257 l -0.202,0.232 v 9.842 c 0,0.838 -0.203,1.243 -1.504,1.214 -0.114,0 -0.287,0 -0.287,0.203 v 0.171 c 0,0.175 0.202,0.201 0.287,0.201 0.377,0 0.752,-0.057 1.301,-0.113 0.605,-0.06 0.953,-0.088 1.183,-0.088 0.231,0 0.577,0.028 1.182,0.088 0.55,0.056 0.928,0.113 1.301,0.113 0.088,0 0.29,-0.026 0.29,-0.201 v -0.171 c 0,-0.203 -0.174,-0.203 -0.29,-0.203 -1.301,0.029 -1.5,-0.376 -1.5,-1.214 v -6.667 h 0.146 c 1.21,1.646 2.249,2.916 3.922,4.821 3.034,3.462 3.958,4.041 4.589,4.186 l 0.116,-0.059 z" /></g><g
           transform="translate(148.6802,35.8047)"
           id="g56"><path
             id="path58"
             style="fill:#ffffff;fill-opacity:1;fill-rule:nonzero;stroke:none"
             d="m 0,0 c -0.922,-0.406 -1.673,-0.52 -2.567,-0.52 -2.224,0 -3.58,0.838 -4.331,1.559 -0.922,0.895 -1.614,2.253 -1.614,4.244 0,2.338 0.921,4.011 2.192,5.051 1.009,0.838 2.309,1.27 3.636,1.27 0.78,0 1.532,-0.202 2.111,-0.549 0.776,-0.461 1.15,-1.153 1.15,-1.819 0,-0.806 -0.577,-1.56 -1.557,-1.56 -0.664,0 -1.417,0.405 -1.417,1.301 0,0.75 0.635,1.242 1.445,1.242 -0.402,0.402 -0.81,0.519 -1.385,0.519 -0.808,0 -1.845,-0.23 -2.685,-1.244 -0.836,-1.008 -1.181,-2.479 -1.181,-3.778 0,-1.445 0.403,-2.686 1.04,-3.523 0.721,-0.953 1.902,-1.588 3.232,-1.588 0.692,0 1.412,0.202 1.962,0.434 C 0.81,1.357 1.069,1.645 1.272,1.645 1.443,1.645 1.649,1.5 1.619,1.24 1.561,1.096 1.33,0.576 0,0" /></g><g
           transform="translate(159.1313,43.253)"
           id="g60"><path
             id="path62"
             style="fill:#ffffff;fill-opacity:1;fill-rule:nonzero;stroke:none"
             d="M 0,0 C 0,0.633 -0.146,1.528 -0.493,2.136 -1.038,3.087 -1.791,3.29 -2.598,3.29 -3.349,3.29 -4.014,3.087 -4.677,2.365 -5.226,1.761 -5.63,0.865 -5.771,0 Z m -5.918,-0.867 c -0.058,-1.587 0.086,-3.06 0.897,-4.301 0.577,-0.867 1.585,-1.82 3.345,-1.82 0.782,0 1.618,0.203 2.311,0.549 0.145,0.086 0.434,0.231 0.981,0.578 0.232,0 0.373,-0.117 0.433,-0.318 C 2.02,-6.382 1.904,-6.728 0.865,-7.275 0.056,-7.708 -1.068,-7.968 -2.281,-7.968 c -1.906,0 -3.609,0.52 -4.85,2.165 -0.779,1.038 -1.097,2.135 -1.097,3.434 0,1.846 0.637,3.493 1.59,4.619 1.354,1.589 3,1.906 4.156,1.906 1.588,0 2.597,-0.665 3.205,-1.3 C 1.297,2.25 1.962,1.124 1.962,0 v -0.462 c 0,-0.232 -0.173,-0.405 -0.346,-0.405 z" /></g><g
           transform="translate(170.8491,43.253)"
           id="g64"><path
             id="path66"
             style="fill:#ffffff;fill-opacity:1;fill-rule:nonzero;stroke:none"
             d="M 0,0 C 0,0.633 -0.143,1.528 -0.49,2.136 -1.037,3.087 -1.789,3.29 -2.598,3.29 -3.348,3.29 -4.014,3.087 -4.677,2.365 -5.223,1.761 -5.63,0.865 -5.771,0 Z m -5.915,-0.867 c -0.058,-1.587 0.084,-3.06 0.895,-4.301 0.577,-0.867 1.586,-1.82 3.346,-1.82 0.781,0 1.619,0.203 2.311,0.549 0.143,0.086 0.431,0.231 0.981,0.578 0.233,0 0.376,-0.117 0.435,-0.318 -0.03,-0.203 -0.144,-0.549 -1.185,-1.096 -0.809,-0.433 -1.936,-0.693 -3.145,-0.693 -1.907,0 -3.609,0.52 -4.853,2.165 -0.778,1.038 -1.095,2.135 -1.095,3.434 0,1.846 0.635,3.493 1.586,4.619 1.359,1.589 3.004,1.906 4.16,1.906 1.586,0 2.596,-0.665 3.204,-1.3 C 1.299,2.25 1.964,1.124 1.964,0 v -0.462 c 0,-0.232 -0.173,-0.405 -0.346,-0.405 z" /></g><g
           transform="translate(177.7788,37.9102)"
           id="g68"><path
             id="path70"
             style="fill:#ffffff;fill-opacity:1;fill-rule:nonzero;stroke:none"
             d="m 0,0 c 0,-0.721 0.258,-1.414 2.047,-1.414 2.657,0 3.004,1.385 3.004,2.398 0,0.661 -0.029,1.383 -0.839,1.962 -0.691,0.461 -1.5,0.49 -2.25,0.49 H 1.444 L 1.24,3.666 V 3.898 L 1.444,4.129 C 2.252,4.215 3.029,4.244 3.606,4.764 4.041,5.141 4.33,5.774 4.33,6.496 4.33,6.932 4.212,7.479 3.694,7.912 3.089,8.402 2.335,8.371 1.789,8.371 1.095,8.371 0.605,8.346 0,8.257 Z m -1.963,7.361 c 0,0.838 -0.203,1.244 -1.504,1.214 -0.116,0 -0.285,0 -0.285,0.203 v 0.171 c 0,0.175 0.2,0.201 0.285,0.201 0.377,0 0.75,-0.056 1.301,-0.113 0.606,-0.06 0.954,-0.088 1.213,-0.088 2.654,0 1.616,0.201 3.581,0.201 1.815,0 2.597,-0.492 2.917,-0.72 C 6.061,8.026 6.493,7.334 6.493,6.582 6.493,5.516 5.659,4.389 4.24,3.955 V 3.809 C 5.022,3.754 5.803,3.436 6.377,2.946 7.1,2.34 7.36,1.617 7.36,0.867 7.36,-0.201 6.723,-1.066 5.917,-1.558 5.081,-2.049 3.55,-2.279 2.567,-2.279 c -0.575,0 -0.922,0.058 -1.962,0.115 -0.75,0.029 -1.125,0.086 -1.558,0.086 -0.81,0 -1.876,-0.201 -2.514,-0.201 -0.085,0 -0.285,0.029 -0.285,0.201 v 0.175 c 0,0.202 0.169,0.202 0.285,0.202 1.301,-0.029 1.504,0.373 1.504,1.211 z" /></g><g
           transform="translate(203.73,35.8321)"
           id="g72"><path
             id="path74"
             style="fill:#ffffff;fill-opacity:1;fill-rule:nonzero;stroke:none"
             d="m 0,0 c 0,-0.172 -0.203,-0.201 -0.291,-0.201 -0.377,0 -0.75,0.058 -1.299,0.115 C -2.196,-0.027 -2.541,0 -2.773,0 c -0.23,0 -0.579,-0.027 -1.185,-0.086 -0.546,-0.057 -0.922,-0.115 -1.299,-0.115 -0.088,0 -0.288,0.029 -0.288,0.201 v 0.175 c 0,0.202 0.173,0.202 0.288,0.202 1.299,-0.029 1.502,0.373 1.502,1.211 v 7.851 c 0,0.838 -0.203,1.244 -1.502,1.214 -0.115,0 -0.288,0 -0.288,0.203 v 0.171 c 0,0.175 0.2,0.202 0.288,0.202 0.377,0 0.753,-0.057 1.299,-0.114 0.606,-0.059 0.955,-0.088 1.185,-0.088 0.232,0 0.577,0.029 1.183,0.088 0.549,0.057 0.922,0.114 1.299,0.114 C -0.203,11.229 0,11.202 0,11.027 V 10.856 C 0,10.653 -0.174,10.653 -0.291,10.653 -1.59,10.683 -1.792,10.277 -1.792,9.439 V 1.588 c 0,-0.838 0.202,-1.24 1.501,-1.211 0.117,0 0.291,0 0.291,-0.202 z m -12.299,6.148 c 0.837,0.319 1.703,0.406 2.251,0.406 1.615,0 3.781,-0.81 3.781,-3.177 0,-1.384 -0.778,-2.25 -1.502,-2.713 -0.836,-0.549 -2.367,-0.865 -3.635,-0.865 -0.637,0 -1.299,0.087 -1.906,0.144 -0.49,0.03 -0.838,0.057 -1.124,0.057 -0.232,0 -0.58,-0.027 -1.184,-0.086 -0.55,-0.057 -0.924,-0.115 -1.3,-0.115 -0.086,0 -0.289,0.029 -0.289,0.201 v 0.175 c 0,0.202 0.174,0.202 0.289,0.202 1.3,-0.029 1.503,0.373 1.503,1.211 v 7.851 c 0,0.838 -0.203,1.244 -1.503,1.214 -0.115,0 -0.289,0 -0.289,0.203 v 0.171 c 0,0.175 0.203,0.202 0.289,0.202 0.376,0 0.75,-0.057 1.3,-0.114 0.604,-0.059 0.952,-0.088 1.184,-0.088 0.229,0 0.575,0.029 1.184,0.088 0.547,0.057 0.924,0.114 1.297,0.114 0.089,0 0.291,-0.027 0.291,-0.202 v -0.171 c 0,-0.203 -0.176,-0.203 -0.291,-0.203 -1.297,0.03 -1.498,-0.376 -1.498,-1.214 V 1.936 c 0,-1.272 1.384,-1.272 2.047,-1.272 0.633,0 1.618,-0.028 2.309,0.865 0.434,0.58 0.519,1.243 0.519,1.736 0,0.459 0.028,1.123 -0.462,1.702 -0.403,0.492 -1.039,0.748 -1.616,0.748 -0.405,0 -1.21,-0.144 -1.558,-0.23 l -0.262,0.173 -0.027,0.174 z" /></g><g
           transform="translate(213.6587,45.3887)"
           id="g76"><path
             id="path78"
             style="fill:#ffffff;fill-opacity:1;fill-rule:nonzero;stroke:none"
             d="m 0,0 c 0.227,0.287 0.259,0.488 0.259,0.635 0,0.402 -0.463,0.433 -0.579,0.462 -0.317,0 -0.375,0.029 -0.375,0.258 v 0.116 c 0,0.088 0.058,0.201 0.346,0.201 0.375,0 0.692,-0.113 1.212,-0.142 0.492,-0.059 0.637,-0.059 0.78,-0.059 0.233,0 0.604,0.028 0.838,0.059 0.521,0.085 0.693,0.142 0.982,0.142 0.203,0 0.345,-0.084 0.345,-0.173 V 1.326 C 3.808,1.126 3.607,1.097 3.463,1.068 3.087,0.981 2.565,0.75 2.222,0.488 2.018,0.346 1.757,0.114 1.095,-0.607 l -2.597,-2.831 3.664,-4.589 c 0.347,-0.432 0.692,-0.664 0.867,-0.78 0.377,-0.229 0.694,-0.317 1.038,-0.373 0.145,-0.029 0.319,-0.029 0.319,-0.261 v -0.172 c 0,-0.145 -0.26,-0.145 -0.319,-0.145 -0.488,0.029 -0.576,0 -1.415,0.087 -0.721,0.087 -1.009,0.114 -1.327,0.114 -0.576,0 -1.157,-0.114 -1.704,-0.172 -0.144,-0.029 -0.285,-0.029 -0.431,-0.029 -0.289,0 -0.347,0.115 -0.347,0.201 v 0.175 c 0,0.258 0.289,0.202 0.434,0.202 C -0.118,-9.209 0,-8.893 0,-8.72 c 0,0.175 -0.118,0.32 -0.232,0.462 l -2.57,3.35 -2.107,-2.829 c -0.144,-0.202 -0.434,-0.693 -0.434,-0.923 0,-0.52 0.577,-0.52 0.779,-0.52 0.202,0 0.375,-0.086 0.375,-0.202 v -0.175 c 0,-0.201 -0.173,-0.201 -0.315,-0.201 -0.374,0 -0.666,0.029 -1.069,0.087 -0.433,0.087 -0.721,0.114 -1.009,0.114 -0.26,0 -0.521,-0.056 -0.983,-0.114 -0.518,-0.058 -0.779,-0.087 -1.097,-0.087 -0.086,0 -0.318,0 -0.318,0.174 v 0.174 c 0,0.173 0.086,0.173 0.461,0.23 0.375,0.056 0.751,0.373 0.867,0.46 0.202,0.175 0.492,0.462 1.096,1.186 l 2.916,3.491 -2.685,3.724 c -0.287,0.376 -0.75,0.867 -1.125,1.097 -0.261,0.146 -0.663,0.29 -1.038,0.319 -0.145,0 -0.288,0.029 -0.288,0.203 v 0.171 c 0,0.201 0.085,0.201 0.232,0.201 0.461,0 0.833,-0.057 1.24,-0.113 0.431,-0.06 0.891,-0.088 1.354,-0.088 0.607,0 1.041,0.059 1.415,0.117 0.288,0.057 0.608,0.084 0.955,0.084 0.085,0 0.316,0 0.316,-0.173 V 1.326 c 0,-0.146 0,-0.2 -0.376,-0.289 -0.258,-0.056 -0.549,-0.056 -0.549,-0.432 0,-0.259 0.204,-0.634 0.347,-0.865 l 1.674,-2.367 z" /></g><g
           transform="translate(93.0283,7.2617)"
           id="g80"><path
             id="path82"
             style="fill:#ffffff;fill-opacity:1;fill-rule:nonzero;stroke:none"
             d="m 0,0 c 0,0.348 -0.028,0.598 -0.28,0.721 -0.175,0.08 -0.387,0.064 -0.894,0.08 -0.053,0 -0.173,0 -0.173,0.159 v 0.08 c 0,0.079 0.013,0.159 0.173,0.159 0.64,0.015 1.613,0.069 2.187,1.012 h 0.119 l 0.013,-7.928 c 0,-0.4 0.04,-0.666 0.415,-0.825 0.251,-0.108 0.518,-0.095 0.759,-0.095 0.158,0 0.173,-0.093 0.173,-0.161 v -0.079 c 0,-0.065 -0.015,-0.159 -0.173,-0.159 -0.173,0 -0.321,0.027 -0.708,0.054 -0.479,0.04 -0.746,0.066 -1.012,0.066 -0.958,0 -0.547,-0.174 -1.773,-0.12 -0.173,0.013 -0.173,0.054 -0.173,0.173 v 0.065 c 0,0.068 0.013,0.161 0.173,0.161 0.24,0 0.507,-0.013 0.76,0.095 C -0.053,-6.383 0,-6.117 0,-5.717 Z" /></g><g
           transform="translate(99.3823,4.5967)"
           id="g84"><path
             id="path86"
             style="fill:#ffffff;fill-opacity:1;fill-rule:nonzero;stroke:none"
             d="m 0,0 c 0.347,-0.414 0.934,-0.839 1.854,-0.839 0.826,0 1.384,0.319 1.852,0.932 0.36,0.479 0.613,1.066 0.613,1.813 0,0.812 -0.241,1.467 -0.613,1.906 C 3.358,4.226 2.759,4.653 1.854,4.653 0.948,4.653 0.347,4.226 0,3.812 -0.387,3.358 -0.614,2.733 -0.614,1.906 -0.614,1.079 -0.387,0.452 0,0 M 4.412,0.319 C 4.211,-0.079 3.931,-0.466 3.465,-0.811 2.865,-1.267 2.253,-1.439 1.534,-1.439 c -1.053,0 -1.921,0.36 -2.468,0.905 -0.425,0.428 -0.839,1.173 -0.839,2.199 0,1.947 1.612,3.52 3.692,3.52 1.373,0 2.292,-0.682 2.771,-1.239 C 5.651,2.812 5.717,1.24 5.717,0.56 c 0,-0.8 -0.079,-1.84 -0.599,-2.892 -0.799,-1.64 -2.174,-2.265 -3.613,-2.265 -0.678,0 -1.705,0.118 -2.544,0.76 l -0.014,0.134 0.054,0.092 0.105,0.053 c 0.771,-0.399 1.439,-0.56 2.174,-0.56 0.785,0 1.652,0.187 2.358,1.053 0.706,0.865 0.919,2.146 0.879,3.412 z" /></g><g
           transform="translate(114.7846,4.9033)"
           id="g88"><path
             id="path90"
             style="fill:#ffffff;fill-opacity:1;fill-rule:nonzero;stroke:none"
             d="m 0,0 c 0,3.358 -1.587,4.386 -3.079,4.386 -1.08,0 -3.104,-0.534 -3.104,-4.386 0,-3.839 1.996,-4.398 3.092,-4.398 C -2,-4.398 0,-3.839 0,0 m -7.37,0 c 0,3.024 2.12,4.878 4.279,4.878 2.184,0 4.278,-1.865 4.278,-4.878 0,-3 -2.094,-4.903 -4.278,-4.903 -2.173,0 -4.279,1.89 -4.279,4.903" /></g><g
           transform="translate(123.0532,1.3692)"
           id="g92"><path
             id="path94"
             style="fill:#ffffff;fill-opacity:1;fill-rule:nonzero;stroke:none"
             d="m 0,0 c 0.283,0 0.522,0.027 0.778,0.282 0.157,0.159 0.291,0.413 0.358,0.6 L 1.228,0.977 H 1.319 L 1.416,0.882 1.081,-0.784 c -0.037,-0.21 -0.065,-0.36 -0.357,-0.36 h -5.652 c -0.188,0 -0.294,0.187 -0.041,0.494 0.36,0.439 0.56,0.478 1.414,1.333 0.425,0.411 1.001,1.039 1.424,1.557 1.226,1.469 1.721,2.36 1.721,3.508 0,1.145 -0.613,1.945 -1.758,1.945 -0.787,0 -1.603,-0.361 -2.348,-1.787 L -4.675,5.84 -4.796,5.881 -4.834,6.094 c 0.225,0.639 0.704,1.398 1.356,1.839 0.601,0.399 1.228,0.479 1.774,0.479 1.654,0 2.559,-1.013 2.559,-2.334 C 0.855,5.279 0.576,4.588 0.242,4.054 -0.21,3.32 -0.919,2.629 -1.783,1.775 -2.476,1.094 -2.877,0.695 -3.461,0 Z" /></g><g
           transform="translate(57.728,74.7046)"
           id="g96"><path
             id="path98"
             style="fill:#ffffff;fill-opacity:1;fill-rule:nonzero;stroke:none"
             d="M 0,0 H 0.65 L 3.919,-4.452 7.061,0 H 7.675 V -8.115 H 7.037 v 7.117 L 3.919,-5.38 H 3.814 L 0.64,-1.034 V -8.115 H 0 Z" /></g><g
           transform="translate(75.9726,69.9502)"
           id="g100"><path
             id="path102"
             style="fill:#ffffff;fill-opacity:1;fill-rule:nonzero;stroke:none"
             d="M 0,0 H 3.374 L 1.693,3.94 Z M 1.45,4.822 H 1.972 L 5.507,-3.36 H 4.822 L 3.64,-0.603 H -0.254 L -1.437,-3.36 h -0.647 z" /></g><g
           transform="translate(89.9653,74.7046)"
           id="g104"><path
             id="path106"
             style="fill:#ffffff;fill-opacity:1;fill-rule:nonzero;stroke:none"
             d="M 0,0 H 4.475 V -0.603 H 0.637 V -8.115 H 0 Z" /></g><g
           transform="translate(102.727,69.9502)"
           id="g108"><path
             id="path110"
             style="fill:#ffffff;fill-opacity:1;fill-rule:nonzero;stroke:none"
             d="M 0,0 H 3.373 L 1.692,3.94 Z M 1.449,4.822 H 1.971 L 5.507,-3.36 H 4.822 L 3.64,-0.603 H -0.256 L -1.437,-3.36 h -0.65 z" /></g><g
           transform="translate(115.9399,67.6778)"
           id="g112"><path
             id="path114"
             style="fill:#ffffff;fill-opacity:1;fill-rule:nonzero;stroke:none"
             d="m 0,0 0.358,0.431 c 0.544,-0.65 1.486,-1.022 2.156,-1.022 1.263,0 2.12,0.685 2.12,1.832 0,0.927 -0.657,1.52 -1.726,1.52 H 1.899 v 0.602 h 0.94 c 0.743,0 1.484,0.684 1.484,1.624 0,1.029 -0.741,1.539 -1.705,1.539 C 1.716,6.526 1.111,6.179 0.602,5.6 L 0.232,6.005 C 0.774,6.699 1.668,7.129 2.666,7.129 4.043,7.129 4.96,6.365 4.96,5.033 4.96,4.301 4.543,3.491 3.732,3.119 V 3.084 C 4.727,2.947 5.273,2.111 5.273,1.183 5.273,-0.312 4.055,-1.193 2.561,-1.193 1.483,-1.193 0.429,-0.649 0,0" /></g><g
           transform="translate(130.3149,66.5899)"
           id="g116"><path
             id="path118"
             style="fill:#ffffff;fill-opacity:1;fill-rule:nonzero;stroke:none"
             d="M 0,0 V 8.115 H 0.634 V 1.041 L 6.097,8.115 H 6.663 V 0 H 6.026 V 7.07 L 0.566,0 Z" /></g><g
           transform="translate(152.2114,70.4258)"
           id="g120"><path
             id="path122"
             style="fill:#ffffff;fill-opacity:1;fill-rule:nonzero;stroke:none"
             d="m 0,0 h -5.068 v -3.836 h -0.638 v 8.115 h 0.638 V 0.602 H 0 v 3.677 h 0.636 v -8.115 l -0.636,0 z" /></g><g
           transform="translate(65.6474,16.6738)"
           id="g124"><path
             id="path126"
             style="fill:#ffffff;fill-opacity:1;fill-rule:nonzero;stroke:none"
             d="m 0,0 c -0.64,-0.64 -1.786,-1.027 -2.893,-1.027 -2.772,0 -4.677,1.879 -4.677,4.786 0,2.677 1.758,4.782 4.571,4.782 1.172,0 2.119,-0.291 2.825,-0.878 L -0.52,7.117 c -0.666,0.505 -1.454,0.732 -2.466,0.732 -2.265,0 -3.812,-1.732 -3.812,-4.09 0,-2.452 1.626,-4.093 3.958,-4.093 1.001,0 1.893,0.349 2.546,0.881 z" /></g><g
           transform="translate(70.5879,17.2862)"
           id="g128"><path
             id="path130"
             style="fill:#ffffff;fill-opacity:1;fill-rule:nonzero;stroke:none"
             d="m 0,0 v 1.001 c -0.44,0.318 -0.945,0.478 -1.559,0.478 -0.787,0 -1.614,-0.373 -1.614,-1.251 0,-0.748 0.588,-1.174 1.333,-1.174 1.013,0 1.507,0.506 1.84,0.946 M -3.439,4.051 C -2.878,4.398 -2.238,4.6 -1.533,4.6 0.133,4.6 0.693,3.72 0.693,2.199 V -1.518 H 0 v 0.92 C -0.373,-1.106 -0.96,-1.6 -2.053,-1.6 c -1.106,0 -1.851,0.695 -1.851,1.787 0,1.199 0.985,1.867 2.277,1.867 0.479,0 1.147,-0.108 1.627,-0.454 0,1.427 -0.079,2.344 -1.572,2.344 -0.706,0 -1.147,-0.172 -1.681,-0.466 z" /></g><g
           transform="translate(77.8491,18.4883)"
           id="g132"><path
             id="path134"
             style="fill:#ffffff;fill-opacity:1;fill-rule:nonzero;stroke:none"
             d="m 0,0 h -3.892 v -2.72 h -0.692 v 5.996 h 0.692 V 0.65 H 0 V 3.276 H 0.692 V -2.72 H 0 Z" /></g><g
           transform="translate(82.5776,18.8985)"
           id="g136"><path
             id="path138"
             style="fill:#ffffff;fill-opacity:1;fill-rule:nonzero;stroke:none"
             d="M 0,0 3.198,-3.13 H 2.266 L -0.84,-0.039 2.064,2.866 H 2.959 Z M -1.933,2.866 H -1.24 V -3.13 h -0.693 z" /></g><g
           transform="translate(86.2129,21.7647)"
           id="g140"><path
             id="path142"
             style="fill:#ffffff;fill-opacity:1;fill-rule:nonzero;stroke:none"
             d="M 0,0 H 5.464 V -0.691 H 3.078 V -5.996 H 2.386 v 5.305 l -2.386,0 z" /></g><path
           id="path144"
           style="fill:#ffffff;fill-opacity:1;fill-rule:nonzero;stroke:none"
           d="m 92.795,19.711 h 3.052 v -0.652 h -3.052 z" /><g
           transform="translate(104.9741,24.4024)"
           id="g146"><path
             id="path148"
             style="fill:#ffffff;fill-opacity:1;fill-rule:nonzero;stroke:none"
             d="m 0,0 h -5.784 v -8.634 h -0.732 v 9.327 h 7.25 V -8.634 H 0 Z" /></g><g
           transform="translate(108.5425,19.1934)"
           id="g150"><path
             id="path152"
             style="fill:#ffffff;fill-opacity:1;fill-rule:nonzero;stroke:none"
             d="M 0,0 H 4.316 C 4.29,1.266 3.489,2.037 2.235,2.037 0.906,2.037 0.119,1.172 0,0 M 4.662,-2.692 C 4.116,-3.268 3.253,-3.547 2.45,-3.547 c -1.892,0 -3.182,1.227 -3.182,3.118 0,1.748 1.065,3.121 3.037,3.121 1.545,0 2.717,-1.068 2.717,-2.708 0,-0.224 -0.011,-0.398 -0.039,-0.558 H 0.039 c 0.054,-1.44 1.013,-2.321 2.45,-2.321 0.816,0 1.532,0.309 1.948,0.735 z" /></g><g
           transform="translate(114.1616,21.7647)"
           id="g154"><path
             id="path156"
             style="fill:#ffffff;fill-opacity:1;fill-rule:nonzero;stroke:none"
             d="M 0,0 H 5.463 V -0.691 H 3.079 V -5.996 H 2.386 v 5.305 l -2.386,0 z" /></g><g
           transform="translate(120.9438,19.1934)"
           id="g158"><path
             id="path160"
             style="fill:#ffffff;fill-opacity:1;fill-rule:nonzero;stroke:none"
             d="M 0,0 H 4.319 C 4.291,1.266 3.491,2.037 2.238,2.037 0.906,2.037 0.122,1.172 0,0 m 4.665,-2.692 c -0.546,-0.576 -1.41,-0.855 -2.211,-0.855 -1.893,0 -3.187,1.227 -3.187,3.118 0,1.748 1.067,3.121 3.04,3.121 1.544,0 2.716,-1.068 2.716,-2.708 0,-0.224 -0.013,-0.398 -0.039,-0.558 H 0.04 c 0.055,-1.44 1.012,-2.321 2.452,-2.321 0.814,0 1.533,0.309 1.945,0.735 z" /></g><g
           transform="translate(128.31,20.2969)"
           id="g162"><path
             id="path164"
             style="fill:#ffffff;fill-opacity:1;fill-rule:nonzero;stroke:none"
             d="m 0,0 v -3.451 c 0.626,-0.413 1.227,-0.547 1.865,-0.547 1.452,0 2.4,1.055 2.4,2.52 0,1.427 -0.813,2.412 -2.251,2.412 C 1.173,0.934 0.386,0.496 0,0 M -0.692,1.468 H 0 v -0.8 c 0.455,0.533 1.334,0.921 2.198,0.921 1.734,0 2.801,-1.255 2.801,-3.026 0,-1.827 -1.212,-3.213 -3.079,-3.213 -0.732,0 -1.427,0.146 -1.92,0.507 v -3.051 h -0.692 z" /></g><g
           transform="translate(137.6509,16.2988)"
           id="g166"><path
             id="path168"
             style="fill:#ffffff;fill-opacity:1;fill-rule:nonzero;stroke:none"
             d="m 0,0 c 1.346,0 2.331,1.066 2.331,2.386 0,1.4 -0.825,2.389 -2.278,2.389 -1.373,0 -2.227,-0.962 -2.41,-1.856 C -2.357,1.066 -1.348,0 0,0 M 2.477,8.41 C 1.8,7.398 0.761,7.85 -0.682,7.211 -2.012,6.64 -2.32,5.08 -2.4,3.801 h 0.026 c 0.413,0.999 1.478,1.626 2.586,1.626 1.774,0 2.852,-1.213 2.852,-3.013 0,-1.68 -1.277,-3.066 -3.037,-3.066 -1.881,0 -3.122,1.386 -3.122,3.693 0,1.598 0.231,4.023 2.199,4.836 1.481,0.626 2.375,0.187 2.989,1.055 z" /></g><g
           transform="translate(144.897,15.7686)"
           id="g170"><path
             id="path172"
             style="fill:#ffffff;fill-opacity:1;fill-rule:nonzero;stroke:none"
             d="m 0,0 c -0.878,-2.145 -1.437,-2.666 -2.253,-2.666 -0.382,0 -0.702,0.122 -1.022,0.304 l 0.222,0.535 c 0.228,-0.108 0.468,-0.199 0.707,-0.199 0.614,0 1.052,0.491 1.561,1.705 L -0.652,0 -3.61,5.996 h 0.823 l 2.054,-4.239 0.429,-0.932 c 0.09,0.307 0.212,0.627 0.332,0.961 l 1.612,4.21 h 0.789 z" /></g><g
           transform="translate(149.2524,20.2969)"
           id="g174"><path
             id="path176"
             style="fill:#ffffff;fill-opacity:1;fill-rule:nonzero;stroke:none"
             d="m 0,0 v -3.451 c 0.629,-0.413 1.227,-0.547 1.865,-0.547 1.454,0 2.401,1.055 2.401,2.52 0,1.427 -0.816,2.412 -2.253,2.412 C 1.174,0.934 0.386,0.496 0,0 M -0.693,1.468 H 0 v -0.8 c 0.456,0.533 1.332,0.921 2.2,0.921 1.733,0 2.798,-1.255 2.798,-3.026 0,-1.827 -1.211,-3.213 -3.08,-3.213 -0.729,0 -1.425,0.146 -1.918,0.507 v -3.051 h -0.693 z" /></g><g
           transform="translate(155.9409,21.7647)"
           id="g178"><path
             id="path180"
             style="fill:#ffffff;fill-opacity:1;fill-rule:nonzero;stroke:none"
             d="M 0,0 H 3.612 V -0.653 H 0.694 V -5.996 H 0 Z" /></g><g
           transform="translate(101.5913,127.3174)"
           id="g182"><path
             id="path184"
             style="fill:#ffffff;fill-opacity:1;fill-rule:evenodd;stroke:none"
             d="m 0,0 c 0.277,12.964 3.133,10.492 2.726,12.993 -0.199,1.224 -3.433,0.922 -5.406,0.845 -0.687,0 -2.562,-10e-4 -3.256,-0.004 -4.451,0.586 -4.605,-0.422 -3.914,-2.052 0.393,-0.935 0.875,-2.348 1.123,-3.855 0.525,-3.179 0.689,-9.365 0.809,-13.303 0.068,-2.235 -0.6,-2.786 -1.461,-2.202 0,0 -7.905,5.57 -19.706,15.613 -1.382,1.175 -6.685,6.051 -11.7,5.84 -4.034,-0.17 -6.349,-15.662 -1.712,-17.236 1.785,-0.604 2.136,-0.557 2.51,-1.173 0.185,-0.307 -0.084,-0.316 -0.193,-0.386 -0.142,-0.087 -0.236,-0.182 -0.181,-0.363 0.085,-0.296 0.222,-0.483 0.508,-0.341 0.398,0.195 2.407,0.513 2.407,0.513 2.874,0.396 3.556,-0.677 3.866,-0.137 1.637,2.834 -2.213,3.338 -4.804,3.58 -0.921,0.086 -1.73,-0.126 -2.978,0.372 -2.753,1.09 5.457,11.774 11.329,7.597 4.775,-3.513 9.754,-7.912 10.743,-9.123 0.969,-1.18 0.334,-3.061 -0.174,-3.847 -4.787,-7.444 -3.128,-4.477 -8.229,-11.811 -5.481,-7.879 -12.787,-16.496 -15.911,-19.62 -3.159,-3.157 -4.646,-1.969 -5.08,-3.482 -0.148,-0.504 0.275,-1.341 1.955,-1.389 1.086,-0.04 2.378,0.169 3.387,0.229 1.177,0.071 10.299,0.065 10.888,0.065 2.061,0 2.93,1.217 1.831,2.84 -1.097,1.625 0.259,4.837 7.173,15.177 2.521,3.768 3.749,5.881 8.51,12.35 3.184,4.332 2.639,3.786 5.463,1.94 0.663,-0.434 1.316,-0.725 1.354,-3.807 0.097,-7.535 0.162,-9.281 -0.309,-14.399 -0.282,-3.039 -0.372,-8.32 -1.804,-10.519 -1.117,-1.708 -0.832,-3.941 1.658,-3.943 2.73,0.073 3.036,0.822 7.134,0.359 1.546,-0.173 3.139,-0.675 3.946,0.008 1.221,1.031 0.453,3.029 0,3.936 C 0.022,-33.77 -0.246,-12.551 0,0 m 53.89,-32.617 c -2.855,0.652 -3.469,-0.488 -6.171,-1.618 -1.384,-0.578 -3.185,-1.581 -4.7,-0.068 -0.432,0.433 -2.368,-0.312 -1.843,-1.067 2.827,-2.826 4.17,-2.657 8.316,-1.942 0.817,0.142 3.234,-0.033 2.764,-0.502 -3.207,-3.206 -23.04,-2.372 -25.899,-1.843 -3.888,0.716 -3.944,7.04 -4.306,10.978 -0.419,4.489 -0.789,8.243 -0.81,14.168 0,0.848 0.012,1.177 0.012,2.12 0.024,1.813 0.353,2.164 1.537,2.517 4.115,1.22 14.132,5.37 18.216,4.478 1.679,-0.368 3.374,-3.456 3.719,-1.945 0.194,0.839 0.194,0.923 0.505,2.437 0.485,2.331 1.36,2.513 0.955,3.282 -0.746,1.416 -20.523,-5.857 -22.75,-6.035 -0.853,-0.069 -1.627,0.121 -1.949,0.781 -0.108,0.219 -0.156,0.491 -0.156,0.825 0.107,5.501 0.502,13.878 0.982,16.701 0.169,1.014 0.906,1.06 1.945,1.144 5.047,0.396 9.14,0.339 12.444,0.457 6.295,0 7.235,-0.118 7.498,-1.298 C 44.46,9.774 41.926,10.287 41.56,9.096 41.193,7.902 42.006,7.98 43.196,8 c 1.192,0.02 2.662,0.085 3.622,0.085 2.269,0 7.037,0.811 3.807,3.495 -2.79,2.318 -7.919,2.616 -14.258,2.464 -4.507,-0.108 -10.349,-0.181 -16.598,-0.213 -0.19,-0.004 -0.384,-0.004 -0.578,-0.006 -0.694,0.006 -2.571,0.006 -3.262,0.006 -1.976,0.078 -5.217,0.379 -5.417,-0.847 -0.407,-2.506 2.455,-0.026 2.731,-13.023 0.246,-12.578 -0.022,-33.846 -2.506,-38.817 -0.455,-0.914 -1.224,-2.914 0,-3.952 0.807,-0.684 1.978,-0.005 3.95,-0.005 5.083,0.222 10.561,0.268 16.012,0.238 4.166,-0.031 8.109,-0.078 11.638,-0.135 4.809,-0.08 18.244,-1.103 18.244,1.962 0,1.796 -1.474,6.94 -6.691,8.131" /></g></g></g></g></svg>