<?xml version="1.0" encoding="utf-8"?>
<!-- Generator: Adobe Illustrator 16.0.1, SVG Export Plug-In . SVG Version: 6.00 Build 0)  -->
<!DOCTYPE svg PUBLIC "-//W3C//DTD SVG 1.1//EN" "http://www.w3.org/Graphics/SVG/1.1/DTD/svg11.dtd">
<svg version="1.1"
	 id="svg2" xmlns:rdf="http://www.w3.org/1999/02/22-rdf-syntax-ns#" xmlns:cc="http://creativecommons.org/ns#" xmlns:svg="http://www.w3.org/2000/svg" xmlns:dc="http://purl.org/dc/elements/1.1/"
	 xmlns="http://www.w3.org/2000/svg" xmlns:xlink="http://www.w3.org/1999/xlink" x="0px" y="0px" width="114.986px"
	 height="77.768px" viewBox="0 0 114.986 77.768" enable-background="new 0 0 114.986 77.768" xml:space="preserve">
<g id="g12" transform="translate(6.4017,7.4511)">
	<path id="path14" fill="#5E4644" d="M2.134,60.382l-3.798,5.38l-3.953-5.38h-0.785v9.81h0.771v-8.563l3.839,5.256h0.128
		l3.769-5.298v8.604h0.771v-9.81H2.134z"/>
</g>
<g id="g16" transform="translate(17.8569,7.5123)">
	<path id="path18" fill="#5E4644" d="M5.952,60.239L1.678,70.13H2.46l1.431-3.334h4.707l1.429,3.334h0.828l-4.271-9.891H5.952z
		 M6.245,61.302l2.031,4.763H4.198L6.245,61.302z"/>
</g>
<g id="g20" transform="translate(29.2275,7.4511)">
	<path id="path22" fill="#5E4644" d="M9.743,60.382v9.81h0.769v-9.084h4.639v-0.726H9.743z"/>
</g>
<g id="g24" transform="translate(42.1119,7.5123)">
	<path id="path26" fill="#5E4644" d="M14.037,60.239L9.763,70.13h0.785l1.428-3.334h4.711l1.428,3.334h0.828l-4.274-9.891H14.037z
		 M14.332,61.302l2.029,4.763h-4.076L14.332,61.302z"/>
</g>
<rect x="0" y="0" fill="none" width="114.985" height="77.768"/>
<g id="g30">
	<g id="g36" transform="translate(52.7774,1.083)">
		<path id="path38" fill="#5E4644" d="M17.592,75.241l0.434-0.52c0.657,0.786,1.796,1.235,2.605,1.235
			c1.529,0,2.563-0.828,2.563-2.215c0-1.121-0.795-1.836-2.086-1.836h-1.219v-0.729h1.135c0.897,0,1.795-0.826,1.795-1.961
			c0-1.244-0.897-1.863-2.062-1.863c-1.091,0-1.821,0.42-2.438,1.12l-0.446-0.489c0.654-0.841,1.736-1.358,2.941-1.358
			c1.665,0,2.773,0.924,2.773,2.532c0,0.887-0.504,1.866-1.484,2.315v0.041c1.201,0.169,1.861,1.178,1.861,2.299
			c0,1.806-1.471,2.872-3.278,2.872C19.385,76.685,18.111,76.028,17.592,75.241"/>
	</g>
	<g id="g40" transform="translate(65.8106,0.0947)">
		<path id="path42" fill="#5E4644" d="M21.937,77.547V67.74h0.767v8.546l6.603-8.546h0.686v9.808h-0.77V69l-6.601,8.547H21.937z"/>
	</g>
	<g id="g44" transform="translate(85.6631,3.5742)">
		<path id="path46" fill="#5E4644" d="M28.554,69.428h-6.127v4.641h-0.771v-9.81h0.771v4.442h6.127v-4.442h0.768v9.81h-0.768V69.428
			z"/>
	</g>
	<g id="g48" transform="translate(38.6914,48.3164)">
		<path id="path50" fill="#5E4644" d="M12.897-34.97c0.263-12.292,2.972-9.948,2.583-12.317c-0.186-1.161-3.252-0.876-5.122-0.804
			c-0.654,0-2.432,0.003-3.091,0.004c-4.22-0.555-4.363,0.402-3.709,1.948c0.372,0.885,0.831,2.224,1.065,3.653
			c0.497,3.018,0.653,8.88,0.767,12.613c0.063,2.121-0.57,2.643-1.387,2.088c0,0-7.494-5.28-18.684-14.803
			c-1.31-1.114-6.339-5.737-11.092-5.537c-3.827,0.162-6.021,14.85-1.624,16.343c1.693,0.571,2.023,0.527,2.378,1.111
			c0.177,0.29-0.078,0.299-0.181,0.366c-0.137,0.084-0.225,0.174-0.174,0.344c0.081,0.281,0.211,0.457,0.482,0.324
			c0.378-0.188,2.283-0.485,2.283-0.485c2.723-0.376,3.372,0.641,3.665,0.128c1.554-2.688-2.098-3.166-4.556-3.394
			c-0.871-0.081-1.639,0.12-2.823-0.353c-2.609-1.033,5.175-11.162,10.743-7.202c4.526,3.329,9.245,7.503,10.186,8.649
			c0.92,1.118,0.315,2.901-0.167,3.646c-4.536,7.059-2.964,4.247-7.802,11.2c-5.197,7.471-12.122,15.64-15.088,18.602
			c-2.993,2.993-4.402,1.866-4.813,3.301c-0.141,0.479,0.261,1.272,1.853,1.318c1.03,0.038,2.255-0.162,3.213-0.217
			c1.116-0.068,9.763-0.063,10.323-0.063c1.953,0,2.777-1.153,1.735-2.693c-1.041-1.539,0.246-4.586,6.802-14.39
			c2.388-3.573,3.554-5.577,8.068-11.709c3.02-4.109,2.501-3.591,5.181-1.842c0.627,0.413,1.247,0.689,1.283,3.611
			c0.092,7.143,0.153,8.8-0.292,13.651c-0.27,2.882-0.354,7.891-1.71,9.975c-1.06,1.62-0.789,3.736,1.569,3.737
			c2.59-0.067,2.879-0.778,6.765-0.339c1.465,0.163,2.977,0.639,3.741-0.008c1.156-0.979,0.431-2.873,0-3.733
			C12.92-2.949,12.664-23.069,12.897-34.97 M63.993-4.045c-2.708-0.616-3.29,0.464-5.851,1.534c-1.312,0.55-3.02,1.5-4.456,0.065
			c-0.409-0.41-2.245,0.295-1.749,1.012c2.684,2.679,3.954,2.52,7.887,1.841c0.771-0.135,3.065,0.031,2.618,0.477
			c-3.04,3.04-21.844,2.25-24.556,1.748c-3.686-0.68-3.738-6.677-4.083-10.409c-0.396-4.256-0.748-7.815-0.768-13.434
			c0-0.804,0.012-1.117,0.012-2.009c0.025-1.72,0.334-2.052,1.457-2.386c3.903-1.158,13.399-5.095,17.272-4.248
			c1.592,0.349,3.198,3.276,3.526,1.845c0.183-0.796,0.183-0.875,0.479-2.311c0.459-2.21,1.288-2.383,0.904-3.114
			c-0.708-1.34-19.458,5.557-21.569,5.725c-0.808,0.065-1.544-0.115-1.85-0.74c-0.1-0.209-0.146-0.465-0.146-0.782
			c0.102-5.217,0.477-13.159,0.931-15.835c0.16-0.963,0.859-1.007,1.845-1.085c4.785-0.378,8.665-0.322,11.8-0.434
			c5.969,0,6.858,0.109,7.109,1.231c0.245,1.116-2.157,0.633-2.502,1.761c-0.349,1.132,0.423,1.057,1.551,1.038
			s2.522-0.081,3.434-0.081c2.15,0,6.672-0.769,3.609-3.313c-2.646-2.198-7.508-2.479-13.521-2.336
			c-4.271,0.103-9.808,0.171-15.734,0.203c-0.182,0.002-0.365,0.002-0.551,0.005c-0.656-0.005-2.438-0.007-3.092-0.007
			c-1.873-0.074-4.946-0.358-5.135,0.803c-0.387,2.379,2.327,0.026,2.588,12.348c0.235,11.927-0.022,32.091-2.376,36.806
			c-0.431,0.864-1.161,2.764,0,3.744c0.765,0.652,1.875,0.007,3.747,0.007c4.818-0.21,10.012-0.254,15.179-0.226
			c3.952,0.03,7.689,0.073,11.037,0.128c4.559,0.076,17.297,1.046,17.297-1.858C70.337,1.964,68.94-2.914,63.993-4.045"/>
	</g>
</g>
</svg>
