<?xml version="1.0" encoding="utf-8"?>
<!-- Generator: Adobe Illustrator 16.0.1, SVG Export Plug-In . SVG Version: 6.00 Build 0)  -->
<!DOCTYPE svg PUBLIC "-//W3C//DTD SVG 1.1//EN" "http://www.w3.org/Graphics/SVG/1.1/DTD/svg11.dtd">
<svg version="1.1" id="Слой_1" xmlns="http://www.w3.org/2000/svg" xmlns:xlink="http://www.w3.org/1999/xlink" x="0px" y="0px"
	 width="1065.11px" height="350.995px" viewBox="0 0 1065.11 350.995" enable-background="new 0 0 1065.11 350.995"
	 xml:space="preserve">
<polygon fill="#FFFFFF" points="196.708,285.044 156.126,73.419 135.364,119.502 119.153,119.502 98.397,73.419 57.825,285.044 
	41.926,285.044 88.335,41.611 101.316,41.611 127.266,101.332 153.211,41.611 166.187,41.611 212.608,285.044 "/>
<path fill="#FFFFFF" d="M654.551,175.656c0,15.801-1.583,30.675-4.707,44.636c-3.142,13.951-7.412,26.076-12.824,36.346
	c-5.421,10.283-11.628,18.393-18.663,24.338c-7.026,5.957-14.653,8.938-22.878,8.938c-8.003,0-15.58-2.98-22.73-8.938
	c-7.143-5.945-13.355-14.055-18.657-24.338c-5.302-10.27-9.528-22.395-12.66-36.346c-3.133-13.961-4.711-28.835-4.711-44.636
	c0-15.789,1.578-30.668,4.711-44.628c3.132-13.944,7.358-26.068,12.66-36.347c5.302-10.278,11.515-18.441,18.657-24.509
	c7.15-6.052,14.728-9.081,22.73-9.081c8.225,0,15.852,3.029,22.878,9.081c7.035,6.068,13.242,14.231,18.663,24.509
	c5.412,10.279,9.683,22.403,12.824,36.347C652.968,144.988,654.551,159.867,654.551,175.656 M640.267,175.656
	c0-13.624-1.19-26.502-3.575-38.622c-2.378-12.107-5.625-22.714-9.733-31.807c-4.116-9.082-8.815-16.224-14.12-21.419
	c-5.306-5.19-10.98-7.794-17.04-7.794s-11.791,2.604-17.195,7.794c-5.412,5.195-10.118,12.337-14.128,21.419
	c-4.004,9.093-7.198,19.7-9.571,31.807c-2.383,12.12-3.567,24.998-3.567,38.622c0,13.85,1.185,26.833,3.567,38.949
	c2.373,12.125,5.567,22.727,9.571,31.813c4.01,9.086,8.716,16.17,14.128,21.254c5.404,5.098,11.136,7.631,17.195,7.631
	s11.734-2.533,17.04-7.631c5.305-5.084,10.004-12.168,14.12-21.254c4.108-9.086,7.355-19.688,9.733-31.813
	C639.076,202.489,640.267,189.506,640.267,175.656"/>
<polygon fill="#FFFFFF" points="766.833,285.044 766.833,125.677 704.201,125.677 704.201,285.044 689.598,285.044 689.598,65.957 
	704.201,65.957 704.201,111.397 766.833,111.397 766.833,65.957 781.445,65.957 781.445,285.044 "/>
<polygon fill="#FFFFFF" points="1026.5,285.044 1026.5,125.677 963.861,125.677 963.861,285.044 949.249,285.044 949.249,65.957 
	963.861,65.957 963.861,111.397 1026.5,111.397 1026.5,65.957 1041.104,65.957 1041.104,285.044 "/>
<polygon fill="#FFFFFF" points="822.347,285.044 822.347,65.957 836.95,65.957 836.95,106.526 893.751,66.601 893.751,65.957 
	908.348,65.957 908.348,285.044 893.751,285.044 893.751,85.104 836.95,126.001 836.95,285.044 "/>
<path fill="#FFFFFF" d="M375.492,350.995v-12.488c35.026,0,63.775-19.355,85.443-57.531c16.675-29.367,29.16-69.523,37.159-119.464
	H375.492v-12.488h137.119l-1.057,7.17c-8.159,54.788-21.533,98.851-39.762,130.958c-11.254,19.822-24.514,35.25-39.409,45.85
	C415.606,344.944,396.459,350.995,375.492,350.995"/>
<path fill="#FFFFFF" d="M515.256,127.44H375.492v-12.484h128.456c4.457-47.277,4.084-87.711,3.736-102.463H375.492V0.001h144.225
	l0.267,5.973c0.016,0.517,2.217,53.021-4.162,115.857L515.256,127.44z"/>
<path fill="#FFFFFF" d="M357.475,12.493V0H213.246l-0.252,5.974c-0.027,0.566-2.409,57.556,5.016,123.963
	c4.379,39.113,11.251,73.849,20.437,103.232c11.625,37.195,27.043,66.012,45.841,85.654c20.437,21.348,45.061,32.172,73.187,32.172
	v-12.488c-24.583,0-46.17-9.523-64.16-28.314c-29.51-30.832-50.447-87.822-60.891-165.384h125.051v-12.493H230.851
	c-0.135-1.194-0.278-2.386-0.403-3.596c-5.952-53.078-5.546-100.064-5.16-116.226H357.475z"/>
<rect y="320.241" fill="#FFFFFF" width="267.704" height="12.529"/>
<rect x="474.92" y="320.241" fill="#FFFFFF" width="590.186" height="12.529"/>
<path fill="#FFFFFF" d="M556.407,10.862c0-2.944-0.103-5.298-0.192-7.511h2.206l0.196,4.473h0.099
	c1.673-3.141,4.561-5.011,8.685-5.011c6.036,0,10.112,5.011,10.112,11.927c0,8.45-5.003,12.715-10.701,12.715
	c-3.387,0-6.378-1.522-7.994-4.367h-0.102v13.55h-2.309V10.862z M558.716,17.643c0,0.627,0.102,1.271,0.197,1.857
	c0.979,3.637,4.126,5.991,7.751,5.991c5.403,0,8.495-4.367,8.495-10.648c0-5.302-2.944-10.119-8.3-10.119
	c-3.435,0-6.766,2.411-7.808,6.285c-0.139,0.64-0.336,1.378-0.336,2.017V17.643z"/>
<path fill="#FFFFFF" d="M627.072,14.888c0,7.564,4.116,10.512,8.979,10.512c3.443,0,5.207-0.693,6.527-1.332l0.599,1.865
	c-0.895,0.492-3.297,1.521-7.413,1.521c-6.782,0-11.004-4.957-11.004-11.873c0-7.86,4.518-12.768,10.603-12.768
	c7.708,0,9.175,7.265,9.175,10.652c0,0.644,0,1.029-0.09,1.423H627.072z M642.087,13.026c0.049-3.288-1.32-8.302-7.021-8.302
	c-5.197,0-7.462,4.665-7.854,8.302H642.087z"/>
<path fill="#FFFFFF" d="M710.138,25.884c-1.017,0.541-3.478,1.57-6.863,1.57c-6.813,0-11.34-4.957-11.34-12.074
	c0-7.462,5.099-12.567,12.177-12.567c2.895,0,5.255,0.828,6.183,1.476L709.466,6.2c-1.181-0.636-3.001-1.374-5.602-1.374
	c-6.329,0-9.576,4.863-9.576,10.41c0,6.129,3.887,10.164,9.34,10.164c2.787,0,4.616-0.787,5.887-1.332L710.138,25.884z"/>
<polygon fill="#FFFFFF" points="774.032,3.35 774.032,5.318 766.382,5.318 766.382,26.917 764.021,26.917 764.021,5.318 
	756.361,5.318 756.361,3.35 "/>
<path fill="#FFFFFF" d="M840.723,14.888c0,8.843-6.035,12.567-11.292,12.567c-6.092,0-10.807-4.765-10.807-12.125
	c0-8.097,5.313-12.517,11.144-12.517C836.294,2.813,840.723,7.676,840.723,14.888 M820.985,15.183
	c0,5.892,3.788,10.308,8.602,10.308c4.903,0,8.773-4.416,8.773-10.451c0-4.322-2.46-10.316-8.634-10.316
	C823.732,4.724,820.985,10.127,820.985,15.183"/>
<path fill="#FFFFFF" d="M889.931,10.862c0-2.944-0.099-5.298-0.197-7.511h2.206l0.195,4.473h0.1
	c1.673-3.141,4.566-5.011,8.684-5.011c6.044,0,10.119,5.011,10.119,11.927c0,8.45-5.002,12.715-10.701,12.715
	c-3.387,0-6.38-1.522-8.003-4.367h-0.099v13.55h-2.304V10.862z M892.234,17.643c0,0.627,0.099,1.271,0.205,1.857
	c0.983,3.637,4.125,5.991,7.741,5.991c5.411,0,8.503-4.367,8.503-10.648c0-5.302-2.943-10.119-8.299-10.119
	c-3.436,0-6.781,2.411-7.798,6.285c-0.147,0.64-0.353,1.378-0.353,2.017V17.643z"/>
<path fill="#FFFFFF" d="M974.874,21.325c0,1.865,0.098,3.775,0.336,5.592h-2.1l-0.344-3.383h-0.148
	c-1.123,1.813-3.73,3.92-7.511,3.92c-4.715,0-6.921-3.337-6.921-6.478c0-5.445,4.806-8.733,14.383-8.639v-0.595
	c0-2.353-0.442-7.019-6.043-6.965c-2.051,0-4.215,0.541-5.888,1.771L959.9,4.826c2.115-1.423,4.756-2.013,6.88-2.013
	c6.822,0,8.094,5.104,8.094,9.331V21.325z M972.569,14.305c-5.158-0.156-11.931,0.631-11.931,6.281c0,3.379,2.263,4.904,4.715,4.904
	c3.92,0,6.142-2.403,6.97-4.707c0.147-0.492,0.246-0.988,0.246-1.431V14.305z"/>
<polygon fill="#FFFFFF" points="1027.911,3.35 1027.911,13.465 1041.466,13.465 1041.466,3.35 1043.77,3.35 1043.77,26.917 
	1041.466,26.917 1041.466,15.432 1027.911,15.432 1027.911,26.917 1025.557,26.917 1025.557,3.35 "/>
<rect fill="none" width="1065.105" height="350.995"/>
</svg>
