<?xml version="1.0" encoding="UTF-8" standalone="no"?>
<svg
   xmlns:dc="http://purl.org/dc/elements/1.1/"
   xmlns:cc="http://creativecommons.org/ns#"
   xmlns:rdf="http://www.w3.org/1999/02/22-rdf-syntax-ns#"
   xmlns:svg="http://www.w3.org/2000/svg"
   xmlns="http://www.w3.org/2000/svg"
   viewBox="0 0 622.88531 200.75467"
   height="200.75467"
   width="622.88531"
   xml:space="preserve"
   id="svg2"
   version="1.1"><metadata
     id="metadata8"><rdf:RDF><cc:Work
         rdf:about=""><dc:format>image/svg+xml</dc:format><dc:type
           rdf:resource="http://purl.org/dc/dcmitype/StillImage" /></cc:Work></rdf:RDF></metadata><defs
     id="defs6"><clipPath
       id="clipPath18"
       clipPathUnits="userSpaceOnUse"><path
         id="path16"
         d="M 0,150.566 H 467.164 V 0 H 0 Z" /></clipPath></defs><g
     transform="matrix(1.3333333,0,0,-1.3333333,0,200.75467)"
     id="g10"><g
       id="g12"><g
         clip-path="url(#clipPath18)"
         id="g14"><g
           transform="translate(9.9717,104.1943)"
           id="g20"><path
             id="path22"
             style="fill:#ffffff;fill-opacity:1;fill-rule:nonzero;stroke:none"
             d="m 0,0 v -24.956 c 0,-3.215 0.138,-6.511 0.42,-9.907 0.29,-3.418 0.694,-6.91 1.245,-10.441 0.554,-3.551 1.288,-6.955 2.213,-10.23 0.895,-3.29 1.984,-6.404 3.242,-9.384 1.241,-2.933 2.694,-5.63 4.355,-8.064 1.646,-2.423 3.509,-4.582 5.55,-6.486 1.991,-1.843 4.204,-3.221 6.648,-4.15 2.446,-0.901 5.133,-1.386 8.053,-1.386 0.888,0 1.605,-0.72 1.605,-1.606 v -6.634 c 0,-0.874 -0.717,-1.587 -1.605,-1.587 -7.592,0 -14.078,2.139 -19.487,6.437 -5.28,4.218 -9.582,9.68 -12.901,16.393 -1.638,3.337 -3.058,6.882 -4.242,10.614 -1.187,3.741 -2.142,7.689 -2.882,11.839 -0.716,4.084 -1.258,8.213 -1.637,12.377 h -0.008 v 0.033 c -0.366,4.111 -0.541,8.227 -0.541,12.31 v 33.21 c 0,0.874 0.713,1.586 1.598,1.586 h 40.237 c 0.889,0 1.598,-0.712 1.598,-1.586 V 1.601 C 33.461,0.713 32.752,0 31.863,0 Z m 79.715,-93.472 -14.403,72.734 -9.637,-6.673 v -65.833 c 0,-0.874 -0.716,-1.587 -1.603,-1.587 H 47.98 c -0.887,0 -1.603,0.713 -1.603,1.587 v 91.455 c 0,0.888 0.716,1.6 1.603,1.6 h 6.092 c 0.887,0 1.603,-0.712 1.603,-1.6 v -14.569 l 22.965,15.88 v 0.013 c 0.722,0.498 1.715,0.317 2.217,-0.409 0.151,-0.216 0.234,-0.444 0.275,-0.693 l 1.198,-6.155 c 0.13,-0.653 -0.156,-1.285 -0.681,-1.642 l -8.189,-5.859 15.512,-77.705 c 0.164,-0.86 -0.401,-1.701 -1.261,-1.883 -0.097,-0.006 -0.205,-0.02 -0.309,-0.02 h -0.007 -6.081 c -0.814,0 -1.477,0.579 -1.599,1.359 m 69.455,-1.359 h -0.005 -6.088 c -0.756,0 -1.399,0.532 -1.558,1.237 l -18.759,73.407 -18.641,-73.44 -1.549,0.383 1.549,-0.383 c -0.18,-0.746 -0.856,-1.217 -1.586,-1.204 h -6.054 c -0.896,0 -1.611,0.713 -1.611,1.587 0,0.148 0.019,0.297 0.063,0.438 l 23.288,91.413 1.554,-0.396 -1.554,0.396 c 0.191,0.713 0.837,1.204 1.554,1.204 h 0.037 6.053 c 0.763,0 1.413,-0.531 1.572,-1.244 l 23.293,-91.414 c 0.215,-0.86 -0.302,-1.721 -1.164,-1.95 -0.138,-0.02 -0.254,-0.034 -0.394,-0.034 m 54.117,1.271 -1.978,7.789 h -33.415 l -2.01,-7.856 -1.544,0.383 1.549,-0.383 c -0.184,-0.746 -0.86,-1.217 -1.583,-1.204 h -6.061 c -0.885,0 -1.615,0.713 -1.615,1.587 0,0.148 0.037,0.297 0.078,0.438 l 23.288,91.413 1.55,-0.396 -1.55,0.396 c 0.187,0.713 0.841,1.204 1.55,1.204 h 0.034 6.06 c 0.766,0 1.399,-0.531 1.573,-1.244 l 23.281,-91.414 c 0.219,-0.86 -0.306,-1.721 -1.15,-1.95 -0.137,-0.02 -0.268,-0.034 -0.394,-0.034 h -0.007 -6.097 c -0.77,0 -1.422,0.553 -1.559,1.271 m -18.765,73.373 -14.327,-56.273 h 28.665 z m 84.556,-74.644 h -40.561 v -7.627 c 0,-0.875 -0.714,-1.588 -1.6,-1.588 h -5.009 c -0.882,0 -1.597,0.713 -1.597,1.588 v 15.31 c 0,0.893 0.715,1.614 1.597,1.614 h 7.067 v 22.103 c 0,3.652 0.181,7.352 0.504,11.131 0.336,3.761 0.841,7.487 1.486,11.16 0.673,3.747 1.547,7.312 2.611,10.682 l 1.52,-0.478 -1.509,0.478 -0.011,0.014 0.052,0.133 c 1.071,3.344 2.329,6.499 3.782,9.452 2.992,6.081 6.9,11.024 11.69,14.832 2.455,1.958 5.152,3.404 8.112,4.379 2.94,0.968 6.122,1.459 9.538,1.459 h 0.067 c 0.438,0.014 0.875,-0.134 1.198,-0.47 0.309,-0.31 0.471,-0.721 0.471,-1.13 v -83.745 h 7.346 c 0.886,0 1.6,-0.721 1.6,-1.614 v -15.432 c 0,-0.888 -0.714,-1.614 -1.6,-1.614 h -5.154 c -0.886,0 -1.6,0.726 -1.6,1.614 z m -9.887,84.048 c -3.303,-1.298 -6.115,-3.445 -8.457,-6.41 -1.466,-1.877 -2.79,-3.901 -3.988,-6.061 -1.198,-2.185 -2.273,-4.56 -3.221,-7.131 l -1.487,0.546 1.487,-0.559 c -0.949,-2.569 -1.756,-5.219 -2.429,-7.91 -0.687,-2.724 -1.212,-5.529 -1.609,-8.401 -0.806,-5.785 -1.217,-11.308 -1.217,-16.588 v -22.237 h 20.921 z m 92.111,-82.461 v 73.024 l -23.077,16.54 v -89.564 c 0,-0.874 -0.707,-1.587 -1.595,-1.587 h -6.781 c -0.874,0 -1.588,0.713 -1.588,1.587 V 8.382 c 0,0.874 0.714,1.586 1.588,1.586 h 6.781 c 0.647,0 1.209,-0.383 1.453,-0.942 L 351.302,-7.38 V 8.382 c 0,0.874 0.714,1.586 1.602,1.586 h 6.781 c 0.874,0 1.593,-0.712 1.593,-1.586 V -93.244 c 0,-0.874 -0.719,-1.587 -1.593,-1.587 h -6.781 c -0.888,0 -1.602,0.713 -1.602,1.587 m 15.99,36.304 v 6.787 c 0,0.888 0.72,1.6 1.607,1.6 h 31.831 c 0.888,0 1.606,-0.712 1.606,-1.6 v -6.787 c 0,-0.874 -0.718,-1.588 -1.606,-1.588 h -31.831 c -0.887,0 -1.607,0.714 -1.607,1.588 m 35.044,39.579 c 0,-2.435 -0.121,-4.716 -0.349,-6.848 -0.234,-2.112 -0.599,-4.064 -1.068,-5.825 l -1.543,0.404 1.555,-0.418 -0.026,-0.08 c -0.472,-1.735 -1.009,-3.323 -1.642,-4.742 -0.632,-1.486 -1.346,-2.819 -2.167,-3.996 h 0.008 c -0.034,-0.047 -0.06,-0.094 -0.101,-0.148 -0.8,-1.131 -1.648,-2.105 -2.556,-2.953 -0.955,-0.888 -2.004,-1.628 -3.142,-2.214 -1.109,-0.584 -2.247,-1.028 -3.396,-1.304 -1.164,-0.295 -2.355,-0.451 -3.565,-0.451 -1.211,0 -2.409,0.156 -3.585,0.451 -1.144,0.276 -2.282,0.72 -3.398,1.304 -1.116,0.586 -2.152,1.326 -3.121,2.214 -0.968,0.888 -1.849,1.923 -2.663,3.101 l 1.319,0.901 -1.319,-0.901 c -0.035,0.04 -0.068,0.087 -0.094,0.148 -0.774,1.156 -1.466,2.435 -2.086,3.848 -0.618,1.446 -1.157,3.046 -1.641,4.822 h -0.006 l -0.015,0.102 c -0.463,1.741 -0.807,3.645 -1.027,5.737 -0.243,2.132 -0.358,4.413 -0.358,6.848 0,2.434 0.142,4.729 0.424,6.868 0.283,2.172 0.714,4.149 1.277,5.938 0.566,1.777 1.204,3.431 1.925,4.905 0.74,1.5 1.548,2.852 2.455,4.043 0.894,1.19 1.823,2.225 2.791,3.1 0.977,0.889 2.005,1.627 3.068,2.213 1.049,0.571 2.072,1.01 3.053,1.305 1.05,0.296 2.046,0.458 3.001,0.458 1.883,0 3.901,-0.599 6.046,-1.763 1.071,-0.586 2.093,-1.324 3.075,-2.213 0.968,-0.875 1.89,-1.91 2.784,-3.1 0.902,-1.191 1.716,-2.543 2.462,-4.043 0.713,-1.474 1.36,-3.128 1.925,-4.905 0.551,-1.789 0.982,-3.766 1.27,-5.938 0.29,-2.139 0.43,-4.434 0.43,-6.868 m -9.436,0 c 0,3.545 -0.363,6.538 -1.077,8.953 -0.376,1.237 -0.774,2.334 -1.197,3.296 -0.423,0.948 -0.873,1.775 -1.372,2.489 -0.498,0.713 -0.981,1.317 -1.46,1.803 l 1.111,1.135 -1.13,-1.135 -0.067,0.087 c -0.446,0.423 -0.875,0.78 -1.313,1.022 -0.498,0.276 -0.948,0.491 -1.351,0.618 -0.324,0.109 -0.606,0.175 -0.84,0.175 -0.231,0 -0.52,-0.066 -0.841,-0.175 C 382.958,0.78 382.5,0.565 382.017,0.289 h 0.012 -0.012 V 0.275 l -0.082,-0.046 c -0.431,-0.255 -0.859,-0.599 -1.278,-1.037 -0.491,-0.498 -0.968,-1.09 -1.411,-1.789 -0.472,-0.706 -0.915,-1.54 -1.339,-2.503 -0.007,-0.039 -0.033,-0.087 -0.062,-0.133 -0.377,-0.928 -0.766,-1.971 -1.124,-3.175 -0.349,-1.197 -0.61,-2.543 -0.8,-4.016 v -0.014 l -0.012,-0.074 c -0.175,-1.473 -0.256,-3.088 -0.256,-4.849 0,-1.803 0.081,-3.445 0.268,-4.945 l 0.014,-0.047 c 0.176,-1.472 0.443,-2.784 0.786,-3.968 0.371,-1.251 0.775,-2.348 1.186,-3.309 v -0.015 0.015 l 0.059,-0.122 c 0.406,-0.908 0.829,-1.702 1.28,-2.388 0.443,-0.692 0.92,-1.284 1.411,-1.789 0.445,-0.464 0.909,-0.821 1.36,-1.09 h 0.012 l 0.1,-0.06 c 0.453,-0.242 0.87,-0.437 1.234,-0.572 0.321,-0.108 0.61,-0.175 0.841,-0.175 0.234,0 0.516,0.067 0.84,0.175 0.403,0.135 0.848,0.357 1.351,0.632 h -0.007 0.007 -0.007 l 0.074,0.047 c 0.451,0.269 0.889,0.619 1.313,1.043 l 1.13,-1.117 -1.13,1.131 0.093,0.074 c 0.458,0.477 0.923,1.063 1.386,1.729 0.499,0.713 0.949,1.547 1.372,2.482 0.423,0.975 0.821,2.071 1.197,3.309 0.356,1.197 0.627,2.536 0.808,4.015 0.173,1.5 0.269,3.142 0.269,4.945 m 64.292,4.729 v -12.196 c 0,-8.213 -0.726,-16.459 -2.187,-24.72 -0.74,-4.15 -1.701,-8.098 -2.879,-11.839 -1.19,-3.732 -2.596,-7.277 -4.244,-10.614 -1.655,-3.35 -3.551,-6.397 -5.691,-9.121 -2.165,-2.738 -4.56,-5.159 -7.216,-7.272 -5.389,-4.298 -11.887,-6.437 -19.487,-6.437 -0.874,0 -1.602,0.713 -1.602,1.587 v 6.634 c 0,0.839 0.654,1.526 1.494,1.606 l 0.108,-1.606 -0.108,1.606 c 1.049,0.074 2.18,0.169 3.364,0.263 0.464,0.053 0.922,0.107 1.35,0.188 l 0.129,0.034 0.317,-1.581 -0.317,1.581 c 0.511,0.101 0.989,0.215 1.466,0.37 l 0.127,0.034 0.458,-1.541 -0.458,1.528 c 2.314,0.685 4.455,1.681 6.412,3.039 1.964,1.326 3.739,3.007 5.319,5.032 1.636,2.065 3.117,4.331 4.448,6.74 1.317,2.442 2.489,5.058 3.505,7.856 1.015,2.812 1.903,5.731 2.629,8.738 0.713,2.98 1.291,6.068 1.736,9.262 l 0.013,0.102 c 0.443,3.214 0.788,6.37 1.008,9.458 0.23,3.046 0.337,6.033 0.337,8.945 v 4.097 h -31.735 c -0.874,0 -1.602,0.719 -1.602,1.601 v 27.64 c 0,0.874 0.728,1.586 1.602,1.586 h 40.109 c 0.876,0 1.595,-0.712 1.595,-1.586 V 1.601 C 457.192,0.713 456.473,0 455.597,0 h -31.862 v -11.024 h 31.862 c 0.876,0 1.595,-0.721 1.595,-1.608" /></g><g
           transform="translate(68.042,139.6836)"
           id="g24"><path
             id="path26"
             style="fill:#ffffff;fill-opacity:1;fill-rule:nonzero;stroke:none"
             d="M 0,0 C 0,-0.061 -0.078,-0.139 -0.208,-0.199 -0.353,-0.296 -0.505,-0.366 -0.69,-0.414 -0.862,-0.475 -1.033,-0.519 -1.22,-0.589 -1.393,-0.633 -1.517,-0.67 -1.577,-0.67 c -0.131,-0.027 -0.29,-0.08 -0.484,-0.178 -0.192,-0.111 -0.39,-0.184 -0.601,-0.283 -0.204,-0.103 -0.406,-0.178 -0.591,-0.262 -0.164,-0.053 -0.309,-0.093 -0.426,-0.093 -0.048,0 -0.095,0.013 -0.118,0.04 -0.06,0.111 -0.075,0.212 -0.06,0.329 0.012,0.111 0,0.228 -0.015,0.381 -0.089,0.322 -0.227,0.578 -0.42,0.749 -0.178,0.178 -0.413,0.29 -0.655,0.33 C -5.2,0.39 -5.463,0.376 -5.731,0.303 -6.014,0.248 -6.243,0.138 -6.434,0 -7.052,-0.414 -7.49,-0.985 -7.709,-1.735 -7.928,-2.482 -8.031,-3.249 -8.031,-4.043 v -9.524 c 0,-0.457 0.124,-0.889 0.366,-1.279 0.246,-0.377 0.364,-0.726 0.364,-1.023 0,-0.228 -0.105,-0.335 -0.324,-0.335 h -4.292 c -0.137,0 -0.288,0.013 -0.474,0.04 -0.168,0.027 -0.262,0.154 -0.262,0.336 0,0.081 0.048,0.216 0.145,0.384 0.093,0.181 0.198,0.397 0.309,0.626 0.101,0.228 0.212,0.497 0.31,0.779 0.094,0.29 0.144,0.578 0.144,0.902 V 1.308 c 0,0.532 -0.131,0.963 -0.367,1.322 -0.251,0.366 -0.376,0.615 -0.376,0.75 0,0.208 0.068,0.312 0.205,0.312 0.381,0 0.767,0 1.131,-0.03 0.379,-0.026 0.749,-0.054 1.143,-0.054 0.333,0 0.652,0.04 0.986,0.084 0.323,0.068 0.658,0.098 0.992,0.098 h 0.343 c 0.145,0 0.242,-0.084 0.269,-0.208 C -7.584,3.354 -7.716,3.188 -7.807,3.063 -7.893,2.946 -7.985,2.832 -8.019,2.734 -8.059,2.643 -8.082,2.516 -8.082,2.36 V 1.762 1.396 h 0.131 c 0.353,0.712 0.906,1.304 1.621,1.765 0.729,0.475 1.392,0.709 2.005,0.709 1.368,0 2.381,-0.288 3.031,-0.86 C -0.662,2.425 -0.256,1.694 -0.125,0.813 -0.104,0.689 -0.078,0.545 -0.044,0.427 -0.023,0.303 0,0.15 0,0" /></g><g
           transform="translate(84.0845,139.3877)"
           id="g28"><path
             id="path30"
             style="fill:#ffffff;fill-opacity:1;fill-rule:nonzero;stroke:none"
             d="m 0,0 c -0.613,0.599 -1.413,0.915 -2.361,0.915 -0.911,0 -1.681,-0.219 -2.318,-0.619 -0.632,-0.414 -1.135,-0.959 -1.513,-1.581 -0.387,-0.659 -0.669,-1.372 -0.848,-2.153 -0.187,-0.78 -0.275,-1.56 -0.275,-2.327 l 8.532,3.416 C 1.02,-1.387 0.626,-0.609 0,0 m 5.214,-4.325 -11.95,-4.951 c 0.328,-0.955 0.84,-1.748 1.519,-2.355 0.697,-0.619 1.55,-0.934 2.6,-0.934 1.066,0 1.992,0.342 2.748,1.015 0.75,0.706 1.164,1.58 1.254,2.65 0,0.148 0.032,0.202 0.122,0.202 0.071,0 0.309,-0.108 0.669,-0.322 0.387,-0.23 0.763,-0.479 1.157,-0.761 0.401,-0.289 0.758,-0.559 1.072,-0.8 0.32,-0.263 0.479,-0.391 0.479,-0.417 0,-0.135 -0.034,-0.257 -0.085,-0.35 -0.053,-0.1 -0.112,-0.215 -0.164,-0.296 -0.797,-1.581 -1.756,-2.724 -2.879,-3.444 -1.124,-0.74 -2.589,-1.102 -4.373,-1.102 -1.425,0 -2.673,0.295 -3.725,0.886 -1.063,0.579 -1.938,1.373 -2.641,2.355 -0.696,0.969 -1.218,2.065 -1.565,3.296 -0.335,1.211 -0.507,2.462 -0.507,3.733 0,1.245 0.179,2.502 0.578,3.733 0.371,1.235 0.929,2.331 1.688,3.287 0.73,0.938 1.659,1.712 2.756,2.296 1.093,0.592 2.36,0.891 3.786,0.891 1.158,0 2.214,-0.201 3.182,-0.645 C 1.887,3.229 2.708,2.644 3.359,1.906 4.022,1.184 4.523,0.343 4.857,-0.65 5.207,-1.614 5.331,-2.657 5.264,-3.78 Z" /></g><g
           transform="translate(110.3521,129.291)"
           id="g32"><path
             id="path34"
             style="fill:#ffffff;fill-opacity:1;fill-rule:nonzero;stroke:none"
             d="m 0,0 c 0,-1.064 -0.235,-1.979 -0.717,-2.731 -0.484,-0.76 -1.11,-1.386 -1.872,-1.883 -0.778,-0.485 -1.625,-0.863 -2.578,-1.09 -0.959,-0.23 -1.873,-0.35 -2.778,-0.35 -1.566,0 -2.972,0.215 -4.193,0.659 -1.211,0.451 -2.267,0.956 -3.145,1.561 -0.105,0.066 -0.209,0.107 -0.292,0.175 -0.081,0.066 -0.114,0.147 -0.114,0.288 0,0.162 0.086,0.316 0.278,0.478 0.195,0.149 0.458,0.485 0.787,1.036 0.159,0.283 0.296,0.58 0.39,0.888 0.101,0.31 0.256,0.485 0.471,0.485 0.138,0 0.29,-0.102 0.454,-0.269 0.164,-0.189 0.283,-0.311 0.38,-0.391 0.599,-0.557 1.383,-0.982 2.362,-1.292 0.964,-0.295 1.859,-0.444 2.659,-0.444 0.435,0 0.889,0.055 1.384,0.163 0.469,0.113 0.911,0.281 1.268,0.537 0.379,0.243 0.681,0.565 0.927,0.955 0.249,0.383 0.379,0.834 0.379,1.36 0,0.765 -0.224,1.412 -0.671,1.97 -0.438,0.551 -0.985,1.043 -1.662,1.487 -0.669,0.47 -1.399,0.901 -2.183,1.304 -0.787,0.397 -1.506,0.821 -2.183,1.306 -0.676,0.477 -1.234,1.035 -1.667,1.675 -0.442,0.625 -0.663,1.398 -0.663,2.309 0,0.791 0.181,1.447 0.538,1.968 0.36,0.525 0.833,0.946 1.42,1.261 0.584,0.311 1.253,0.539 1.977,0.67 0.73,0.118 1.459,0.172 2.209,0.172 0.296,0 0.709,-0.048 1.255,-0.145 0.532,-0.094 1.076,-0.212 1.604,-0.374 0.538,-0.144 1.012,-0.323 1.425,-0.541 0.408,-0.184 0.631,-0.414 0.664,-0.626 -0.181,-0.332 -0.407,-0.648 -0.702,-0.945 -0.159,-0.205 -0.29,-0.359 -0.375,-0.497 -0.08,-0.145 -0.191,-0.316 -0.328,-0.528 -0.166,-0.262 -0.35,-0.434 -0.58,-0.537 -0.551,0.268 -1.116,0.497 -1.708,0.671 -0.591,0.182 -1.201,0.277 -1.833,0.277 -0.302,0 -0.632,-0.095 -0.971,-0.29 C -8.729,10.523 -8.9,10.24 -8.9,9.889 -8.9,9.615 -8.688,9.326 -8.238,8.986 -7.8,8.657 -7.261,8.287 -6.592,7.896 -5.933,7.493 -5.218,7.036 -4.449,6.552 -3.679,6.061 -2.964,5.502 -2.294,4.869 -1.645,4.231 -1.09,3.504 -0.655,2.697 -0.216,1.896 0,1.009 0,0" /></g><g
           transform="translate(128.1094,123.6474)"
           id="g36"><path
             id="path38"
             style="fill:#ffffff;fill-opacity:1;fill-rule:nonzero;stroke:none"
             d="m 0,0 c -0.027,-0.242 -0.208,-0.37 -0.532,-0.37 -0.796,0 -1.63,0.066 -2.492,0.187 -0.867,0.122 -1.653,0.337 -2.37,0.647 -0.881,0.377 -1.678,0.834 -2.392,1.373 -0.716,0.537 -1.312,1.196 -1.829,2.004 -0.518,0.793 -0.901,1.749 -1.173,2.851 -0.279,1.117 -0.412,2.436 -0.412,3.976 v 5.616 h -1.413 c -0.379,0 -0.563,0.193 -0.563,0.562 v 2.317 c 0,0.219 0.019,0.364 0.079,0.451 0.052,0.084 0.197,0.115 0.412,0.115 h 1.436 c -0.028,0.73 -0.074,1.419 -0.14,2.091 -0.072,0.677 -0.191,1.151 -0.355,1.419 -0.047,0.109 -0.125,0.206 -0.171,0.303 -0.084,0.099 -0.118,0.22 -0.118,0.36 0,0.105 0.13,0.212 0.397,0.337 0.255,0.111 0.436,0.179 0.517,0.245 l 1.846,1.016 c 0.138,0.088 0.304,0.205 0.491,0.373 0.166,0.142 0.343,0.286 0.546,0.431 0.187,0.164 0.369,0.29 0.555,0.413 0.171,0.119 0.339,0.202 0.471,0.202 h 0.124 c 0.053,0 0.122,-0.03 0.205,-0.057 0.085,-0.026 0.131,-0.084 0.131,-0.158 0,-0.191 -0.046,-0.413 -0.131,-0.676 -0.083,-0.232 -0.152,-0.454 -0.205,-0.646 -0.05,-0.269 -0.104,-0.618 -0.168,-1.046 -0.055,-0.42 -0.094,-0.874 -0.145,-1.339 -0.033,-0.474 -0.06,-0.914 -0.074,-1.335 -0.019,-0.433 -0.019,-0.783 -0.019,-1.059 v -0.874 h 6.093 c 0.215,0 0.36,-0.031 0.406,-0.115 0.062,-0.087 0.081,-0.232 0.081,-0.451 v -2.317 c 0,-0.369 -0.19,-0.562 -0.561,-0.562 h -6.019 v -5.616 c 0,-2.415 0.42,-4.244 1.269,-5.509 0.863,-1.264 2.316,-1.897 4.37,-1.897 0.193,0 0.394,0.041 0.572,0.141 0.191,0.101 0.369,0.182 0.541,0.276 0.132,0.041 0.245,0.107 0.307,0.162 0.073,0.054 0.184,0.054 0.355,0 0.051,-0.034 0.058,-0.398 0.044,-1.117 -0.044,-0.471 -0.044,-0.7 -0.029,-0.727 0.014,0 0.029,-0.094 0.029,-0.222 C -0.078,1.284 -0.063,0.901 -0.027,0.652 0.028,0.39 0.028,0.167 0,0" /></g><g
           transform="translate(145.2891,133.791)"
           id="g40"><path
             id="path42"
             style="fill:#ffffff;fill-opacity:1;fill-rule:nonzero;stroke:none"
             d="m 0,0 c 0,0.101 -0.019,0.155 -0.078,0.155 -0.328,-0.189 -0.874,-0.397 -1.644,-0.613 -0.77,-0.222 -1.57,-0.518 -2.37,-0.894 -0.822,-0.356 -1.514,-0.821 -2.119,-1.372 -0.61,-0.552 -0.912,-1.238 -0.912,-2.058 0,-0.552 0.09,-0.983 0.269,-1.306 0.174,-0.308 0.413,-0.552 0.736,-0.699 0.313,-0.189 0.677,-0.29 1.078,-0.329 0.39,-0.034 0.803,-0.048 1.209,-0.048 0.268,0 0.636,0.048 1.078,0.148 0.44,0.108 0.872,0.269 1.266,0.457 0.419,0.202 0.77,0.417 1.053,0.713 C -0.145,-5.55 0,-5.253 0,-4.918 Z m 4.372,-9.977 c 0,-0.146 -0.046,-0.227 -0.142,-0.241 -0.09,-0.034 -0.194,-0.047 -0.272,-0.047 -0.383,0 -0.77,0.013 -1.149,0.061 -0.391,0.04 -0.764,0.053 -1.164,0.053 -0.303,0 -0.606,-0.013 -0.928,-0.039 -0.303,-0.014 -0.612,-0.047 -0.918,-0.075 v 0.155 c 0,0.148 0.009,0.269 0.03,0.364 0.007,0.101 0.014,0.201 0.014,0.342 l -0.085,0.088 c -0.249,-0.047 -0.502,-0.142 -0.763,-0.27 -0.27,-0.121 -0.546,-0.255 -0.841,-0.391 -0.31,-0.146 -0.646,-0.26 -1.026,-0.362 -0.4,-0.121 -0.834,-0.168 -1.328,-0.168 -0.986,0 -1.904,0.073 -2.729,0.255 -0.856,0.183 -1.563,0.498 -2.169,0.936 -0.598,0.437 -1.082,1.036 -1.42,1.789 -0.351,0.766 -0.522,1.709 -0.522,2.866 0,1.156 0.261,2.112 0.812,2.851 0.532,0.767 1.205,1.4 2.012,1.938 0.81,0.517 1.692,0.955 2.63,1.311 0.952,0.357 1.826,0.693 2.644,1.002 0.807,0.324 1.484,0.646 2.017,0.995 0.538,0.351 0.799,0.768 0.799,1.302 0,0.373 -0.045,0.703 -0.176,0.98 -0.132,0.281 -0.415,0.427 -0.892,0.427 h -5.812 c -0.433,0 -0.73,-0.131 -0.868,-0.36 -0.13,-0.232 -0.261,-0.344 -0.399,-0.344 -0.062,0 -0.088,0.04 -0.088,0.124 v 3.458 c 0,0.193 0.026,0.331 0.088,0.434 0.05,0.104 0.182,0.131 0.399,0.131 h 6.68 C -0.532,9.588 0.09,9.575 0.689,9.504 1.281,9.457 1.782,9.313 2.203,9.077 2.63,8.845 2.976,8.506 3.216,8.045 3.464,7.594 3.589,6.962 3.589,6.145 V -6.976 c 0,-0.538 0.131,-1.089 0.383,-1.621 0.273,-0.539 0.4,-1.002 0.4,-1.38" /></g><g
           transform="translate(171.6568,143.1406)"
           id="g44"><path
             id="path46"
             style="fill:#ffffff;fill-opacity:1;fill-rule:nonzero;stroke:none"
             d="m 0,0 c 0,-0.309 -0.124,-0.695 -0.365,-1.156 -0.249,-0.461 -0.371,-0.966 -0.371,-1.488 v -11.408 c 0,-0.968 -0.216,-1.802 -0.636,-2.508 -0.433,-0.72 -0.991,-1.312 -1.664,-1.784 -0.697,-0.457 -1.471,-0.793 -2.317,-1.035 -0.848,-0.215 -1.699,-0.309 -2.554,-0.309 -0.911,0 -1.782,0.08 -2.64,0.309 -0.853,0.201 -1.611,0.538 -2.237,0.983 -0.648,0.457 -1.169,1.035 -1.57,1.748 -0.401,0.713 -0.599,1.587 -0.599,2.596 v 11.408 c 0,0.522 -0.118,1.027 -0.372,1.488 -0.249,0.461 -0.367,0.847 -0.367,1.156 0,0.191 0.089,0.303 0.272,0.333 0.171,0.017 0.33,0.047 0.467,0.047 0.331,0 0.647,-0.033 0.949,-0.117 0.309,-0.058 0.625,-0.112 0.945,-0.112 0.33,0 0.666,0.054 0.993,0.112 0.335,0.084 0.666,0.117 0.992,0.117 0.135,0 0.302,-0.03 0.488,-0.047 0.201,-0.03 0.294,-0.142 0.294,-0.333 0,-0.027 -0.053,-0.138 -0.149,-0.33 -0.092,-0.194 -0.209,-0.434 -0.331,-0.715 -0.118,-0.29 -0.23,-0.623 -0.323,-0.973 -0.097,-0.36 -0.152,-0.723 -0.152,-1.066 v -10.523 c 0,-0.949 0.357,-1.642 1.053,-2.045 0.703,-0.41 1.48,-0.626 2.328,-0.626 0.407,0 0.814,0.061 1.22,0.168 0.39,0.107 0.765,0.269 1.086,0.498 0.334,0.228 0.599,0.485 0.814,0.835 0.2,0.322 0.297,0.712 0.297,1.17 v 10.523 c 0,0.343 -0.048,0.706 -0.145,1.066 -0.097,0.35 -0.201,0.683 -0.33,0.973 -0.117,0.281 -0.228,0.521 -0.332,0.715 -0.088,0.192 -0.145,0.303 -0.145,0.33 0,0.191 0.104,0.303 0.297,0.333 0.187,0.017 0.358,0.047 0.491,0.047 0.328,0 0.666,-0.033 0.991,-0.117 0.323,-0.058 0.653,-0.112 0.982,-0.112 0.341,0 0.662,0.054 0.959,0.112 0.297,0.084 0.615,0.117 0.945,0.117 0.134,0 0.297,-0.03 0.475,-0.047 C -0.09,0.303 0,0.191 0,0" /></g><g
           transform="translate(190.6934,139.6836)"
           id="g48"><path
             id="path50"
             style="fill:#ffffff;fill-opacity:1;fill-rule:nonzero;stroke:none"
             d="m 0,0 c 0,-0.061 -0.064,-0.139 -0.198,-0.199 -0.141,-0.097 -0.3,-0.167 -0.479,-0.215 -0.178,-0.061 -0.349,-0.105 -0.536,-0.175 -0.172,-0.044 -0.304,-0.081 -0.35,-0.081 -0.133,-0.027 -0.304,-0.08 -0.498,-0.178 -0.186,-0.111 -0.377,-0.184 -0.592,-0.283 -0.212,-0.103 -0.401,-0.178 -0.576,-0.262 -0.189,-0.053 -0.332,-0.093 -0.438,-0.093 -0.053,0 -0.093,0.013 -0.123,0.04 -0.061,0.111 -0.075,0.212 -0.061,0.329 0.008,0.111 0,0.228 -0.021,0.381 -0.074,0.322 -0.215,0.578 -0.413,0.749 -0.185,0.178 -0.413,0.29 -0.662,0.33 C -5.186,0.39 -5.449,0.376 -5.725,0.303 -6,0.248 -6.226,0.138 -6.427,0 -7.06,-0.414 -7.487,-0.985 -7.703,-1.735 -7.92,-2.482 -8.031,-3.249 -8.031,-4.043 v -9.524 c 0,-0.457 0.117,-0.889 0.369,-1.279 0.256,-0.377 0.374,-0.726 0.374,-1.023 0,-0.228 -0.102,-0.335 -0.33,-0.335 h -4.292 c -0.13,0 -0.289,0.013 -0.468,0.04 -0.187,0.027 -0.268,0.154 -0.268,0.336 0,0.081 0.047,0.216 0.152,0.384 0.081,0.181 0.19,0.397 0.302,0.626 0.107,0.228 0.212,0.497 0.303,0.779 0.098,0.29 0.151,0.578 0.151,0.902 V 1.308 c 0,0.532 -0.124,0.963 -0.377,1.322 -0.249,0.366 -0.365,0.615 -0.365,0.75 0,0.208 0.067,0.312 0.208,0.312 0.377,0 0.756,0 1.127,-0.03 0.373,-0.026 0.752,-0.054 1.129,-0.054 0.341,0 0.669,0.04 0.992,0.084 0.331,0.068 0.659,0.098 0.993,0.098 h 0.353 c 0.147,0 0.239,-0.084 0.272,-0.208 C -7.585,3.354 -7.708,3.188 -7.811,3.063 -7.9,2.946 -7.964,2.832 -8.004,2.734 -8.058,2.643 -8.072,2.516 -8.072,2.36 V 1.762 1.396 h 0.124 c 0.35,0.712 0.895,1.304 1.632,1.765 0.722,0.475 1.381,0.709 1.998,0.709 1.362,0 2.384,-0.288 3.023,-0.86 C -0.646,2.425 -0.256,1.694 -0.123,0.813 -0.097,0.689 -0.064,0.545 -0.04,0.427 -0.014,0.303 0,0.15 0,0" /></g><g
           transform="translate(205.8155,133.791)"
           id="g52"><path
             id="path54"
             style="fill:#ffffff;fill-opacity:1;fill-rule:nonzero;stroke:none"
             d="m 0,0 c 0,0.101 -0.021,0.155 -0.085,0.155 -0.33,-0.189 -0.874,-0.397 -1.644,-0.613 -0.765,-0.222 -1.558,-0.518 -2.365,-0.894 -0.822,-0.356 -1.521,-0.821 -2.127,-1.372 -0.6,-0.552 -0.904,-1.238 -0.904,-2.058 0,-0.552 0.092,-0.983 0.271,-1.306 0.174,-0.308 0.42,-0.552 0.729,-0.699 0.319,-0.189 0.689,-0.29 1.083,-0.329 0.39,-0.034 0.803,-0.048 1.209,-0.048 0.27,0 0.64,0.048 1.078,0.148 0.44,0.108 0.86,0.269 1.268,0.457 0.424,0.202 0.77,0.417 1.06,0.713 C -0.145,-5.55 0,-5.253 0,-4.918 Z m 4.364,-9.977 c 0,-0.146 -0.047,-0.227 -0.144,-0.241 -0.091,-0.034 -0.179,-0.047 -0.262,-0.047 -0.378,0 -0.77,0.013 -1.157,0.061 -0.378,0.04 -0.758,0.053 -1.155,0.053 -0.305,0 -0.607,-0.013 -0.923,-0.039 -0.309,-0.014 -0.62,-0.047 -0.915,-0.075 v 0.155 c 0,0.148 0,0.269 0.012,0.364 0.021,0.101 0.021,0.201 0.021,0.342 l -0.085,0.088 c -0.249,-0.047 -0.5,-0.142 -0.763,-0.27 -0.268,-0.121 -0.544,-0.255 -0.847,-0.391 -0.303,-0.146 -0.64,-0.26 -1.026,-0.362 -0.393,-0.121 -0.827,-0.168 -1.322,-0.168 -0.992,0 -1.904,0.073 -2.734,0.255 -0.851,0.183 -1.567,0.498 -2.165,0.936 -0.606,0.437 -1.087,1.036 -1.417,1.789 -0.353,0.766 -0.524,1.709 -0.524,2.866 0,1.156 0.268,2.112 0.814,2.851 0.535,0.767 1.197,1.4 2.01,1.938 0.811,0.517 1.692,0.955 2.637,1.311 0.952,0.357 1.826,0.693 2.633,1.002 0.811,0.324 1.488,0.646 2.023,0.995 0.536,0.351 0.799,0.768 0.799,1.302 0,0.373 -0.054,0.703 -0.178,0.98 -0.123,0.281 -0.42,0.427 -0.89,0.427 h -5.812 c -0.44,0 -0.723,-0.131 -0.868,-0.36 -0.137,-0.232 -0.27,-0.344 -0.408,-0.344 -0.053,0 -0.079,0.04 -0.079,0.124 v 3.458 c 0,0.193 0.026,0.331 0.079,0.434 0.055,0.104 0.189,0.131 0.408,0.131 h 6.68 c 0.662,0 1.291,-0.013 1.88,-0.084 C 1.273,9.457 1.782,9.313 2.203,9.077 2.628,8.845 2.976,8.506 3.225,8.045 3.463,7.594 3.587,6.962 3.587,6.145 V -6.976 c 0,-0.538 0.133,-1.089 0.394,-1.621 0.253,-0.539 0.383,-1.002 0.383,-1.38" /></g><g
           transform="translate(232.5523,123.8554)"
           id="g56"><path
             id="path58"
             style="fill:#ffffff;fill-opacity:1;fill-rule:nonzero;stroke:none"
             d="m 0,0 c 0,-0.182 -0.084,-0.302 -0.256,-0.336 -0.179,-0.027 -0.343,-0.04 -0.484,-0.04 -0.32,0 -0.639,0.04 -0.941,0.107 -0.309,0.074 -0.626,0.094 -0.952,0.094 -0.33,0 -0.659,-0.02 -0.982,-0.094 -0.334,-0.067 -0.655,-0.107 -0.993,-0.107 -0.131,0 -0.306,0.013 -0.498,0.04 -0.198,0.034 -0.288,0.154 -0.288,0.336 0,0.054 0.057,0.148 0.145,0.316 0.097,0.141 0.214,0.35 0.332,0.625 0.127,0.249 0.231,0.566 0.33,0.915 0.087,0.35 0.138,0.768 0.138,1.225 v 10.843 c 0,0.418 -0.104,0.773 -0.316,1.077 -0.237,0.309 -0.505,0.544 -0.834,0.743 -0.323,0.189 -0.69,0.332 -1.091,0.413 -0.407,0.064 -0.77,0.117 -1.136,0.117 -0.337,0 -0.703,-0.066 -1.127,-0.198 -0.423,-0.143 -0.83,-0.332 -1.201,-0.577 -0.372,-0.257 -0.676,-0.546 -0.922,-0.876 -0.254,-0.336 -0.372,-0.686 -0.372,-1.076 V 2.261 c 0,-0.457 0.118,-0.902 0.372,-1.32 0.246,-0.417 0.364,-0.739 0.364,-0.982 0,-0.228 -0.104,-0.335 -0.323,-0.335 -0.392,0 -0.759,0.013 -1.143,0.04 -0.36,0.034 -0.743,0.054 -1.123,0.054 -0.33,0 -0.67,-0.02 -1.005,-0.054 -0.352,-0.027 -0.691,-0.04 -1.021,-0.04 -0.13,0 -0.295,0.013 -0.473,0.04 -0.168,0.034 -0.261,0.154 -0.261,0.336 0,0.189 0.142,0.498 0.446,0.941 0.302,0.445 0.454,1.03 0.454,1.75 v 14.445 c 0,0.633 -0.118,1.096 -0.364,1.376 -0.256,0.292 -0.372,0.531 -0.372,0.699 0,0.199 0.066,0.31 0.208,0.31 0.376,0 0.756,0 1.127,-0.031 0.373,-0.026 0.743,-0.053 1.135,-0.053 0.331,0 0.658,0.04 0.986,0.084 0.338,0.067 0.662,0.097 0.993,0.097 0.056,0 0.171,0 0.372,-0.03 0.193,-0.014 0.274,-0.067 0.246,-0.186 -0.191,-0.241 -0.336,-0.425 -0.44,-0.537 -0.09,-0.104 -0.157,-0.236 -0.178,-0.353 -0.02,-0.101 -0.041,-0.266 -0.041,-0.445 v -0.84 h 0.125 c 0.44,0.763 1.106,1.363 2.017,1.816 0.908,0.434 1.77,0.649 2.597,0.649 0.71,0 1.434,-0.118 2.142,-0.346 0.717,-0.239 1.362,-0.562 1.934,-0.989 0.572,-0.42 1.042,-0.939 1.399,-1.545 0.36,-0.604 0.535,-1.28 0.535,-2.023 V 2.637 C -0.74,2.119 -0.611,1.614 -0.373,1.15 -0.123,0.699 0,0.303 0,0" /></g><g
           transform="translate(250.6099,123.6474)"
           id="g60"><path
             id="path62"
             style="fill:#ffffff;fill-opacity:1;fill-rule:nonzero;stroke:none"
             d="m 0,0 c -0.04,-0.242 -0.208,-0.37 -0.538,-0.37 -0.808,0 -1.627,0.066 -2.489,0.187 -0.874,0.122 -1.662,0.337 -2.369,0.647 -0.886,0.377 -1.681,0.834 -2.393,1.373 -0.721,0.537 -1.331,1.196 -1.837,2.004 -0.512,0.793 -0.907,1.749 -1.178,2.851 -0.275,1.117 -0.417,2.436 -0.417,3.976 v 5.616 h -1.398 c -0.383,0 -0.569,0.193 -0.569,0.562 v 2.317 c 0,0.219 0.021,0.364 0.092,0.451 0.04,0.084 0.182,0.115 0.397,0.115 h 1.452 c -0.041,0.73 -0.086,1.419 -0.149,2.091 -0.079,0.677 -0.187,1.151 -0.349,1.419 -0.06,0.109 -0.127,0.206 -0.187,0.303 -0.067,0.099 -0.095,0.22 -0.095,0.36 0,0.105 0.121,0.212 0.378,0.337 0.268,0.111 0.428,0.179 0.529,0.245 l 1.837,1.016 c 0.148,0.088 0.297,0.205 0.491,0.373 0.168,0.142 0.35,0.286 0.546,0.431 0.187,0.164 0.376,0.29 0.563,0.413 0.169,0.119 0.337,0.202 0.472,0.202 h 0.122 c 0.053,0 0.12,-0.03 0.201,-0.057 0.088,-0.026 0.127,-0.084 0.127,-0.158 0,-0.191 -0.039,-0.413 -0.127,-0.676 -0.081,-0.232 -0.148,-0.454 -0.201,-0.646 -0.056,-0.269 -0.108,-0.618 -0.17,-1.046 -0.06,-0.42 -0.1,-0.874 -0.141,-1.339 -0.039,-0.474 -0.067,-0.914 -0.086,-1.335 -0.008,-0.433 -0.015,-0.783 -0.015,-1.059 v -0.874 h 6.103 c 0.201,0 0.356,-0.031 0.395,-0.115 0.067,-0.087 0.081,-0.232 0.081,-0.451 v -2.317 c 0,-0.369 -0.182,-0.562 -0.572,-0.562 h -6.007 v -5.616 c 0,-2.415 0.424,-4.244 1.271,-5.509 0.856,-1.264 2.322,-1.897 4.367,-1.897 0.194,0 0.376,0.041 0.578,0.141 0.195,0.101 0.363,0.182 0.545,0.276 0.135,0.041 0.228,0.107 0.303,0.162 0.059,0.054 0.181,0.054 0.342,0 C -0.04,3.807 -0.026,3.443 -0.04,2.724 -0.081,2.253 -0.081,2.024 -0.074,1.997 -0.055,1.997 -0.04,1.903 -0.04,1.775 -0.081,1.284 -0.074,0.901 -0.033,0.652 0.013,0.39 0.013,0.167 0,0" /></g></g></g></g></svg>